%TF.GenerationSoftware,KiCad,Pcbnew,9.0.1*%
%TF.CreationDate,2025-05-21T02:45:21+02:00*%
%TF.ProjectId,KinderLight,4b696e64-6572-44c6-9967-68742e6b6963,rev?*%
%TF.SameCoordinates,Original*%
%TF.FileFunction,Copper,L2,Bot*%
%TF.FilePolarity,Positive*%
%FSLAX46Y46*%
G04 Gerber Fmt 4.6, Leading zero omitted, Abs format (unit mm)*
G04 Created by KiCad (PCBNEW 9.0.1) date 2025-05-21 02:45:21*
%MOMM*%
%LPD*%
G01*
G04 APERTURE LIST*
%TA.AperFunction,ComponentPad*%
%ADD10C,1.700000*%
%TD*%
%TA.AperFunction,ComponentPad*%
%ADD11R,1.700000X1.700000*%
%TD*%
%TA.AperFunction,ViaPad*%
%ADD12C,0.600000*%
%TD*%
%TA.AperFunction,Conductor*%
%ADD13C,0.600000*%
%TD*%
%TA.AperFunction,Conductor*%
%ADD14C,0.400000*%
%TD*%
%TA.AperFunction,Conductor*%
%ADD15C,0.250000*%
%TD*%
%TA.AperFunction,Conductor*%
%ADD16C,0.800000*%
%TD*%
G04 APERTURE END LIST*
D10*
%TO.P,J9,2,Pin_2*%
%TO.N,GND*%
X134620000Y-91440000D03*
D11*
%TO.P,J9,1,Pin_1*%
%TO.N,VCC 12V MAX*%
X134620000Y-93980000D03*
%TD*%
%TO.P,J8,1,Pin_1*%
%TO.N,VCC 5V*%
X78500000Y-81960000D03*
D10*
%TO.P,J8,2,Pin_2*%
%TO.N,Net-(J8-Pin_2)*%
X78500000Y-84500000D03*
%TO.P,J8,3,Pin_3*%
%TO.N,Net-(J8-Pin_3)*%
X78500000Y-87040000D03*
%TO.P,J8,4,Pin_4*%
%TO.N,Net-(J8-Pin_4)*%
X78500000Y-89580000D03*
%TD*%
D11*
%TO.P,J7,1,Pin_1*%
%TO.N,Net-(J4-Pin_3)*%
X87040000Y-96500000D03*
D10*
%TO.P,J7,2,Pin_2*%
%TO.N,GND*%
X84500000Y-96500000D03*
%TO.P,J7,3,Pin_3*%
%TO.N,/I2C SCL*%
X81960000Y-96500000D03*
%TO.P,J7,4,Pin_4*%
%TO.N,/I2C SDA*%
X79420000Y-96500000D03*
%TD*%
D11*
%TO.P,J6,1,Pin_1*%
%TO.N,GND*%
X134620000Y-86360000D03*
%TD*%
%TO.P,J5,1,Pin_1*%
%TO.N,VCC 12V MAX*%
X134620000Y-73500000D03*
%TD*%
%TO.P,J4,1,Pin_1*%
%TO.N,VCC 5V*%
X111760000Y-73340000D03*
D10*
%TO.P,J4,2,Pin_2*%
%TO.N,GND*%
X111760000Y-75880000D03*
%TO.P,J4,3,Pin_3*%
%TO.N,Net-(J4-Pin_3)*%
X111760000Y-78420000D03*
%TO.P,J4,4,Pin_4*%
%TO.N,unconnected-(J4-Pin_4-Pad4)*%
X111760000Y-80960000D03*
%TO.P,J4,5,Pin_5*%
%TO.N,unconnected-(J4-Pin_5-Pad5)*%
X111760000Y-83500000D03*
%TO.P,J4,6,Pin_6*%
%TO.N,unconnected-(J4-Pin_6-Pad6)*%
X111760000Y-86040000D03*
%TO.P,J4,7,Pin_7*%
%TO.N,/I2C SCL*%
X111760000Y-88580000D03*
%TO.P,J4,8,Pin_8*%
%TO.N,/I2C SDA*%
X111760000Y-91120000D03*
%TO.P,J4,9,Pin_9*%
%TO.N,unconnected-(J4-Pin_9-Pad9)*%
X111760000Y-93660000D03*
%TO.P,J4,10,Pin_10*%
%TO.N,unconnected-(J4-Pin_10-Pad10)*%
X111760000Y-96200000D03*
%TD*%
D11*
%TO.P,J2,1,Pin_1*%
%TO.N,GND*%
X116840000Y-86360000D03*
%TD*%
%TO.P,J1,1,Pin_1*%
%TO.N,VCC 5V*%
X116840000Y-73500000D03*
%TD*%
%TO.P,J3,1,Pin_1*%
%TO.N,unconnected-(J3-Pin_1-Pad1)*%
X96520000Y-73380000D03*
D10*
%TO.P,J3,2,Pin_2*%
%TO.N,unconnected-(J3-Pin_2-Pad2)*%
X96520000Y-75920000D03*
%TO.P,J3,3,Pin_3*%
%TO.N,unconnected-(J3-Pin_3-Pad3)*%
X96520000Y-78460000D03*
%TO.P,J3,4,Pin_4*%
%TO.N,/PWM_RED*%
X96520000Y-81000000D03*
%TO.P,J3,5,Pin_5*%
%TO.N,/PWM_GREEN*%
X96520000Y-83540000D03*
%TO.P,J3,6,Pin_6*%
%TO.N,/PWM_BLUE*%
X96520000Y-86080000D03*
%TO.P,J3,7,Pin_7*%
%TO.N,unconnected-(J3-Pin_7-Pad7)*%
X96520000Y-88620000D03*
%TO.P,J3,8,Pin_8*%
%TO.N,unconnected-(J3-Pin_8-Pad8)*%
X96520000Y-91160000D03*
%TO.P,J3,9,Pin_9*%
%TO.N,unconnected-(J3-Pin_9-Pad9)*%
X96520000Y-93700000D03*
%TO.P,J3,10,Pin_10*%
%TO.N,unconnected-(J3-Pin_10-Pad10)*%
X96520000Y-96240000D03*
%TD*%
D12*
%TO.N,GND*%
X88530095Y-78370095D03*
%TD*%
D13*
%TO.N,GND*%
X88530095Y-78370095D02*
X94871190Y-72029000D01*
%TO.N,VCC 5V*%
X116680000Y-73340000D02*
X116840000Y-73500000D01*
X111760000Y-73340000D02*
X116680000Y-73340000D01*
X108500000Y-73340000D02*
X111760000Y-73340000D01*
X106388000Y-71228000D02*
X108500000Y-73340000D01*
X78500000Y-73000000D02*
X80272000Y-71228000D01*
X80272000Y-71228000D02*
X106388000Y-71228000D01*
X78500000Y-81960000D02*
X78500000Y-73000000D01*
%TO.N,GND*%
X108500000Y-75880000D02*
X111760000Y-75880000D01*
X104649000Y-72029000D02*
X108500000Y-75880000D01*
X94871190Y-72029000D02*
X104649000Y-72029000D01*
D14*
%TO.N,Net-(J4-Pin_3)*%
X87040000Y-96500000D02*
X88500000Y-96500000D01*
X88500000Y-96500000D02*
X92551000Y-92449000D01*
X92551000Y-92449000D02*
X97038182Y-92449000D01*
X97038182Y-92449000D02*
X98907243Y-90579939D01*
X98907243Y-90579939D02*
X98907243Y-84403830D01*
X98907243Y-84403830D02*
X104891073Y-78420000D01*
X104891073Y-78420000D02*
X111760000Y-78420000D01*
D15*
%TO.N,/I2C SDA*%
X108500000Y-91120000D02*
X111760000Y-91120000D01*
%TO.N,/I2C SCL*%
X108500000Y-88580000D02*
X111760000Y-88580000D01*
D13*
%TO.N,GND*%
X111760000Y-75880000D02*
X116840000Y-80960000D01*
X116840000Y-80960000D02*
X116840000Y-86360000D01*
D16*
%TO.N,VCC 12V MAX*%
X134620000Y-93980000D02*
X137160000Y-91440000D01*
X137160000Y-91440000D02*
X137160000Y-76040000D01*
X137160000Y-76040000D02*
X134620000Y-73500000D01*
%TO.N,GND*%
X134620000Y-86360000D02*
X134620000Y-91440000D01*
D15*
%TO.N,/I2C SDA*%
X79420000Y-96500000D02*
X81047000Y-98127000D01*
X101493000Y-98127000D02*
X108500000Y-91120000D01*
X81047000Y-98127000D02*
X101493000Y-98127000D01*
%TO.N,/I2C SCL*%
X81960000Y-96500000D02*
X83136000Y-97676000D01*
X83136000Y-97676000D02*
X99404000Y-97676000D01*
X99404000Y-97676000D02*
X108500000Y-88580000D01*
%TD*%
M02*
