%TF.GenerationSoftware,KiCad,Pcbnew,9.0.6*%
%TF.CreationDate,2025-12-05T15:02:41+01:00*%
%TF.ProjectId,KinderLight,4b696e64-6572-44c6-9967-68742e6b6963,rev?*%
%TF.SameCoordinates,Original*%
%TF.FileFunction,Legend,Bot*%
%TF.FilePolarity,Positive*%
%FSLAX46Y46*%
G04 Gerber Fmt 4.6, Leading zero omitted, Abs format (unit mm)*
G04 Created by KiCad (PCBNEW 9.0.6) date 2025-12-05 15:02:41*
%MOMM*%
%LPD*%
G01*
G04 APERTURE LIST*
%ADD10C,0.100000*%
G04 APERTURE END LIST*
D10*
X133792306Y-82740038D02*
X133887544Y-82692419D01*
X133887544Y-82692419D02*
X134030401Y-82692419D01*
X134030401Y-82692419D02*
X134173258Y-82740038D01*
X134173258Y-82740038D02*
X134268496Y-82835276D01*
X134268496Y-82835276D02*
X134316115Y-82930514D01*
X134316115Y-82930514D02*
X134363734Y-83120990D01*
X134363734Y-83120990D02*
X134363734Y-83263847D01*
X134363734Y-83263847D02*
X134316115Y-83454323D01*
X134316115Y-83454323D02*
X134268496Y-83549561D01*
X134268496Y-83549561D02*
X134173258Y-83644800D01*
X134173258Y-83644800D02*
X134030401Y-83692419D01*
X134030401Y-83692419D02*
X133935163Y-83692419D01*
X133935163Y-83692419D02*
X133792306Y-83644800D01*
X133792306Y-83644800D02*
X133744687Y-83597180D01*
X133744687Y-83597180D02*
X133744687Y-83263847D01*
X133744687Y-83263847D02*
X133935163Y-83263847D01*
X133316115Y-83692419D02*
X133316115Y-82692419D01*
X133316115Y-82692419D02*
X132744687Y-83692419D01*
X132744687Y-83692419D02*
X132744687Y-82692419D01*
X132268496Y-83692419D02*
X132268496Y-82692419D01*
X132268496Y-82692419D02*
X132030401Y-82692419D01*
X132030401Y-82692419D02*
X131887544Y-82740038D01*
X131887544Y-82740038D02*
X131792306Y-82835276D01*
X131792306Y-82835276D02*
X131744687Y-82930514D01*
X131744687Y-82930514D02*
X131697068Y-83120990D01*
X131697068Y-83120990D02*
X131697068Y-83263847D01*
X131697068Y-83263847D02*
X131744687Y-83454323D01*
X131744687Y-83454323D02*
X131792306Y-83549561D01*
X131792306Y-83549561D02*
X131887544Y-83644800D01*
X131887544Y-83644800D02*
X132030401Y-83692419D01*
X132030401Y-83692419D02*
X132268496Y-83692419D01*
X121092306Y-82740038D02*
X121187544Y-82692419D01*
X121187544Y-82692419D02*
X121330401Y-82692419D01*
X121330401Y-82692419D02*
X121473258Y-82740038D01*
X121473258Y-82740038D02*
X121568496Y-82835276D01*
X121568496Y-82835276D02*
X121616115Y-82930514D01*
X121616115Y-82930514D02*
X121663734Y-83120990D01*
X121663734Y-83120990D02*
X121663734Y-83263847D01*
X121663734Y-83263847D02*
X121616115Y-83454323D01*
X121616115Y-83454323D02*
X121568496Y-83549561D01*
X121568496Y-83549561D02*
X121473258Y-83644800D01*
X121473258Y-83644800D02*
X121330401Y-83692419D01*
X121330401Y-83692419D02*
X121235163Y-83692419D01*
X121235163Y-83692419D02*
X121092306Y-83644800D01*
X121092306Y-83644800D02*
X121044687Y-83597180D01*
X121044687Y-83597180D02*
X121044687Y-83263847D01*
X121044687Y-83263847D02*
X121235163Y-83263847D01*
X120616115Y-83692419D02*
X120616115Y-82692419D01*
X120616115Y-82692419D02*
X120044687Y-83692419D01*
X120044687Y-83692419D02*
X120044687Y-82692419D01*
X119568496Y-83692419D02*
X119568496Y-82692419D01*
X119568496Y-82692419D02*
X119330401Y-82692419D01*
X119330401Y-82692419D02*
X119187544Y-82740038D01*
X119187544Y-82740038D02*
X119092306Y-82835276D01*
X119092306Y-82835276D02*
X119044687Y-82930514D01*
X119044687Y-82930514D02*
X118997068Y-83120990D01*
X118997068Y-83120990D02*
X118997068Y-83263847D01*
X118997068Y-83263847D02*
X119044687Y-83454323D01*
X119044687Y-83454323D02*
X119092306Y-83549561D01*
X119092306Y-83549561D02*
X119187544Y-83644800D01*
X119187544Y-83644800D02*
X119330401Y-83692419D01*
X119330401Y-83692419D02*
X119568496Y-83692419D01*
X126838972Y-72532419D02*
X126505639Y-73532419D01*
X126505639Y-73532419D02*
X126172306Y-72532419D01*
X125648496Y-72532419D02*
X125458020Y-72532419D01*
X125458020Y-72532419D02*
X125362782Y-72580038D01*
X125362782Y-72580038D02*
X125267544Y-72675276D01*
X125267544Y-72675276D02*
X125219925Y-72865752D01*
X125219925Y-72865752D02*
X125219925Y-73199085D01*
X125219925Y-73199085D02*
X125267544Y-73389561D01*
X125267544Y-73389561D02*
X125362782Y-73484800D01*
X125362782Y-73484800D02*
X125458020Y-73532419D01*
X125458020Y-73532419D02*
X125648496Y-73532419D01*
X125648496Y-73532419D02*
X125743734Y-73484800D01*
X125743734Y-73484800D02*
X125838972Y-73389561D01*
X125838972Y-73389561D02*
X125886591Y-73199085D01*
X125886591Y-73199085D02*
X125886591Y-72865752D01*
X125886591Y-72865752D02*
X125838972Y-72675276D01*
X125838972Y-72675276D02*
X125743734Y-72580038D01*
X125743734Y-72580038D02*
X125648496Y-72532419D01*
X124791353Y-72532419D02*
X124791353Y-73341942D01*
X124791353Y-73341942D02*
X124743734Y-73437180D01*
X124743734Y-73437180D02*
X124696115Y-73484800D01*
X124696115Y-73484800D02*
X124600877Y-73532419D01*
X124600877Y-73532419D02*
X124410401Y-73532419D01*
X124410401Y-73532419D02*
X124315163Y-73484800D01*
X124315163Y-73484800D02*
X124267544Y-73437180D01*
X124267544Y-73437180D02*
X124219925Y-73341942D01*
X124219925Y-73341942D02*
X124219925Y-72532419D01*
X123886591Y-72532419D02*
X123315163Y-72532419D01*
X123600877Y-73532419D02*
X123600877Y-72532419D01*
X121743734Y-72532419D02*
X122219924Y-72532419D01*
X122219924Y-72532419D02*
X122267543Y-73008609D01*
X122267543Y-73008609D02*
X122219924Y-72960990D01*
X122219924Y-72960990D02*
X122124686Y-72913371D01*
X122124686Y-72913371D02*
X121886591Y-72913371D01*
X121886591Y-72913371D02*
X121791353Y-72960990D01*
X121791353Y-72960990D02*
X121743734Y-73008609D01*
X121743734Y-73008609D02*
X121696115Y-73103847D01*
X121696115Y-73103847D02*
X121696115Y-73341942D01*
X121696115Y-73341942D02*
X121743734Y-73437180D01*
X121743734Y-73437180D02*
X121791353Y-73484800D01*
X121791353Y-73484800D02*
X121886591Y-73532419D01*
X121886591Y-73532419D02*
X122124686Y-73532419D01*
X122124686Y-73532419D02*
X122219924Y-73484800D01*
X122219924Y-73484800D02*
X122267543Y-73437180D01*
X121410400Y-72532419D02*
X121077067Y-73532419D01*
X121077067Y-73532419D02*
X120743734Y-72532419D01*
X119838972Y-73437180D02*
X119886591Y-73484800D01*
X119886591Y-73484800D02*
X120029448Y-73532419D01*
X120029448Y-73532419D02*
X120124686Y-73532419D01*
X120124686Y-73532419D02*
X120267543Y-73484800D01*
X120267543Y-73484800D02*
X120362781Y-73389561D01*
X120362781Y-73389561D02*
X120410400Y-73294323D01*
X120410400Y-73294323D02*
X120458019Y-73103847D01*
X120458019Y-73103847D02*
X120458019Y-72960990D01*
X120458019Y-72960990D02*
X120410400Y-72770514D01*
X120410400Y-72770514D02*
X120362781Y-72675276D01*
X120362781Y-72675276D02*
X120267543Y-72580038D01*
X120267543Y-72580038D02*
X120124686Y-72532419D01*
X120124686Y-72532419D02*
X120029448Y-72532419D01*
X120029448Y-72532419D02*
X119886591Y-72580038D01*
X119886591Y-72580038D02*
X119838972Y-72627657D01*
X118838972Y-73437180D02*
X118886591Y-73484800D01*
X118886591Y-73484800D02*
X119029448Y-73532419D01*
X119029448Y-73532419D02*
X119124686Y-73532419D01*
X119124686Y-73532419D02*
X119267543Y-73484800D01*
X119267543Y-73484800D02*
X119362781Y-73389561D01*
X119362781Y-73389561D02*
X119410400Y-73294323D01*
X119410400Y-73294323D02*
X119458019Y-73103847D01*
X119458019Y-73103847D02*
X119458019Y-72960990D01*
X119458019Y-72960990D02*
X119410400Y-72770514D01*
X119410400Y-72770514D02*
X119362781Y-72675276D01*
X119362781Y-72675276D02*
X119267543Y-72580038D01*
X119267543Y-72580038D02*
X119124686Y-72532419D01*
X119124686Y-72532419D02*
X119029448Y-72532419D01*
X119029448Y-72532419D02*
X118886591Y-72580038D01*
X118886591Y-72580038D02*
X118838972Y-72627657D01*
X134458972Y-72532419D02*
X134125639Y-73532419D01*
X134125639Y-73532419D02*
X133792306Y-72532419D01*
X133458972Y-73532419D02*
X133458972Y-72532419D01*
X132982782Y-73532419D02*
X132982782Y-72532419D01*
X132982782Y-72532419D02*
X132411354Y-73532419D01*
X132411354Y-73532419D02*
X132411354Y-72532419D01*
X130697068Y-72532419D02*
X131173258Y-72532419D01*
X131173258Y-72532419D02*
X131220877Y-73008609D01*
X131220877Y-73008609D02*
X131173258Y-72960990D01*
X131173258Y-72960990D02*
X131078020Y-72913371D01*
X131078020Y-72913371D02*
X130839925Y-72913371D01*
X130839925Y-72913371D02*
X130744687Y-72960990D01*
X130744687Y-72960990D02*
X130697068Y-73008609D01*
X130697068Y-73008609D02*
X130649449Y-73103847D01*
X130649449Y-73103847D02*
X130649449Y-73341942D01*
X130649449Y-73341942D02*
X130697068Y-73437180D01*
X130697068Y-73437180D02*
X130744687Y-73484800D01*
X130744687Y-73484800D02*
X130839925Y-73532419D01*
X130839925Y-73532419D02*
X131078020Y-73532419D01*
X131078020Y-73532419D02*
X131173258Y-73484800D01*
X131173258Y-73484800D02*
X131220877Y-73437180D01*
X130220877Y-73151466D02*
X129458973Y-73151466D01*
X129030401Y-72627657D02*
X128982782Y-72580038D01*
X128982782Y-72580038D02*
X128887544Y-72532419D01*
X128887544Y-72532419D02*
X128649449Y-72532419D01*
X128649449Y-72532419D02*
X128554211Y-72580038D01*
X128554211Y-72580038D02*
X128506592Y-72627657D01*
X128506592Y-72627657D02*
X128458973Y-72722895D01*
X128458973Y-72722895D02*
X128458973Y-72818133D01*
X128458973Y-72818133D02*
X128506592Y-72960990D01*
X128506592Y-72960990D02*
X129078020Y-73532419D01*
X129078020Y-73532419D02*
X128458973Y-73532419D01*
X127601830Y-72865752D02*
X127601830Y-73532419D01*
X127839925Y-72484800D02*
X128078020Y-73199085D01*
X128078020Y-73199085D02*
X127458973Y-73199085D01*
X108392306Y-75120038D02*
X108487544Y-75072419D01*
X108487544Y-75072419D02*
X108630401Y-75072419D01*
X108630401Y-75072419D02*
X108773258Y-75120038D01*
X108773258Y-75120038D02*
X108868496Y-75215276D01*
X108868496Y-75215276D02*
X108916115Y-75310514D01*
X108916115Y-75310514D02*
X108963734Y-75500990D01*
X108963734Y-75500990D02*
X108963734Y-75643847D01*
X108963734Y-75643847D02*
X108916115Y-75834323D01*
X108916115Y-75834323D02*
X108868496Y-75929561D01*
X108868496Y-75929561D02*
X108773258Y-76024800D01*
X108773258Y-76024800D02*
X108630401Y-76072419D01*
X108630401Y-76072419D02*
X108535163Y-76072419D01*
X108535163Y-76072419D02*
X108392306Y-76024800D01*
X108392306Y-76024800D02*
X108344687Y-75977180D01*
X108344687Y-75977180D02*
X108344687Y-75643847D01*
X108344687Y-75643847D02*
X108535163Y-75643847D01*
X107916115Y-76072419D02*
X107916115Y-75072419D01*
X107916115Y-75072419D02*
X107344687Y-76072419D01*
X107344687Y-76072419D02*
X107344687Y-75072419D01*
X106868496Y-76072419D02*
X106868496Y-75072419D01*
X106868496Y-75072419D02*
X106630401Y-75072419D01*
X106630401Y-75072419D02*
X106487544Y-75120038D01*
X106487544Y-75120038D02*
X106392306Y-75215276D01*
X106392306Y-75215276D02*
X106344687Y-75310514D01*
X106344687Y-75310514D02*
X106297068Y-75500990D01*
X106297068Y-75500990D02*
X106297068Y-75643847D01*
X106297068Y-75643847D02*
X106344687Y-75834323D01*
X106344687Y-75834323D02*
X106392306Y-75929561D01*
X106392306Y-75929561D02*
X106487544Y-76024800D01*
X106487544Y-76024800D02*
X106630401Y-76072419D01*
X106630401Y-76072419D02*
X106868496Y-76072419D01*
X108916115Y-73151466D02*
X108154211Y-73151466D01*
X108535163Y-73532419D02*
X108535163Y-72770514D01*
X107201830Y-72532419D02*
X107678020Y-72532419D01*
X107678020Y-72532419D02*
X107725639Y-73008609D01*
X107725639Y-73008609D02*
X107678020Y-72960990D01*
X107678020Y-72960990D02*
X107582782Y-72913371D01*
X107582782Y-72913371D02*
X107344687Y-72913371D01*
X107344687Y-72913371D02*
X107249449Y-72960990D01*
X107249449Y-72960990D02*
X107201830Y-73008609D01*
X107201830Y-73008609D02*
X107154211Y-73103847D01*
X107154211Y-73103847D02*
X107154211Y-73341942D01*
X107154211Y-73341942D02*
X107201830Y-73437180D01*
X107201830Y-73437180D02*
X107249449Y-73484800D01*
X107249449Y-73484800D02*
X107344687Y-73532419D01*
X107344687Y-73532419D02*
X107582782Y-73532419D01*
X107582782Y-73532419D02*
X107678020Y-73484800D01*
X107678020Y-73484800D02*
X107725639Y-73437180D01*
X106868496Y-72532419D02*
X106535163Y-73532419D01*
X106535163Y-73532419D02*
X106201830Y-72532419D01*
X105297068Y-73437180D02*
X105344687Y-73484800D01*
X105344687Y-73484800D02*
X105487544Y-73532419D01*
X105487544Y-73532419D02*
X105582782Y-73532419D01*
X105582782Y-73532419D02*
X105725639Y-73484800D01*
X105725639Y-73484800D02*
X105820877Y-73389561D01*
X105820877Y-73389561D02*
X105868496Y-73294323D01*
X105868496Y-73294323D02*
X105916115Y-73103847D01*
X105916115Y-73103847D02*
X105916115Y-72960990D01*
X105916115Y-72960990D02*
X105868496Y-72770514D01*
X105868496Y-72770514D02*
X105820877Y-72675276D01*
X105820877Y-72675276D02*
X105725639Y-72580038D01*
X105725639Y-72580038D02*
X105582782Y-72532419D01*
X105582782Y-72532419D02*
X105487544Y-72532419D01*
X105487544Y-72532419D02*
X105344687Y-72580038D01*
X105344687Y-72580038D02*
X105297068Y-72627657D01*
X104297068Y-73437180D02*
X104344687Y-73484800D01*
X104344687Y-73484800D02*
X104487544Y-73532419D01*
X104487544Y-73532419D02*
X104582782Y-73532419D01*
X104582782Y-73532419D02*
X104725639Y-73484800D01*
X104725639Y-73484800D02*
X104820877Y-73389561D01*
X104820877Y-73389561D02*
X104868496Y-73294323D01*
X104868496Y-73294323D02*
X104916115Y-73103847D01*
X104916115Y-73103847D02*
X104916115Y-72960990D01*
X104916115Y-72960990D02*
X104868496Y-72770514D01*
X104868496Y-72770514D02*
X104820877Y-72675276D01*
X104820877Y-72675276D02*
X104725639Y-72580038D01*
X104725639Y-72580038D02*
X104582782Y-72532419D01*
X104582782Y-72532419D02*
X104487544Y-72532419D01*
X104487544Y-72532419D02*
X104344687Y-72580038D01*
X104344687Y-72580038D02*
X104297068Y-72627657D01*
X83162782Y-89528609D02*
X83019925Y-89576228D01*
X83019925Y-89576228D02*
X82972306Y-89623847D01*
X82972306Y-89623847D02*
X82924687Y-89719085D01*
X82924687Y-89719085D02*
X82924687Y-89861942D01*
X82924687Y-89861942D02*
X82972306Y-89957180D01*
X82972306Y-89957180D02*
X83019925Y-90004800D01*
X83019925Y-90004800D02*
X83115163Y-90052419D01*
X83115163Y-90052419D02*
X83496115Y-90052419D01*
X83496115Y-90052419D02*
X83496115Y-89052419D01*
X83496115Y-89052419D02*
X83162782Y-89052419D01*
X83162782Y-89052419D02*
X83067544Y-89100038D01*
X83067544Y-89100038D02*
X83019925Y-89147657D01*
X83019925Y-89147657D02*
X82972306Y-89242895D01*
X82972306Y-89242895D02*
X82972306Y-89338133D01*
X82972306Y-89338133D02*
X83019925Y-89433371D01*
X83019925Y-89433371D02*
X83067544Y-89480990D01*
X83067544Y-89480990D02*
X83162782Y-89528609D01*
X83162782Y-89528609D02*
X83496115Y-89528609D01*
X82019925Y-90052419D02*
X82496115Y-90052419D01*
X82496115Y-90052419D02*
X82496115Y-89052419D01*
X81686591Y-89052419D02*
X81686591Y-89861942D01*
X81686591Y-89861942D02*
X81638972Y-89957180D01*
X81638972Y-89957180D02*
X81591353Y-90004800D01*
X81591353Y-90004800D02*
X81496115Y-90052419D01*
X81496115Y-90052419D02*
X81305639Y-90052419D01*
X81305639Y-90052419D02*
X81210401Y-90004800D01*
X81210401Y-90004800D02*
X81162782Y-89957180D01*
X81162782Y-89957180D02*
X81115163Y-89861942D01*
X81115163Y-89861942D02*
X81115163Y-89052419D01*
X80638972Y-89528609D02*
X80305639Y-89528609D01*
X80162782Y-90052419D02*
X80638972Y-90052419D01*
X80638972Y-90052419D02*
X80638972Y-89052419D01*
X80638972Y-89052419D02*
X80162782Y-89052419D01*
X83912306Y-86560038D02*
X84007544Y-86512419D01*
X84007544Y-86512419D02*
X84150401Y-86512419D01*
X84150401Y-86512419D02*
X84293258Y-86560038D01*
X84293258Y-86560038D02*
X84388496Y-86655276D01*
X84388496Y-86655276D02*
X84436115Y-86750514D01*
X84436115Y-86750514D02*
X84483734Y-86940990D01*
X84483734Y-86940990D02*
X84483734Y-87083847D01*
X84483734Y-87083847D02*
X84436115Y-87274323D01*
X84436115Y-87274323D02*
X84388496Y-87369561D01*
X84388496Y-87369561D02*
X84293258Y-87464800D01*
X84293258Y-87464800D02*
X84150401Y-87512419D01*
X84150401Y-87512419D02*
X84055163Y-87512419D01*
X84055163Y-87512419D02*
X83912306Y-87464800D01*
X83912306Y-87464800D02*
X83864687Y-87417180D01*
X83864687Y-87417180D02*
X83864687Y-87083847D01*
X83864687Y-87083847D02*
X84055163Y-87083847D01*
X82864687Y-87512419D02*
X83198020Y-87036228D01*
X83436115Y-87512419D02*
X83436115Y-86512419D01*
X83436115Y-86512419D02*
X83055163Y-86512419D01*
X83055163Y-86512419D02*
X82959925Y-86560038D01*
X82959925Y-86560038D02*
X82912306Y-86607657D01*
X82912306Y-86607657D02*
X82864687Y-86702895D01*
X82864687Y-86702895D02*
X82864687Y-86845752D01*
X82864687Y-86845752D02*
X82912306Y-86940990D01*
X82912306Y-86940990D02*
X82959925Y-86988609D01*
X82959925Y-86988609D02*
X83055163Y-87036228D01*
X83055163Y-87036228D02*
X83436115Y-87036228D01*
X82436115Y-86988609D02*
X82102782Y-86988609D01*
X81959925Y-87512419D02*
X82436115Y-87512419D01*
X82436115Y-87512419D02*
X82436115Y-86512419D01*
X82436115Y-86512419D02*
X81959925Y-86512419D01*
X81531353Y-86988609D02*
X81198020Y-86988609D01*
X81055163Y-87512419D02*
X81531353Y-87512419D01*
X81531353Y-87512419D02*
X81531353Y-86512419D01*
X81531353Y-86512419D02*
X81055163Y-86512419D01*
X80626591Y-87512419D02*
X80626591Y-86512419D01*
X80626591Y-86512419D02*
X80055163Y-87512419D01*
X80055163Y-87512419D02*
X80055163Y-86512419D01*
X82684687Y-85052419D02*
X83018020Y-84576228D01*
X83256115Y-85052419D02*
X83256115Y-84052419D01*
X83256115Y-84052419D02*
X82875163Y-84052419D01*
X82875163Y-84052419D02*
X82779925Y-84100038D01*
X82779925Y-84100038D02*
X82732306Y-84147657D01*
X82732306Y-84147657D02*
X82684687Y-84242895D01*
X82684687Y-84242895D02*
X82684687Y-84385752D01*
X82684687Y-84385752D02*
X82732306Y-84480990D01*
X82732306Y-84480990D02*
X82779925Y-84528609D01*
X82779925Y-84528609D02*
X82875163Y-84576228D01*
X82875163Y-84576228D02*
X83256115Y-84576228D01*
X82256115Y-84528609D02*
X81922782Y-84528609D01*
X81779925Y-85052419D02*
X82256115Y-85052419D01*
X82256115Y-85052419D02*
X82256115Y-84052419D01*
X82256115Y-84052419D02*
X81779925Y-84052419D01*
X81351353Y-85052419D02*
X81351353Y-84052419D01*
X81351353Y-84052419D02*
X81113258Y-84052419D01*
X81113258Y-84052419D02*
X80970401Y-84100038D01*
X80970401Y-84100038D02*
X80875163Y-84195276D01*
X80875163Y-84195276D02*
X80827544Y-84290514D01*
X80827544Y-84290514D02*
X80779925Y-84480990D01*
X80779925Y-84480990D02*
X80779925Y-84623847D01*
X80779925Y-84623847D02*
X80827544Y-84814323D01*
X80827544Y-84814323D02*
X80875163Y-84909561D01*
X80875163Y-84909561D02*
X80970401Y-85004800D01*
X80970401Y-85004800D02*
X81113258Y-85052419D01*
X81113258Y-85052419D02*
X81351353Y-85052419D01*
X84706115Y-82061466D02*
X83944211Y-82061466D01*
X84325163Y-82442419D02*
X84325163Y-81680514D01*
X82991830Y-81442419D02*
X83468020Y-81442419D01*
X83468020Y-81442419D02*
X83515639Y-81918609D01*
X83515639Y-81918609D02*
X83468020Y-81870990D01*
X83468020Y-81870990D02*
X83372782Y-81823371D01*
X83372782Y-81823371D02*
X83134687Y-81823371D01*
X83134687Y-81823371D02*
X83039449Y-81870990D01*
X83039449Y-81870990D02*
X82991830Y-81918609D01*
X82991830Y-81918609D02*
X82944211Y-82013847D01*
X82944211Y-82013847D02*
X82944211Y-82251942D01*
X82944211Y-82251942D02*
X82991830Y-82347180D01*
X82991830Y-82347180D02*
X83039449Y-82394800D01*
X83039449Y-82394800D02*
X83134687Y-82442419D01*
X83134687Y-82442419D02*
X83372782Y-82442419D01*
X83372782Y-82442419D02*
X83468020Y-82394800D01*
X83468020Y-82394800D02*
X83515639Y-82347180D01*
X82658496Y-81442419D02*
X82325163Y-82442419D01*
X82325163Y-82442419D02*
X81991830Y-81442419D01*
X81087068Y-82347180D02*
X81134687Y-82394800D01*
X81134687Y-82394800D02*
X81277544Y-82442419D01*
X81277544Y-82442419D02*
X81372782Y-82442419D01*
X81372782Y-82442419D02*
X81515639Y-82394800D01*
X81515639Y-82394800D02*
X81610877Y-82299561D01*
X81610877Y-82299561D02*
X81658496Y-82204323D01*
X81658496Y-82204323D02*
X81706115Y-82013847D01*
X81706115Y-82013847D02*
X81706115Y-81870990D01*
X81706115Y-81870990D02*
X81658496Y-81680514D01*
X81658496Y-81680514D02*
X81610877Y-81585276D01*
X81610877Y-81585276D02*
X81515639Y-81490038D01*
X81515639Y-81490038D02*
X81372782Y-81442419D01*
X81372782Y-81442419D02*
X81277544Y-81442419D01*
X81277544Y-81442419D02*
X81134687Y-81490038D01*
X81134687Y-81490038D02*
X81087068Y-81537657D01*
X80087068Y-82347180D02*
X80134687Y-82394800D01*
X80134687Y-82394800D02*
X80277544Y-82442419D01*
X80277544Y-82442419D02*
X80372782Y-82442419D01*
X80372782Y-82442419D02*
X80515639Y-82394800D01*
X80515639Y-82394800D02*
X80610877Y-82299561D01*
X80610877Y-82299561D02*
X80658496Y-82204323D01*
X80658496Y-82204323D02*
X80706115Y-82013847D01*
X80706115Y-82013847D02*
X80706115Y-81870990D01*
X80706115Y-81870990D02*
X80658496Y-81680514D01*
X80658496Y-81680514D02*
X80610877Y-81585276D01*
X80610877Y-81585276D02*
X80515639Y-81490038D01*
X80515639Y-81490038D02*
X80372782Y-81442419D01*
X80372782Y-81442419D02*
X80277544Y-81442419D01*
X80277544Y-81442419D02*
X80134687Y-81490038D01*
X80134687Y-81490038D02*
X80087068Y-81537657D01*
X92296115Y-94061466D02*
X91534211Y-94061466D01*
X91915163Y-94442419D02*
X91915163Y-93680514D01*
X91153258Y-93442419D02*
X90534211Y-93442419D01*
X90534211Y-93442419D02*
X90867544Y-93823371D01*
X90867544Y-93823371D02*
X90724687Y-93823371D01*
X90724687Y-93823371D02*
X90629449Y-93870990D01*
X90629449Y-93870990D02*
X90581830Y-93918609D01*
X90581830Y-93918609D02*
X90534211Y-94013847D01*
X90534211Y-94013847D02*
X90534211Y-94251942D01*
X90534211Y-94251942D02*
X90581830Y-94347180D01*
X90581830Y-94347180D02*
X90629449Y-94394800D01*
X90629449Y-94394800D02*
X90724687Y-94442419D01*
X90724687Y-94442419D02*
X91010401Y-94442419D01*
X91010401Y-94442419D02*
X91105639Y-94394800D01*
X91105639Y-94394800D02*
X91153258Y-94347180D01*
X90105639Y-94347180D02*
X90058020Y-94394800D01*
X90058020Y-94394800D02*
X90105639Y-94442419D01*
X90105639Y-94442419D02*
X90153258Y-94394800D01*
X90153258Y-94394800D02*
X90105639Y-94347180D01*
X90105639Y-94347180D02*
X90105639Y-94442419D01*
X89724687Y-93442419D02*
X89105640Y-93442419D01*
X89105640Y-93442419D02*
X89438973Y-93823371D01*
X89438973Y-93823371D02*
X89296116Y-93823371D01*
X89296116Y-93823371D02*
X89200878Y-93870990D01*
X89200878Y-93870990D02*
X89153259Y-93918609D01*
X89153259Y-93918609D02*
X89105640Y-94013847D01*
X89105640Y-94013847D02*
X89105640Y-94251942D01*
X89105640Y-94251942D02*
X89153259Y-94347180D01*
X89153259Y-94347180D02*
X89200878Y-94394800D01*
X89200878Y-94394800D02*
X89296116Y-94442419D01*
X89296116Y-94442419D02*
X89581830Y-94442419D01*
X89581830Y-94442419D02*
X89677068Y-94394800D01*
X89677068Y-94394800D02*
X89724687Y-94347180D01*
X88819925Y-93442419D02*
X88486592Y-94442419D01*
X88486592Y-94442419D02*
X88153259Y-93442419D01*
X87248497Y-94347180D02*
X87296116Y-94394800D01*
X87296116Y-94394800D02*
X87438973Y-94442419D01*
X87438973Y-94442419D02*
X87534211Y-94442419D01*
X87534211Y-94442419D02*
X87677068Y-94394800D01*
X87677068Y-94394800D02*
X87772306Y-94299561D01*
X87772306Y-94299561D02*
X87819925Y-94204323D01*
X87819925Y-94204323D02*
X87867544Y-94013847D01*
X87867544Y-94013847D02*
X87867544Y-93870990D01*
X87867544Y-93870990D02*
X87819925Y-93680514D01*
X87819925Y-93680514D02*
X87772306Y-93585276D01*
X87772306Y-93585276D02*
X87677068Y-93490038D01*
X87677068Y-93490038D02*
X87534211Y-93442419D01*
X87534211Y-93442419D02*
X87438973Y-93442419D01*
X87438973Y-93442419D02*
X87296116Y-93490038D01*
X87296116Y-93490038D02*
X87248497Y-93537657D01*
X86248497Y-94347180D02*
X86296116Y-94394800D01*
X86296116Y-94394800D02*
X86438973Y-94442419D01*
X86438973Y-94442419D02*
X86534211Y-94442419D01*
X86534211Y-94442419D02*
X86677068Y-94394800D01*
X86677068Y-94394800D02*
X86772306Y-94299561D01*
X86772306Y-94299561D02*
X86819925Y-94204323D01*
X86819925Y-94204323D02*
X86867544Y-94013847D01*
X86867544Y-94013847D02*
X86867544Y-93870990D01*
X86867544Y-93870990D02*
X86819925Y-93680514D01*
X86819925Y-93680514D02*
X86772306Y-93585276D01*
X86772306Y-93585276D02*
X86677068Y-93490038D01*
X86677068Y-93490038D02*
X86534211Y-93442419D01*
X86534211Y-93442419D02*
X86438973Y-93442419D01*
X86438973Y-93442419D02*
X86296116Y-93490038D01*
X86296116Y-93490038D02*
X86248497Y-93537657D01*
X85192306Y-93470038D02*
X85287544Y-93422419D01*
X85287544Y-93422419D02*
X85430401Y-93422419D01*
X85430401Y-93422419D02*
X85573258Y-93470038D01*
X85573258Y-93470038D02*
X85668496Y-93565276D01*
X85668496Y-93565276D02*
X85716115Y-93660514D01*
X85716115Y-93660514D02*
X85763734Y-93850990D01*
X85763734Y-93850990D02*
X85763734Y-93993847D01*
X85763734Y-93993847D02*
X85716115Y-94184323D01*
X85716115Y-94184323D02*
X85668496Y-94279561D01*
X85668496Y-94279561D02*
X85573258Y-94374800D01*
X85573258Y-94374800D02*
X85430401Y-94422419D01*
X85430401Y-94422419D02*
X85335163Y-94422419D01*
X85335163Y-94422419D02*
X85192306Y-94374800D01*
X85192306Y-94374800D02*
X85144687Y-94327180D01*
X85144687Y-94327180D02*
X85144687Y-93993847D01*
X85144687Y-93993847D02*
X85335163Y-93993847D01*
X84716115Y-94422419D02*
X84716115Y-93422419D01*
X84716115Y-93422419D02*
X84144687Y-94422419D01*
X84144687Y-94422419D02*
X84144687Y-93422419D01*
X83668496Y-94422419D02*
X83668496Y-93422419D01*
X83668496Y-93422419D02*
X83430401Y-93422419D01*
X83430401Y-93422419D02*
X83287544Y-93470038D01*
X83287544Y-93470038D02*
X83192306Y-93565276D01*
X83192306Y-93565276D02*
X83144687Y-93660514D01*
X83144687Y-93660514D02*
X83097068Y-93850990D01*
X83097068Y-93850990D02*
X83097068Y-93993847D01*
X83097068Y-93993847D02*
X83144687Y-94184323D01*
X83144687Y-94184323D02*
X83192306Y-94279561D01*
X83192306Y-94279561D02*
X83287544Y-94374800D01*
X83287544Y-94374800D02*
X83430401Y-94422419D01*
X83430401Y-94422419D02*
X83668496Y-94422419D01*
X82633734Y-94374800D02*
X82490877Y-94422419D01*
X82490877Y-94422419D02*
X82252782Y-94422419D01*
X82252782Y-94422419D02*
X82157544Y-94374800D01*
X82157544Y-94374800D02*
X82109925Y-94327180D01*
X82109925Y-94327180D02*
X82062306Y-94231942D01*
X82062306Y-94231942D02*
X82062306Y-94136704D01*
X82062306Y-94136704D02*
X82109925Y-94041466D01*
X82109925Y-94041466D02*
X82157544Y-93993847D01*
X82157544Y-93993847D02*
X82252782Y-93946228D01*
X82252782Y-93946228D02*
X82443258Y-93898609D01*
X82443258Y-93898609D02*
X82538496Y-93850990D01*
X82538496Y-93850990D02*
X82586115Y-93803371D01*
X82586115Y-93803371D02*
X82633734Y-93708133D01*
X82633734Y-93708133D02*
X82633734Y-93612895D01*
X82633734Y-93612895D02*
X82586115Y-93517657D01*
X82586115Y-93517657D02*
X82538496Y-93470038D01*
X82538496Y-93470038D02*
X82443258Y-93422419D01*
X82443258Y-93422419D02*
X82205163Y-93422419D01*
X82205163Y-93422419D02*
X82062306Y-93470038D01*
X81062306Y-94327180D02*
X81109925Y-94374800D01*
X81109925Y-94374800D02*
X81252782Y-94422419D01*
X81252782Y-94422419D02*
X81348020Y-94422419D01*
X81348020Y-94422419D02*
X81490877Y-94374800D01*
X81490877Y-94374800D02*
X81586115Y-94279561D01*
X81586115Y-94279561D02*
X81633734Y-94184323D01*
X81633734Y-94184323D02*
X81681353Y-93993847D01*
X81681353Y-93993847D02*
X81681353Y-93850990D01*
X81681353Y-93850990D02*
X81633734Y-93660514D01*
X81633734Y-93660514D02*
X81586115Y-93565276D01*
X81586115Y-93565276D02*
X81490877Y-93470038D01*
X81490877Y-93470038D02*
X81348020Y-93422419D01*
X81348020Y-93422419D02*
X81252782Y-93422419D01*
X81252782Y-93422419D02*
X81109925Y-93470038D01*
X81109925Y-93470038D02*
X81062306Y-93517657D01*
X80157544Y-94422419D02*
X80633734Y-94422419D01*
X80633734Y-94422419D02*
X80633734Y-93422419D01*
X79563734Y-94534800D02*
X79420877Y-94582419D01*
X79420877Y-94582419D02*
X79182782Y-94582419D01*
X79182782Y-94582419D02*
X79087544Y-94534800D01*
X79087544Y-94534800D02*
X79039925Y-94487180D01*
X79039925Y-94487180D02*
X78992306Y-94391942D01*
X78992306Y-94391942D02*
X78992306Y-94296704D01*
X78992306Y-94296704D02*
X79039925Y-94201466D01*
X79039925Y-94201466D02*
X79087544Y-94153847D01*
X79087544Y-94153847D02*
X79182782Y-94106228D01*
X79182782Y-94106228D02*
X79373258Y-94058609D01*
X79373258Y-94058609D02*
X79468496Y-94010990D01*
X79468496Y-94010990D02*
X79516115Y-93963371D01*
X79516115Y-93963371D02*
X79563734Y-93868133D01*
X79563734Y-93868133D02*
X79563734Y-93772895D01*
X79563734Y-93772895D02*
X79516115Y-93677657D01*
X79516115Y-93677657D02*
X79468496Y-93630038D01*
X79468496Y-93630038D02*
X79373258Y-93582419D01*
X79373258Y-93582419D02*
X79135163Y-93582419D01*
X79135163Y-93582419D02*
X78992306Y-93630038D01*
X78563734Y-94582419D02*
X78563734Y-93582419D01*
X78563734Y-93582419D02*
X78325639Y-93582419D01*
X78325639Y-93582419D02*
X78182782Y-93630038D01*
X78182782Y-93630038D02*
X78087544Y-93725276D01*
X78087544Y-93725276D02*
X78039925Y-93820514D01*
X78039925Y-93820514D02*
X77992306Y-94010990D01*
X77992306Y-94010990D02*
X77992306Y-94153847D01*
X77992306Y-94153847D02*
X78039925Y-94344323D01*
X78039925Y-94344323D02*
X78087544Y-94439561D01*
X78087544Y-94439561D02*
X78182782Y-94534800D01*
X78182782Y-94534800D02*
X78325639Y-94582419D01*
X78325639Y-94582419D02*
X78563734Y-94582419D01*
X77611353Y-94296704D02*
X77135163Y-94296704D01*
X77706591Y-94582419D02*
X77373258Y-93582419D01*
X77373258Y-93582419D02*
X77039925Y-94582419D01*
M02*
