M48
; DRILL file {KiCad 9.0.6} date 2025-12-05T15:02:43+0100
; FORMAT={-:-/ absolute / metric / decimal}
; #@! TF.CreationDate,2025-12-05T15:02:43+01:00
; #@! TF.GenerationSoftware,Kicad,Pcbnew,9.0.6
; #@! TF.FileFunction,Plated,1,2,PTH
FMAT,2
METRIC
; #@! TA.AperFunction,Plated,PTH,ViaDrill
T1C0.300
; #@! TA.AperFunction,Plated,PTH,ComponentDrill
T2C0.800
; #@! TA.AperFunction,Plated,PTH,ComponentDrill
T3C1.000
; #@! TA.AperFunction,Plated,PTH,ComponentDrill
T4C1.300
%
G90
G05
T1
X86.36Y-78.74
X86.36Y-83.82
X86.36Y-88.9
T2
X116.5Y-71.0
X116.5Y-73.0
X116.5Y-75.0
X116.5Y-77.0
X116.5Y-79.0
X116.5Y-81.0
X116.5Y-83.0
X116.5Y-85.0
X136.5Y-71.0
X136.5Y-73.0
X136.5Y-75.0
X136.5Y-77.0
X136.5Y-79.0
X136.5Y-81.0
X136.5Y-83.0
X136.5Y-85.0
T3
X78.5Y-81.96
X78.5Y-84.5
X78.5Y-87.04
X78.5Y-89.58
X79.42Y-96.5
X81.96Y-96.5
X84.5Y-96.5
X87.04Y-96.5
X96.52Y-73.38
X96.52Y-75.92
X96.52Y-78.46
X96.52Y-81.0
X96.52Y-83.54
X96.52Y-86.08
X96.52Y-88.62
X96.52Y-91.16
X96.52Y-93.7
X96.52Y-96.24
X111.76Y-73.34
X111.76Y-75.88
X111.76Y-78.42
X111.76Y-80.96
X111.76Y-83.5
X111.76Y-86.04
X111.76Y-88.58
X111.76Y-91.12
X111.76Y-93.66
X111.76Y-96.2
T4
X124.06Y-93.49
X129.14Y-93.49
M30
