%TF.GenerationSoftware,KiCad,Pcbnew,9.0.6*%
%TF.CreationDate,2025-12-05T15:02:41+01:00*%
%TF.ProjectId,KinderLight,4b696e64-6572-44c6-9967-68742e6b6963,rev?*%
%TF.SameCoordinates,Original*%
%TF.FileFunction,Legend,Top*%
%TF.FilePolarity,Positive*%
%FSLAX46Y46*%
G04 Gerber Fmt 4.6, Leading zero omitted, Abs format (unit mm)*
G04 Created by KiCad (PCBNEW 9.0.6) date 2025-12-05 15:02:41*
%MOMM*%
%LPD*%
G01*
G04 APERTURE LIST*
%ADD10C,0.100000*%
%ADD11C,0.158750*%
%ADD12C,0.150000*%
%ADD13C,0.120000*%
G04 APERTURE END LIST*
D10*
X132907693Y-92900038D02*
X132812455Y-92852419D01*
X132812455Y-92852419D02*
X132669598Y-92852419D01*
X132669598Y-92852419D02*
X132526741Y-92900038D01*
X132526741Y-92900038D02*
X132431503Y-92995276D01*
X132431503Y-92995276D02*
X132383884Y-93090514D01*
X132383884Y-93090514D02*
X132336265Y-93280990D01*
X132336265Y-93280990D02*
X132336265Y-93423847D01*
X132336265Y-93423847D02*
X132383884Y-93614323D01*
X132383884Y-93614323D02*
X132431503Y-93709561D01*
X132431503Y-93709561D02*
X132526741Y-93804800D01*
X132526741Y-93804800D02*
X132669598Y-93852419D01*
X132669598Y-93852419D02*
X132764836Y-93852419D01*
X132764836Y-93852419D02*
X132907693Y-93804800D01*
X132907693Y-93804800D02*
X132955312Y-93757180D01*
X132955312Y-93757180D02*
X132955312Y-93423847D01*
X132955312Y-93423847D02*
X132764836Y-93423847D01*
X133383884Y-93852419D02*
X133383884Y-92852419D01*
X133383884Y-92852419D02*
X133955312Y-93852419D01*
X133955312Y-93852419D02*
X133955312Y-92852419D01*
X134431503Y-93852419D02*
X134431503Y-92852419D01*
X134431503Y-92852419D02*
X134669598Y-92852419D01*
X134669598Y-92852419D02*
X134812455Y-92900038D01*
X134812455Y-92900038D02*
X134907693Y-92995276D01*
X134907693Y-92995276D02*
X134955312Y-93090514D01*
X134955312Y-93090514D02*
X135002931Y-93280990D01*
X135002931Y-93280990D02*
X135002931Y-93423847D01*
X135002931Y-93423847D02*
X134955312Y-93614323D01*
X134955312Y-93614323D02*
X134907693Y-93709561D01*
X134907693Y-93709561D02*
X134812455Y-93804800D01*
X134812455Y-93804800D02*
X134669598Y-93852419D01*
X134669598Y-93852419D02*
X134431503Y-93852419D01*
X117001027Y-91242475D02*
X117334360Y-92242475D01*
X117334360Y-92242475D02*
X117667693Y-91242475D01*
X118572455Y-92147236D02*
X118524836Y-92194856D01*
X118524836Y-92194856D02*
X118381979Y-92242475D01*
X118381979Y-92242475D02*
X118286741Y-92242475D01*
X118286741Y-92242475D02*
X118143884Y-92194856D01*
X118143884Y-92194856D02*
X118048646Y-92099617D01*
X118048646Y-92099617D02*
X118001027Y-92004379D01*
X118001027Y-92004379D02*
X117953408Y-91813903D01*
X117953408Y-91813903D02*
X117953408Y-91671046D01*
X117953408Y-91671046D02*
X118001027Y-91480570D01*
X118001027Y-91480570D02*
X118048646Y-91385332D01*
X118048646Y-91385332D02*
X118143884Y-91290094D01*
X118143884Y-91290094D02*
X118286741Y-91242475D01*
X118286741Y-91242475D02*
X118381979Y-91242475D01*
X118381979Y-91242475D02*
X118524836Y-91290094D01*
X118524836Y-91290094D02*
X118572455Y-91337713D01*
X119572455Y-92147236D02*
X119524836Y-92194856D01*
X119524836Y-92194856D02*
X119381979Y-92242475D01*
X119381979Y-92242475D02*
X119286741Y-92242475D01*
X119286741Y-92242475D02*
X119143884Y-92194856D01*
X119143884Y-92194856D02*
X119048646Y-92099617D01*
X119048646Y-92099617D02*
X119001027Y-92004379D01*
X119001027Y-92004379D02*
X118953408Y-91813903D01*
X118953408Y-91813903D02*
X118953408Y-91671046D01*
X118953408Y-91671046D02*
X119001027Y-91480570D01*
X119001027Y-91480570D02*
X119048646Y-91385332D01*
X119048646Y-91385332D02*
X119143884Y-91290094D01*
X119143884Y-91290094D02*
X119286741Y-91242475D01*
X119286741Y-91242475D02*
X119381979Y-91242475D01*
X119381979Y-91242475D02*
X119524836Y-91290094D01*
X119524836Y-91290094D02*
X119572455Y-91337713D01*
X117620074Y-92852419D02*
X117143884Y-92852419D01*
X117143884Y-92852419D02*
X117096265Y-93328609D01*
X117096265Y-93328609D02*
X117143884Y-93280990D01*
X117143884Y-93280990D02*
X117239122Y-93233371D01*
X117239122Y-93233371D02*
X117477217Y-93233371D01*
X117477217Y-93233371D02*
X117572455Y-93280990D01*
X117572455Y-93280990D02*
X117620074Y-93328609D01*
X117620074Y-93328609D02*
X117667693Y-93423847D01*
X117667693Y-93423847D02*
X117667693Y-93661942D01*
X117667693Y-93661942D02*
X117620074Y-93757180D01*
X117620074Y-93757180D02*
X117572455Y-93804800D01*
X117572455Y-93804800D02*
X117477217Y-93852419D01*
X117477217Y-93852419D02*
X117239122Y-93852419D01*
X117239122Y-93852419D02*
X117143884Y-93804800D01*
X117143884Y-93804800D02*
X117096265Y-93757180D01*
X118096265Y-93471466D02*
X118858170Y-93471466D01*
X119286741Y-92947657D02*
X119334360Y-92900038D01*
X119334360Y-92900038D02*
X119429598Y-92852419D01*
X119429598Y-92852419D02*
X119667693Y-92852419D01*
X119667693Y-92852419D02*
X119762931Y-92900038D01*
X119762931Y-92900038D02*
X119810550Y-92947657D01*
X119810550Y-92947657D02*
X119858169Y-93042895D01*
X119858169Y-93042895D02*
X119858169Y-93138133D01*
X119858169Y-93138133D02*
X119810550Y-93280990D01*
X119810550Y-93280990D02*
X119239122Y-93852419D01*
X119239122Y-93852419D02*
X119858169Y-93852419D01*
X120715312Y-93185752D02*
X120715312Y-93852419D01*
X120477217Y-92804800D02*
X120239122Y-93519085D01*
X120239122Y-93519085D02*
X120858169Y-93519085D01*
X121096265Y-92852419D02*
X121429598Y-93852419D01*
X121429598Y-93852419D02*
X121762931Y-92852419D01*
X79520074Y-74462475D02*
X79043884Y-74462475D01*
X79043884Y-74462475D02*
X79043884Y-73462475D01*
X79853408Y-73938665D02*
X80186741Y-73938665D01*
X80329598Y-74462475D02*
X79853408Y-74462475D01*
X79853408Y-74462475D02*
X79853408Y-73462475D01*
X79853408Y-73462475D02*
X80329598Y-73462475D01*
X80758170Y-74462475D02*
X80758170Y-73462475D01*
X80758170Y-73462475D02*
X80996265Y-73462475D01*
X80996265Y-73462475D02*
X81139122Y-73510094D01*
X81139122Y-73510094D02*
X81234360Y-73605332D01*
X81234360Y-73605332D02*
X81281979Y-73700570D01*
X81281979Y-73700570D02*
X81329598Y-73891046D01*
X81329598Y-73891046D02*
X81329598Y-74033903D01*
X81329598Y-74033903D02*
X81281979Y-74224379D01*
X81281979Y-74224379D02*
X81234360Y-74319617D01*
X81234360Y-74319617D02*
X81139122Y-74414856D01*
X81139122Y-74414856D02*
X80996265Y-74462475D01*
X80996265Y-74462475D02*
X80758170Y-74462475D01*
X83091503Y-74462475D02*
X82758170Y-73986284D01*
X82520075Y-74462475D02*
X82520075Y-73462475D01*
X82520075Y-73462475D02*
X82901027Y-73462475D01*
X82901027Y-73462475D02*
X82996265Y-73510094D01*
X82996265Y-73510094D02*
X83043884Y-73557713D01*
X83043884Y-73557713D02*
X83091503Y-73652951D01*
X83091503Y-73652951D02*
X83091503Y-73795808D01*
X83091503Y-73795808D02*
X83043884Y-73891046D01*
X83043884Y-73891046D02*
X82996265Y-73938665D01*
X82996265Y-73938665D02*
X82901027Y-73986284D01*
X82901027Y-73986284D02*
X82520075Y-73986284D01*
X84043884Y-73510094D02*
X83948646Y-73462475D01*
X83948646Y-73462475D02*
X83805789Y-73462475D01*
X83805789Y-73462475D02*
X83662932Y-73510094D01*
X83662932Y-73510094D02*
X83567694Y-73605332D01*
X83567694Y-73605332D02*
X83520075Y-73700570D01*
X83520075Y-73700570D02*
X83472456Y-73891046D01*
X83472456Y-73891046D02*
X83472456Y-74033903D01*
X83472456Y-74033903D02*
X83520075Y-74224379D01*
X83520075Y-74224379D02*
X83567694Y-74319617D01*
X83567694Y-74319617D02*
X83662932Y-74414856D01*
X83662932Y-74414856D02*
X83805789Y-74462475D01*
X83805789Y-74462475D02*
X83901027Y-74462475D01*
X83901027Y-74462475D02*
X84043884Y-74414856D01*
X84043884Y-74414856D02*
X84091503Y-74367236D01*
X84091503Y-74367236D02*
X84091503Y-74033903D01*
X84091503Y-74033903D02*
X83901027Y-74033903D01*
X84853408Y-73938665D02*
X84996265Y-73986284D01*
X84996265Y-73986284D02*
X85043884Y-74033903D01*
X85043884Y-74033903D02*
X85091503Y-74129141D01*
X85091503Y-74129141D02*
X85091503Y-74271998D01*
X85091503Y-74271998D02*
X85043884Y-74367236D01*
X85043884Y-74367236D02*
X84996265Y-74414856D01*
X84996265Y-74414856D02*
X84901027Y-74462475D01*
X84901027Y-74462475D02*
X84520075Y-74462475D01*
X84520075Y-74462475D02*
X84520075Y-73462475D01*
X84520075Y-73462475D02*
X84853408Y-73462475D01*
X84853408Y-73462475D02*
X84948646Y-73510094D01*
X84948646Y-73510094D02*
X84996265Y-73557713D01*
X84996265Y-73557713D02*
X85043884Y-73652951D01*
X85043884Y-73652951D02*
X85043884Y-73748189D01*
X85043884Y-73748189D02*
X84996265Y-73843427D01*
X84996265Y-73843427D02*
X84948646Y-73891046D01*
X84948646Y-73891046D02*
X84853408Y-73938665D01*
X84853408Y-73938665D02*
X84520075Y-73938665D01*
X78996265Y-75786704D02*
X79472455Y-75786704D01*
X78901027Y-76072419D02*
X79234360Y-75072419D01*
X79234360Y-75072419D02*
X79567693Y-76072419D01*
X79901027Y-75405752D02*
X79901027Y-76072419D01*
X79901027Y-75500990D02*
X79948646Y-75453371D01*
X79948646Y-75453371D02*
X80043884Y-75405752D01*
X80043884Y-75405752D02*
X80186741Y-75405752D01*
X80186741Y-75405752D02*
X80281979Y-75453371D01*
X80281979Y-75453371D02*
X80329598Y-75548609D01*
X80329598Y-75548609D02*
X80329598Y-76072419D01*
X80948646Y-76072419D02*
X80853408Y-76024800D01*
X80853408Y-76024800D02*
X80805789Y-75977180D01*
X80805789Y-75977180D02*
X80758170Y-75881942D01*
X80758170Y-75881942D02*
X80758170Y-75596228D01*
X80758170Y-75596228D02*
X80805789Y-75500990D01*
X80805789Y-75500990D02*
X80853408Y-75453371D01*
X80853408Y-75453371D02*
X80948646Y-75405752D01*
X80948646Y-75405752D02*
X81091503Y-75405752D01*
X81091503Y-75405752D02*
X81186741Y-75453371D01*
X81186741Y-75453371D02*
X81234360Y-75500990D01*
X81234360Y-75500990D02*
X81281979Y-75596228D01*
X81281979Y-75596228D02*
X81281979Y-75881942D01*
X81281979Y-75881942D02*
X81234360Y-75977180D01*
X81234360Y-75977180D02*
X81186741Y-76024800D01*
X81186741Y-76024800D02*
X81091503Y-76072419D01*
X81091503Y-76072419D02*
X80948646Y-76072419D01*
X82139122Y-76072419D02*
X82139122Y-75072419D01*
X82139122Y-76024800D02*
X82043884Y-76072419D01*
X82043884Y-76072419D02*
X81853408Y-76072419D01*
X81853408Y-76072419D02*
X81758170Y-76024800D01*
X81758170Y-76024800D02*
X81710551Y-75977180D01*
X81710551Y-75977180D02*
X81662932Y-75881942D01*
X81662932Y-75881942D02*
X81662932Y-75596228D01*
X81662932Y-75596228D02*
X81710551Y-75500990D01*
X81710551Y-75500990D02*
X81758170Y-75453371D01*
X81758170Y-75453371D02*
X81853408Y-75405752D01*
X81853408Y-75405752D02*
X82043884Y-75405752D01*
X82043884Y-75405752D02*
X82139122Y-75453371D01*
X82758170Y-76072419D02*
X82662932Y-76024800D01*
X82662932Y-76024800D02*
X82615313Y-75977180D01*
X82615313Y-75977180D02*
X82567694Y-75881942D01*
X82567694Y-75881942D02*
X82567694Y-75596228D01*
X82567694Y-75596228D02*
X82615313Y-75500990D01*
X82615313Y-75500990D02*
X82662932Y-75453371D01*
X82662932Y-75453371D02*
X82758170Y-75405752D01*
X82758170Y-75405752D02*
X82901027Y-75405752D01*
X82901027Y-75405752D02*
X82996265Y-75453371D01*
X82996265Y-75453371D02*
X83043884Y-75500990D01*
X83043884Y-75500990D02*
X83091503Y-75596228D01*
X83091503Y-75596228D02*
X83091503Y-75881942D01*
X83091503Y-75881942D02*
X83043884Y-75977180D01*
X83043884Y-75977180D02*
X82996265Y-76024800D01*
X82996265Y-76024800D02*
X82901027Y-76072419D01*
X82901027Y-76072419D02*
X82758170Y-76072419D01*
X84853408Y-75977180D02*
X84805789Y-76024800D01*
X84805789Y-76024800D02*
X84662932Y-76072419D01*
X84662932Y-76072419D02*
X84567694Y-76072419D01*
X84567694Y-76072419D02*
X84424837Y-76024800D01*
X84424837Y-76024800D02*
X84329599Y-75929561D01*
X84329599Y-75929561D02*
X84281980Y-75834323D01*
X84281980Y-75834323D02*
X84234361Y-75643847D01*
X84234361Y-75643847D02*
X84234361Y-75500990D01*
X84234361Y-75500990D02*
X84281980Y-75310514D01*
X84281980Y-75310514D02*
X84329599Y-75215276D01*
X84329599Y-75215276D02*
X84424837Y-75120038D01*
X84424837Y-75120038D02*
X84567694Y-75072419D01*
X84567694Y-75072419D02*
X84662932Y-75072419D01*
X84662932Y-75072419D02*
X84805789Y-75120038D01*
X84805789Y-75120038D02*
X84853408Y-75167657D01*
X85424837Y-76072419D02*
X85329599Y-76024800D01*
X85329599Y-76024800D02*
X85281980Y-75977180D01*
X85281980Y-75977180D02*
X85234361Y-75881942D01*
X85234361Y-75881942D02*
X85234361Y-75596228D01*
X85234361Y-75596228D02*
X85281980Y-75500990D01*
X85281980Y-75500990D02*
X85329599Y-75453371D01*
X85329599Y-75453371D02*
X85424837Y-75405752D01*
X85424837Y-75405752D02*
X85567694Y-75405752D01*
X85567694Y-75405752D02*
X85662932Y-75453371D01*
X85662932Y-75453371D02*
X85710551Y-75500990D01*
X85710551Y-75500990D02*
X85758170Y-75596228D01*
X85758170Y-75596228D02*
X85758170Y-75881942D01*
X85758170Y-75881942D02*
X85710551Y-75977180D01*
X85710551Y-75977180D02*
X85662932Y-76024800D01*
X85662932Y-76024800D02*
X85567694Y-76072419D01*
X85567694Y-76072419D02*
X85424837Y-76072419D01*
X86186742Y-76072419D02*
X86186742Y-75405752D01*
X86186742Y-75500990D02*
X86234361Y-75453371D01*
X86234361Y-75453371D02*
X86329599Y-75405752D01*
X86329599Y-75405752D02*
X86472456Y-75405752D01*
X86472456Y-75405752D02*
X86567694Y-75453371D01*
X86567694Y-75453371D02*
X86615313Y-75548609D01*
X86615313Y-75548609D02*
X86615313Y-76072419D01*
X86615313Y-75548609D02*
X86662932Y-75453371D01*
X86662932Y-75453371D02*
X86758170Y-75405752D01*
X86758170Y-75405752D02*
X86901027Y-75405752D01*
X86901027Y-75405752D02*
X86996266Y-75453371D01*
X86996266Y-75453371D02*
X87043885Y-75548609D01*
X87043885Y-75548609D02*
X87043885Y-76072419D01*
X87948646Y-75405752D02*
X87948646Y-76072419D01*
X87520075Y-75405752D02*
X87520075Y-75929561D01*
X87520075Y-75929561D02*
X87567694Y-76024800D01*
X87567694Y-76024800D02*
X87662932Y-76072419D01*
X87662932Y-76072419D02*
X87805789Y-76072419D01*
X87805789Y-76072419D02*
X87901027Y-76024800D01*
X87901027Y-76024800D02*
X87948646Y-75977180D01*
X88424837Y-75405752D02*
X88424837Y-76072419D01*
X88424837Y-75500990D02*
X88472456Y-75453371D01*
X88472456Y-75453371D02*
X88567694Y-75405752D01*
X88567694Y-75405752D02*
X88710551Y-75405752D01*
X88710551Y-75405752D02*
X88805789Y-75453371D01*
X88805789Y-75453371D02*
X88853408Y-75548609D01*
X88853408Y-75548609D02*
X88853408Y-76072419D01*
X89710551Y-76024800D02*
X89615313Y-76072419D01*
X89615313Y-76072419D02*
X89424837Y-76072419D01*
X89424837Y-76072419D02*
X89329599Y-76024800D01*
X89329599Y-76024800D02*
X89281980Y-75929561D01*
X89281980Y-75929561D02*
X89281980Y-75548609D01*
X89281980Y-75548609D02*
X89329599Y-75453371D01*
X89329599Y-75453371D02*
X89424837Y-75405752D01*
X89424837Y-75405752D02*
X89615313Y-75405752D01*
X89615313Y-75405752D02*
X89710551Y-75453371D01*
X89710551Y-75453371D02*
X89758170Y-75548609D01*
X89758170Y-75548609D02*
X89758170Y-75643847D01*
X89758170Y-75643847D02*
X89281980Y-75739085D01*
D11*
X119410237Y-77759271D02*
X119652142Y-77759271D01*
X119652142Y-77759271D02*
X119773094Y-77819747D01*
X119773094Y-77819747D02*
X119894047Y-77940699D01*
X119894047Y-77940699D02*
X119954523Y-78182604D01*
X119954523Y-78182604D02*
X119954523Y-78605937D01*
X119954523Y-78605937D02*
X119894047Y-78847842D01*
X119894047Y-78847842D02*
X119773094Y-78968795D01*
X119773094Y-78968795D02*
X119652142Y-79029271D01*
X119652142Y-79029271D02*
X119410237Y-79029271D01*
X119410237Y-79029271D02*
X119289285Y-78968795D01*
X119289285Y-78968795D02*
X119168332Y-78847842D01*
X119168332Y-78847842D02*
X119107856Y-78605937D01*
X119107856Y-78605937D02*
X119107856Y-78182604D01*
X119107856Y-78182604D02*
X119168332Y-77940699D01*
X119168332Y-77940699D02*
X119289285Y-77819747D01*
X119289285Y-77819747D02*
X119410237Y-77759271D01*
X120498808Y-77759271D02*
X120498808Y-78787366D01*
X120498808Y-78787366D02*
X120559285Y-78908318D01*
X120559285Y-78908318D02*
X120619761Y-78968795D01*
X120619761Y-78968795D02*
X120740713Y-79029271D01*
X120740713Y-79029271D02*
X120982618Y-79029271D01*
X120982618Y-79029271D02*
X121103570Y-78968795D01*
X121103570Y-78968795D02*
X121164047Y-78908318D01*
X121164047Y-78908318D02*
X121224523Y-78787366D01*
X121224523Y-78787366D02*
X121224523Y-77759271D01*
X121647856Y-77759271D02*
X122373570Y-77759271D01*
X122010713Y-79029271D02*
X122010713Y-77759271D01*
X122796903Y-78545461D02*
X123764523Y-78545461D01*
X124369284Y-79029271D02*
X124369284Y-77759271D01*
X124369284Y-77759271D02*
X124792618Y-78666414D01*
X124792618Y-78666414D02*
X125215951Y-77759271D01*
X125215951Y-77759271D02*
X125215951Y-79029271D01*
X125820713Y-79029271D02*
X125820713Y-77759271D01*
X125820713Y-77759271D02*
X126304523Y-77759271D01*
X126304523Y-77759271D02*
X126425475Y-77819747D01*
X126425475Y-77819747D02*
X126485952Y-77880223D01*
X126485952Y-77880223D02*
X126546428Y-78001175D01*
X126546428Y-78001175D02*
X126546428Y-78182604D01*
X126546428Y-78182604D02*
X126485952Y-78303556D01*
X126485952Y-78303556D02*
X126425475Y-78364033D01*
X126425475Y-78364033D02*
X126304523Y-78424509D01*
X126304523Y-78424509D02*
X125820713Y-78424509D01*
X127755952Y-79029271D02*
X127030237Y-79029271D01*
X127393094Y-79029271D02*
X127393094Y-77759271D01*
X127393094Y-77759271D02*
X127272142Y-77940699D01*
X127272142Y-77940699D02*
X127151190Y-78061652D01*
X127151190Y-78061652D02*
X127030237Y-78122128D01*
X128904999Y-77759271D02*
X128300237Y-77759271D01*
X128300237Y-77759271D02*
X128239761Y-78364033D01*
X128239761Y-78364033D02*
X128300237Y-78303556D01*
X128300237Y-78303556D02*
X128421190Y-78243080D01*
X128421190Y-78243080D02*
X128723571Y-78243080D01*
X128723571Y-78243080D02*
X128844523Y-78303556D01*
X128844523Y-78303556D02*
X128904999Y-78364033D01*
X128904999Y-78364033D02*
X128965476Y-78484985D01*
X128965476Y-78484985D02*
X128965476Y-78787366D01*
X128965476Y-78787366D02*
X128904999Y-78908318D01*
X128904999Y-78908318D02*
X128844523Y-78968795D01*
X128844523Y-78968795D02*
X128723571Y-79029271D01*
X128723571Y-79029271D02*
X128421190Y-79029271D01*
X128421190Y-79029271D02*
X128300237Y-78968795D01*
X128300237Y-78968795D02*
X128239761Y-78908318D01*
X129691190Y-78303556D02*
X129570238Y-78243080D01*
X129570238Y-78243080D02*
X129509761Y-78182604D01*
X129509761Y-78182604D02*
X129449285Y-78061652D01*
X129449285Y-78061652D02*
X129449285Y-78001175D01*
X129449285Y-78001175D02*
X129509761Y-77880223D01*
X129509761Y-77880223D02*
X129570238Y-77819747D01*
X129570238Y-77819747D02*
X129691190Y-77759271D01*
X129691190Y-77759271D02*
X129933095Y-77759271D01*
X129933095Y-77759271D02*
X130054047Y-77819747D01*
X130054047Y-77819747D02*
X130114523Y-77880223D01*
X130114523Y-77880223D02*
X130175000Y-78001175D01*
X130175000Y-78001175D02*
X130175000Y-78061652D01*
X130175000Y-78061652D02*
X130114523Y-78182604D01*
X130114523Y-78182604D02*
X130054047Y-78243080D01*
X130054047Y-78243080D02*
X129933095Y-78303556D01*
X129933095Y-78303556D02*
X129691190Y-78303556D01*
X129691190Y-78303556D02*
X129570238Y-78364033D01*
X129570238Y-78364033D02*
X129509761Y-78424509D01*
X129509761Y-78424509D02*
X129449285Y-78545461D01*
X129449285Y-78545461D02*
X129449285Y-78787366D01*
X129449285Y-78787366D02*
X129509761Y-78908318D01*
X129509761Y-78908318D02*
X129570238Y-78968795D01*
X129570238Y-78968795D02*
X129691190Y-79029271D01*
X129691190Y-79029271D02*
X129933095Y-79029271D01*
X129933095Y-79029271D02*
X130054047Y-78968795D01*
X130054047Y-78968795D02*
X130114523Y-78908318D01*
X130114523Y-78908318D02*
X130175000Y-78787366D01*
X130175000Y-78787366D02*
X130175000Y-78545461D01*
X130175000Y-78545461D02*
X130114523Y-78424509D01*
X130114523Y-78424509D02*
X130054047Y-78364033D01*
X130054047Y-78364033D02*
X129933095Y-78303556D01*
X131263571Y-78182604D02*
X131263571Y-79029271D01*
X130961190Y-77698795D02*
X130658809Y-78605937D01*
X130658809Y-78605937D02*
X131445000Y-78605937D01*
X131928809Y-78545461D02*
X132896429Y-78545461D01*
X133501190Y-79029271D02*
X133501190Y-77759271D01*
X134105952Y-79029271D02*
X134105952Y-77759271D01*
X134105952Y-77759271D02*
X134831667Y-79029271D01*
X134831667Y-79029271D02*
X134831667Y-77759271D01*
X103401719Y-88707381D02*
X103401719Y-88284047D01*
X104066957Y-88102619D02*
X104066957Y-88707381D01*
X104066957Y-88707381D02*
X102796957Y-88707381D01*
X102796957Y-88707381D02*
X102796957Y-88102619D01*
X104006481Y-87618809D02*
X104066957Y-87437380D01*
X104066957Y-87437380D02*
X104066957Y-87134999D01*
X104066957Y-87134999D02*
X104006481Y-87014047D01*
X104006481Y-87014047D02*
X103946004Y-86953571D01*
X103946004Y-86953571D02*
X103825052Y-86893094D01*
X103825052Y-86893094D02*
X103704100Y-86893094D01*
X103704100Y-86893094D02*
X103583147Y-86953571D01*
X103583147Y-86953571D02*
X103522671Y-87014047D01*
X103522671Y-87014047D02*
X103462195Y-87134999D01*
X103462195Y-87134999D02*
X103401719Y-87376904D01*
X103401719Y-87376904D02*
X103341242Y-87497856D01*
X103341242Y-87497856D02*
X103280766Y-87558333D01*
X103280766Y-87558333D02*
X103159814Y-87618809D01*
X103159814Y-87618809D02*
X103038861Y-87618809D01*
X103038861Y-87618809D02*
X102917909Y-87558333D01*
X102917909Y-87558333D02*
X102857433Y-87497856D01*
X102857433Y-87497856D02*
X102796957Y-87376904D01*
X102796957Y-87376904D02*
X102796957Y-87074523D01*
X102796957Y-87074523D02*
X102857433Y-86893094D01*
X104066957Y-86348809D02*
X102796957Y-86348809D01*
X102796957Y-86348809D02*
X102796957Y-85864999D01*
X102796957Y-85864999D02*
X102857433Y-85744047D01*
X102857433Y-85744047D02*
X102917909Y-85683570D01*
X102917909Y-85683570D02*
X103038861Y-85623094D01*
X103038861Y-85623094D02*
X103220290Y-85623094D01*
X103220290Y-85623094D02*
X103341242Y-85683570D01*
X103341242Y-85683570D02*
X103401719Y-85744047D01*
X103401719Y-85744047D02*
X103462195Y-85864999D01*
X103462195Y-85864999D02*
X103462195Y-86348809D01*
X102796957Y-85199761D02*
X102796957Y-84413570D01*
X102796957Y-84413570D02*
X103280766Y-84836904D01*
X103280766Y-84836904D02*
X103280766Y-84655475D01*
X103280766Y-84655475D02*
X103341242Y-84534523D01*
X103341242Y-84534523D02*
X103401719Y-84474047D01*
X103401719Y-84474047D02*
X103522671Y-84413570D01*
X103522671Y-84413570D02*
X103825052Y-84413570D01*
X103825052Y-84413570D02*
X103946004Y-84474047D01*
X103946004Y-84474047D02*
X104006481Y-84534523D01*
X104006481Y-84534523D02*
X104066957Y-84655475D01*
X104066957Y-84655475D02*
X104066957Y-85018332D01*
X104066957Y-85018332D02*
X104006481Y-85139285D01*
X104006481Y-85139285D02*
X103946004Y-85199761D01*
X102917909Y-83929761D02*
X102857433Y-83869285D01*
X102857433Y-83869285D02*
X102796957Y-83748332D01*
X102796957Y-83748332D02*
X102796957Y-83445951D01*
X102796957Y-83445951D02*
X102857433Y-83324999D01*
X102857433Y-83324999D02*
X102917909Y-83264523D01*
X102917909Y-83264523D02*
X103038861Y-83204046D01*
X103038861Y-83204046D02*
X103159814Y-83204046D01*
X103159814Y-83204046D02*
X103341242Y-83264523D01*
X103341242Y-83264523D02*
X104066957Y-83990237D01*
X104066957Y-83990237D02*
X104066957Y-83204046D01*
X103583147Y-82659761D02*
X103583147Y-81692142D01*
X103946004Y-80361665D02*
X104006481Y-80422141D01*
X104006481Y-80422141D02*
X104066957Y-80603570D01*
X104066957Y-80603570D02*
X104066957Y-80724522D01*
X104066957Y-80724522D02*
X104006481Y-80905951D01*
X104006481Y-80905951D02*
X103885528Y-81026903D01*
X103885528Y-81026903D02*
X103764576Y-81087380D01*
X103764576Y-81087380D02*
X103522671Y-81147856D01*
X103522671Y-81147856D02*
X103341242Y-81147856D01*
X103341242Y-81147856D02*
X103099338Y-81087380D01*
X103099338Y-81087380D02*
X102978385Y-81026903D01*
X102978385Y-81026903D02*
X102857433Y-80905951D01*
X102857433Y-80905951D02*
X102796957Y-80724522D01*
X102796957Y-80724522D02*
X102796957Y-80603570D01*
X102796957Y-80603570D02*
X102857433Y-80422141D01*
X102857433Y-80422141D02*
X102917909Y-80361665D01*
X102796957Y-79273094D02*
X102796957Y-79514999D01*
X102796957Y-79514999D02*
X102857433Y-79635951D01*
X102857433Y-79635951D02*
X102917909Y-79696427D01*
X102917909Y-79696427D02*
X103099338Y-79817380D01*
X103099338Y-79817380D02*
X103341242Y-79877856D01*
X103341242Y-79877856D02*
X103825052Y-79877856D01*
X103825052Y-79877856D02*
X103946004Y-79817380D01*
X103946004Y-79817380D02*
X104006481Y-79756903D01*
X104006481Y-79756903D02*
X104066957Y-79635951D01*
X104066957Y-79635951D02*
X104066957Y-79394046D01*
X104066957Y-79394046D02*
X104006481Y-79273094D01*
X104006481Y-79273094D02*
X103946004Y-79212618D01*
X103946004Y-79212618D02*
X103825052Y-79152141D01*
X103825052Y-79152141D02*
X103522671Y-79152141D01*
X103522671Y-79152141D02*
X103401719Y-79212618D01*
X103401719Y-79212618D02*
X103341242Y-79273094D01*
X103341242Y-79273094D02*
X103280766Y-79394046D01*
X103280766Y-79394046D02*
X103280766Y-79635951D01*
X103280766Y-79635951D02*
X103341242Y-79756903D01*
X103341242Y-79756903D02*
X103401719Y-79817380D01*
X103401719Y-79817380D02*
X103522671Y-79877856D01*
X106051110Y-88344523D02*
X106111586Y-88223570D01*
X106111586Y-88223570D02*
X106111586Y-87981666D01*
X106111586Y-87981666D02*
X106051110Y-87860713D01*
X106051110Y-87860713D02*
X105930157Y-87800237D01*
X105930157Y-87800237D02*
X105869681Y-87800237D01*
X105869681Y-87800237D02*
X105748729Y-87860713D01*
X105748729Y-87860713D02*
X105688252Y-87981666D01*
X105688252Y-87981666D02*
X105688252Y-88163094D01*
X105688252Y-88163094D02*
X105627776Y-88284047D01*
X105627776Y-88284047D02*
X105506824Y-88344523D01*
X105506824Y-88344523D02*
X105446348Y-88344523D01*
X105446348Y-88344523D02*
X105325395Y-88284047D01*
X105325395Y-88284047D02*
X105264919Y-88163094D01*
X105264919Y-88163094D02*
X105264919Y-87981666D01*
X105264919Y-87981666D02*
X105325395Y-87860713D01*
X105264919Y-86711666D02*
X106111586Y-86711666D01*
X105264919Y-87255952D02*
X105930157Y-87255952D01*
X105930157Y-87255952D02*
X106051110Y-87195475D01*
X106051110Y-87195475D02*
X106111586Y-87074523D01*
X106111586Y-87074523D02*
X106111586Y-86893094D01*
X106111586Y-86893094D02*
X106051110Y-86772142D01*
X106051110Y-86772142D02*
X105990633Y-86711666D01*
X105264919Y-86106904D02*
X106534919Y-86106904D01*
X105325395Y-86106904D02*
X105264919Y-85985951D01*
X105264919Y-85985951D02*
X105264919Y-85744046D01*
X105264919Y-85744046D02*
X105325395Y-85623094D01*
X105325395Y-85623094D02*
X105385871Y-85562618D01*
X105385871Y-85562618D02*
X105506824Y-85502142D01*
X105506824Y-85502142D02*
X105869681Y-85502142D01*
X105869681Y-85502142D02*
X105990633Y-85562618D01*
X105990633Y-85562618D02*
X106051110Y-85623094D01*
X106051110Y-85623094D02*
X106111586Y-85744046D01*
X106111586Y-85744046D02*
X106111586Y-85985951D01*
X106111586Y-85985951D02*
X106051110Y-86106904D01*
X106051110Y-84474046D02*
X106111586Y-84594998D01*
X106111586Y-84594998D02*
X106111586Y-84836903D01*
X106111586Y-84836903D02*
X106051110Y-84957856D01*
X106051110Y-84957856D02*
X105930157Y-85018332D01*
X105930157Y-85018332D02*
X105446348Y-85018332D01*
X105446348Y-85018332D02*
X105325395Y-84957856D01*
X105325395Y-84957856D02*
X105264919Y-84836903D01*
X105264919Y-84836903D02*
X105264919Y-84594998D01*
X105264919Y-84594998D02*
X105325395Y-84474046D01*
X105325395Y-84474046D02*
X105446348Y-84413570D01*
X105446348Y-84413570D02*
X105567300Y-84413570D01*
X105567300Y-84413570D02*
X105688252Y-85018332D01*
X106111586Y-83869285D02*
X105264919Y-83869285D01*
X105506824Y-83869285D02*
X105385871Y-83808808D01*
X105385871Y-83808808D02*
X105325395Y-83748332D01*
X105325395Y-83748332D02*
X105264919Y-83627380D01*
X105264919Y-83627380D02*
X105264919Y-83506427D01*
X106111586Y-83083095D02*
X105264919Y-83083095D01*
X105385871Y-83083095D02*
X105325395Y-83022618D01*
X105325395Y-83022618D02*
X105264919Y-82901666D01*
X105264919Y-82901666D02*
X105264919Y-82720237D01*
X105264919Y-82720237D02*
X105325395Y-82599285D01*
X105325395Y-82599285D02*
X105446348Y-82538809D01*
X105446348Y-82538809D02*
X106111586Y-82538809D01*
X105446348Y-82538809D02*
X105325395Y-82478333D01*
X105325395Y-82478333D02*
X105264919Y-82357380D01*
X105264919Y-82357380D02*
X105264919Y-82175952D01*
X105264919Y-82175952D02*
X105325395Y-82054999D01*
X105325395Y-82054999D02*
X105446348Y-81994523D01*
X105446348Y-81994523D02*
X106111586Y-81994523D01*
X106111586Y-81389762D02*
X105264919Y-81389762D01*
X104841586Y-81389762D02*
X104902062Y-81450238D01*
X104902062Y-81450238D02*
X104962538Y-81389762D01*
X104962538Y-81389762D02*
X104902062Y-81329285D01*
X104902062Y-81329285D02*
X104841586Y-81389762D01*
X104841586Y-81389762D02*
X104962538Y-81389762D01*
X105264919Y-80785000D02*
X106111586Y-80785000D01*
X105385871Y-80785000D02*
X105325395Y-80724523D01*
X105325395Y-80724523D02*
X105264919Y-80603571D01*
X105264919Y-80603571D02*
X105264919Y-80422142D01*
X105264919Y-80422142D02*
X105325395Y-80301190D01*
X105325395Y-80301190D02*
X105446348Y-80240714D01*
X105446348Y-80240714D02*
X106111586Y-80240714D01*
X106111586Y-79635952D02*
X105264919Y-79635952D01*
X104841586Y-79635952D02*
X104902062Y-79696428D01*
X104902062Y-79696428D02*
X104962538Y-79635952D01*
X104962538Y-79635952D02*
X104902062Y-79575475D01*
X104902062Y-79575475D02*
X104841586Y-79635952D01*
X104841586Y-79635952D02*
X104962538Y-79635952D01*
D12*
X78166666Y-78644819D02*
X78166666Y-79359104D01*
X78166666Y-79359104D02*
X78119047Y-79501961D01*
X78119047Y-79501961D02*
X78023809Y-79597200D01*
X78023809Y-79597200D02*
X77880952Y-79644819D01*
X77880952Y-79644819D02*
X77785714Y-79644819D01*
X78785714Y-79073390D02*
X78690476Y-79025771D01*
X78690476Y-79025771D02*
X78642857Y-78978152D01*
X78642857Y-78978152D02*
X78595238Y-78882914D01*
X78595238Y-78882914D02*
X78595238Y-78835295D01*
X78595238Y-78835295D02*
X78642857Y-78740057D01*
X78642857Y-78740057D02*
X78690476Y-78692438D01*
X78690476Y-78692438D02*
X78785714Y-78644819D01*
X78785714Y-78644819D02*
X78976190Y-78644819D01*
X78976190Y-78644819D02*
X79071428Y-78692438D01*
X79071428Y-78692438D02*
X79119047Y-78740057D01*
X79119047Y-78740057D02*
X79166666Y-78835295D01*
X79166666Y-78835295D02*
X79166666Y-78882914D01*
X79166666Y-78882914D02*
X79119047Y-78978152D01*
X79119047Y-78978152D02*
X79071428Y-79025771D01*
X79071428Y-79025771D02*
X78976190Y-79073390D01*
X78976190Y-79073390D02*
X78785714Y-79073390D01*
X78785714Y-79073390D02*
X78690476Y-79121009D01*
X78690476Y-79121009D02*
X78642857Y-79168628D01*
X78642857Y-79168628D02*
X78595238Y-79263866D01*
X78595238Y-79263866D02*
X78595238Y-79454342D01*
X78595238Y-79454342D02*
X78642857Y-79549580D01*
X78642857Y-79549580D02*
X78690476Y-79597200D01*
X78690476Y-79597200D02*
X78785714Y-79644819D01*
X78785714Y-79644819D02*
X78976190Y-79644819D01*
X78976190Y-79644819D02*
X79071428Y-79597200D01*
X79071428Y-79597200D02*
X79119047Y-79549580D01*
X79119047Y-79549580D02*
X79166666Y-79454342D01*
X79166666Y-79454342D02*
X79166666Y-79263866D01*
X79166666Y-79263866D02*
X79119047Y-79168628D01*
X79119047Y-79168628D02*
X79071428Y-79121009D01*
X79071428Y-79121009D02*
X78976190Y-79073390D01*
X78097142Y-91894819D02*
X77620952Y-91894819D01*
X77620952Y-91894819D02*
X77620952Y-90894819D01*
X78430476Y-91371009D02*
X78763809Y-91371009D01*
X78906666Y-91894819D02*
X78430476Y-91894819D01*
X78430476Y-91894819D02*
X78430476Y-90894819D01*
X78430476Y-90894819D02*
X78906666Y-90894819D01*
X79335238Y-91894819D02*
X79335238Y-90894819D01*
X79335238Y-90894819D02*
X79573333Y-90894819D01*
X79573333Y-90894819D02*
X79716190Y-90942438D01*
X79716190Y-90942438D02*
X79811428Y-91037676D01*
X79811428Y-91037676D02*
X79859047Y-91132914D01*
X79859047Y-91132914D02*
X79906666Y-91323390D01*
X79906666Y-91323390D02*
X79906666Y-91466247D01*
X79906666Y-91466247D02*
X79859047Y-91656723D01*
X79859047Y-91656723D02*
X79811428Y-91751961D01*
X79811428Y-91751961D02*
X79716190Y-91847200D01*
X79716190Y-91847200D02*
X79573333Y-91894819D01*
X79573333Y-91894819D02*
X79335238Y-91894819D01*
X126266666Y-86624819D02*
X126266666Y-87339104D01*
X126266666Y-87339104D02*
X126219047Y-87481961D01*
X126219047Y-87481961D02*
X126123809Y-87577200D01*
X126123809Y-87577200D02*
X125980952Y-87624819D01*
X125980952Y-87624819D02*
X125885714Y-87624819D01*
X126790476Y-87624819D02*
X126980952Y-87624819D01*
X126980952Y-87624819D02*
X127076190Y-87577200D01*
X127076190Y-87577200D02*
X127123809Y-87529580D01*
X127123809Y-87529580D02*
X127219047Y-87386723D01*
X127219047Y-87386723D02*
X127266666Y-87196247D01*
X127266666Y-87196247D02*
X127266666Y-86815295D01*
X127266666Y-86815295D02*
X127219047Y-86720057D01*
X127219047Y-86720057D02*
X127171428Y-86672438D01*
X127171428Y-86672438D02*
X127076190Y-86624819D01*
X127076190Y-86624819D02*
X126885714Y-86624819D01*
X126885714Y-86624819D02*
X126790476Y-86672438D01*
X126790476Y-86672438D02*
X126742857Y-86720057D01*
X126742857Y-86720057D02*
X126695238Y-86815295D01*
X126695238Y-86815295D02*
X126695238Y-87053390D01*
X126695238Y-87053390D02*
X126742857Y-87148628D01*
X126742857Y-87148628D02*
X126790476Y-87196247D01*
X126790476Y-87196247D02*
X126885714Y-87243866D01*
X126885714Y-87243866D02*
X127076190Y-87243866D01*
X127076190Y-87243866D02*
X127171428Y-87196247D01*
X127171428Y-87196247D02*
X127219047Y-87148628D01*
X127219047Y-87148628D02*
X127266666Y-87053390D01*
X118546666Y-70574819D02*
X118546666Y-71289104D01*
X118546666Y-71289104D02*
X118499047Y-71431961D01*
X118499047Y-71431961D02*
X118403809Y-71527200D01*
X118403809Y-71527200D02*
X118260952Y-71574819D01*
X118260952Y-71574819D02*
X118165714Y-71574819D01*
X118975238Y-70670057D02*
X119022857Y-70622438D01*
X119022857Y-70622438D02*
X119118095Y-70574819D01*
X119118095Y-70574819D02*
X119356190Y-70574819D01*
X119356190Y-70574819D02*
X119451428Y-70622438D01*
X119451428Y-70622438D02*
X119499047Y-70670057D01*
X119499047Y-70670057D02*
X119546666Y-70765295D01*
X119546666Y-70765295D02*
X119546666Y-70860533D01*
X119546666Y-70860533D02*
X119499047Y-71003390D01*
X119499047Y-71003390D02*
X118927619Y-71574819D01*
X118927619Y-71574819D02*
X119546666Y-71574819D01*
X133786666Y-70574819D02*
X133786666Y-71289104D01*
X133786666Y-71289104D02*
X133739047Y-71431961D01*
X133739047Y-71431961D02*
X133643809Y-71527200D01*
X133643809Y-71527200D02*
X133500952Y-71574819D01*
X133500952Y-71574819D02*
X133405714Y-71574819D01*
X134739047Y-70574819D02*
X134262857Y-70574819D01*
X134262857Y-70574819D02*
X134215238Y-71051009D01*
X134215238Y-71051009D02*
X134262857Y-71003390D01*
X134262857Y-71003390D02*
X134358095Y-70955771D01*
X134358095Y-70955771D02*
X134596190Y-70955771D01*
X134596190Y-70955771D02*
X134691428Y-71003390D01*
X134691428Y-71003390D02*
X134739047Y-71051009D01*
X134739047Y-71051009D02*
X134786666Y-71146247D01*
X134786666Y-71146247D02*
X134786666Y-71384342D01*
X134786666Y-71384342D02*
X134739047Y-71479580D01*
X134739047Y-71479580D02*
X134691428Y-71527200D01*
X134691428Y-71527200D02*
X134596190Y-71574819D01*
X134596190Y-71574819D02*
X134358095Y-71574819D01*
X134358095Y-71574819D02*
X134262857Y-71527200D01*
X134262857Y-71527200D02*
X134215238Y-71479580D01*
X111426666Y-70024819D02*
X111426666Y-70739104D01*
X111426666Y-70739104D02*
X111379047Y-70881961D01*
X111379047Y-70881961D02*
X111283809Y-70977200D01*
X111283809Y-70977200D02*
X111140952Y-71024819D01*
X111140952Y-71024819D02*
X111045714Y-71024819D01*
X112331428Y-70358152D02*
X112331428Y-71024819D01*
X112093333Y-69977200D02*
X111855238Y-70691485D01*
X111855238Y-70691485D02*
X112474285Y-70691485D01*
X81920833Y-88104819D02*
X81587500Y-87628628D01*
X81349405Y-88104819D02*
X81349405Y-87104819D01*
X81349405Y-87104819D02*
X81730357Y-87104819D01*
X81730357Y-87104819D02*
X81825595Y-87152438D01*
X81825595Y-87152438D02*
X81873214Y-87200057D01*
X81873214Y-87200057D02*
X81920833Y-87295295D01*
X81920833Y-87295295D02*
X81920833Y-87438152D01*
X81920833Y-87438152D02*
X81873214Y-87533390D01*
X81873214Y-87533390D02*
X81825595Y-87581009D01*
X81825595Y-87581009D02*
X81730357Y-87628628D01*
X81730357Y-87628628D02*
X81349405Y-87628628D01*
X82825595Y-87104819D02*
X82349405Y-87104819D01*
X82349405Y-87104819D02*
X82301786Y-87581009D01*
X82301786Y-87581009D02*
X82349405Y-87533390D01*
X82349405Y-87533390D02*
X82444643Y-87485771D01*
X82444643Y-87485771D02*
X82682738Y-87485771D01*
X82682738Y-87485771D02*
X82777976Y-87533390D01*
X82777976Y-87533390D02*
X82825595Y-87581009D01*
X82825595Y-87581009D02*
X82873214Y-87676247D01*
X82873214Y-87676247D02*
X82873214Y-87914342D01*
X82873214Y-87914342D02*
X82825595Y-88009580D01*
X82825595Y-88009580D02*
X82777976Y-88057200D01*
X82777976Y-88057200D02*
X82682738Y-88104819D01*
X82682738Y-88104819D02*
X82444643Y-88104819D01*
X82444643Y-88104819D02*
X82349405Y-88057200D01*
X82349405Y-88057200D02*
X82301786Y-88009580D01*
X96186666Y-70064819D02*
X96186666Y-70779104D01*
X96186666Y-70779104D02*
X96139047Y-70921961D01*
X96139047Y-70921961D02*
X96043809Y-71017200D01*
X96043809Y-71017200D02*
X95900952Y-71064819D01*
X95900952Y-71064819D02*
X95805714Y-71064819D01*
X96567619Y-70064819D02*
X97186666Y-70064819D01*
X97186666Y-70064819D02*
X96853333Y-70445771D01*
X96853333Y-70445771D02*
X96996190Y-70445771D01*
X96996190Y-70445771D02*
X97091428Y-70493390D01*
X97091428Y-70493390D02*
X97139047Y-70541009D01*
X97139047Y-70541009D02*
X97186666Y-70636247D01*
X97186666Y-70636247D02*
X97186666Y-70874342D01*
X97186666Y-70874342D02*
X97139047Y-70969580D01*
X97139047Y-70969580D02*
X97091428Y-71017200D01*
X97091428Y-71017200D02*
X96996190Y-71064819D01*
X96996190Y-71064819D02*
X96710476Y-71064819D01*
X96710476Y-71064819D02*
X96615238Y-71017200D01*
X96615238Y-71017200D02*
X96567619Y-70969580D01*
X90000057Y-81595238D02*
X89952438Y-81690476D01*
X89952438Y-81690476D02*
X89857200Y-81785714D01*
X89857200Y-81785714D02*
X89714342Y-81928571D01*
X89714342Y-81928571D02*
X89666723Y-82023809D01*
X89666723Y-82023809D02*
X89666723Y-82119047D01*
X89904819Y-82071428D02*
X89857200Y-82166666D01*
X89857200Y-82166666D02*
X89761961Y-82261904D01*
X89761961Y-82261904D02*
X89571485Y-82309523D01*
X89571485Y-82309523D02*
X89238152Y-82309523D01*
X89238152Y-82309523D02*
X89047676Y-82261904D01*
X89047676Y-82261904D02*
X88952438Y-82166666D01*
X88952438Y-82166666D02*
X88904819Y-82071428D01*
X88904819Y-82071428D02*
X88904819Y-81880952D01*
X88904819Y-81880952D02*
X88952438Y-81785714D01*
X88952438Y-81785714D02*
X89047676Y-81690476D01*
X89047676Y-81690476D02*
X89238152Y-81642857D01*
X89238152Y-81642857D02*
X89571485Y-81642857D01*
X89571485Y-81642857D02*
X89761961Y-81690476D01*
X89761961Y-81690476D02*
X89857200Y-81785714D01*
X89857200Y-81785714D02*
X89904819Y-81880952D01*
X89904819Y-81880952D02*
X89904819Y-82071428D01*
X89904819Y-80690476D02*
X89904819Y-81261904D01*
X89904819Y-80976190D02*
X88904819Y-80976190D01*
X88904819Y-80976190D02*
X89047676Y-81071428D01*
X89047676Y-81071428D02*
X89142914Y-81166666D01*
X89142914Y-81166666D02*
X89190533Y-81261904D01*
X90000057Y-86532738D02*
X89952438Y-86627976D01*
X89952438Y-86627976D02*
X89857200Y-86723214D01*
X89857200Y-86723214D02*
X89714342Y-86866071D01*
X89714342Y-86866071D02*
X89666723Y-86961309D01*
X89666723Y-86961309D02*
X89666723Y-87056547D01*
X89904819Y-87008928D02*
X89857200Y-87104166D01*
X89857200Y-87104166D02*
X89761961Y-87199404D01*
X89761961Y-87199404D02*
X89571485Y-87247023D01*
X89571485Y-87247023D02*
X89238152Y-87247023D01*
X89238152Y-87247023D02*
X89047676Y-87199404D01*
X89047676Y-87199404D02*
X88952438Y-87104166D01*
X88952438Y-87104166D02*
X88904819Y-87008928D01*
X88904819Y-87008928D02*
X88904819Y-86818452D01*
X88904819Y-86818452D02*
X88952438Y-86723214D01*
X88952438Y-86723214D02*
X89047676Y-86627976D01*
X89047676Y-86627976D02*
X89238152Y-86580357D01*
X89238152Y-86580357D02*
X89571485Y-86580357D01*
X89571485Y-86580357D02*
X89761961Y-86627976D01*
X89761961Y-86627976D02*
X89857200Y-86723214D01*
X89857200Y-86723214D02*
X89904819Y-86818452D01*
X89904819Y-86818452D02*
X89904819Y-87008928D01*
X89000057Y-86199404D02*
X88952438Y-86151785D01*
X88952438Y-86151785D02*
X88904819Y-86056547D01*
X88904819Y-86056547D02*
X88904819Y-85818452D01*
X88904819Y-85818452D02*
X88952438Y-85723214D01*
X88952438Y-85723214D02*
X89000057Y-85675595D01*
X89000057Y-85675595D02*
X89095295Y-85627976D01*
X89095295Y-85627976D02*
X89190533Y-85627976D01*
X89190533Y-85627976D02*
X89333390Y-85675595D01*
X89333390Y-85675595D02*
X89904819Y-86247023D01*
X89904819Y-86247023D02*
X89904819Y-85627976D01*
X81920833Y-93104819D02*
X81587500Y-92628628D01*
X81349405Y-93104819D02*
X81349405Y-92104819D01*
X81349405Y-92104819D02*
X81730357Y-92104819D01*
X81730357Y-92104819D02*
X81825595Y-92152438D01*
X81825595Y-92152438D02*
X81873214Y-92200057D01*
X81873214Y-92200057D02*
X81920833Y-92295295D01*
X81920833Y-92295295D02*
X81920833Y-92438152D01*
X81920833Y-92438152D02*
X81873214Y-92533390D01*
X81873214Y-92533390D02*
X81825595Y-92581009D01*
X81825595Y-92581009D02*
X81730357Y-92628628D01*
X81730357Y-92628628D02*
X81349405Y-92628628D01*
X82777976Y-92104819D02*
X82587500Y-92104819D01*
X82587500Y-92104819D02*
X82492262Y-92152438D01*
X82492262Y-92152438D02*
X82444643Y-92200057D01*
X82444643Y-92200057D02*
X82349405Y-92342914D01*
X82349405Y-92342914D02*
X82301786Y-92533390D01*
X82301786Y-92533390D02*
X82301786Y-92914342D01*
X82301786Y-92914342D02*
X82349405Y-93009580D01*
X82349405Y-93009580D02*
X82397024Y-93057200D01*
X82397024Y-93057200D02*
X82492262Y-93104819D01*
X82492262Y-93104819D02*
X82682738Y-93104819D01*
X82682738Y-93104819D02*
X82777976Y-93057200D01*
X82777976Y-93057200D02*
X82825595Y-93009580D01*
X82825595Y-93009580D02*
X82873214Y-92914342D01*
X82873214Y-92914342D02*
X82873214Y-92676247D01*
X82873214Y-92676247D02*
X82825595Y-92581009D01*
X82825595Y-92581009D02*
X82777976Y-92533390D01*
X82777976Y-92533390D02*
X82682738Y-92485771D01*
X82682738Y-92485771D02*
X82492262Y-92485771D01*
X82492262Y-92485771D02*
X82397024Y-92533390D01*
X82397024Y-92533390D02*
X82349405Y-92581009D01*
X82349405Y-92581009D02*
X82301786Y-92676247D01*
X91245833Y-87604819D02*
X90912500Y-87128628D01*
X90674405Y-87604819D02*
X90674405Y-86604819D01*
X90674405Y-86604819D02*
X91055357Y-86604819D01*
X91055357Y-86604819D02*
X91150595Y-86652438D01*
X91150595Y-86652438D02*
X91198214Y-86700057D01*
X91198214Y-86700057D02*
X91245833Y-86795295D01*
X91245833Y-86795295D02*
X91245833Y-86938152D01*
X91245833Y-86938152D02*
X91198214Y-87033390D01*
X91198214Y-87033390D02*
X91150595Y-87081009D01*
X91150595Y-87081009D02*
X91055357Y-87128628D01*
X91055357Y-87128628D02*
X90674405Y-87128628D01*
X91626786Y-86700057D02*
X91674405Y-86652438D01*
X91674405Y-86652438D02*
X91769643Y-86604819D01*
X91769643Y-86604819D02*
X92007738Y-86604819D01*
X92007738Y-86604819D02*
X92102976Y-86652438D01*
X92102976Y-86652438D02*
X92150595Y-86700057D01*
X92150595Y-86700057D02*
X92198214Y-86795295D01*
X92198214Y-86795295D02*
X92198214Y-86890533D01*
X92198214Y-86890533D02*
X92150595Y-87033390D01*
X92150595Y-87033390D02*
X91579167Y-87604819D01*
X91579167Y-87604819D02*
X92198214Y-87604819D01*
X89264819Y-96833333D02*
X89979104Y-96833333D01*
X89979104Y-96833333D02*
X90121961Y-96880952D01*
X90121961Y-96880952D02*
X90217200Y-96976190D01*
X90217200Y-96976190D02*
X90264819Y-97119047D01*
X90264819Y-97119047D02*
X90264819Y-97214285D01*
X89264819Y-96452380D02*
X89264819Y-95785714D01*
X89264819Y-95785714D02*
X90264819Y-96214285D01*
X76504286Y-94444819D02*
X76504286Y-93444819D01*
X76932857Y-93540057D02*
X76980476Y-93492438D01*
X76980476Y-93492438D02*
X77075714Y-93444819D01*
X77075714Y-93444819D02*
X77313809Y-93444819D01*
X77313809Y-93444819D02*
X77409047Y-93492438D01*
X77409047Y-93492438D02*
X77456666Y-93540057D01*
X77456666Y-93540057D02*
X77504285Y-93635295D01*
X77504285Y-93635295D02*
X77504285Y-93730533D01*
X77504285Y-93730533D02*
X77456666Y-93873390D01*
X77456666Y-93873390D02*
X76885238Y-94444819D01*
X76885238Y-94444819D02*
X77504285Y-94444819D01*
X78504285Y-94349580D02*
X78456666Y-94397200D01*
X78456666Y-94397200D02*
X78313809Y-94444819D01*
X78313809Y-94444819D02*
X78218571Y-94444819D01*
X78218571Y-94444819D02*
X78075714Y-94397200D01*
X78075714Y-94397200D02*
X77980476Y-94301961D01*
X77980476Y-94301961D02*
X77932857Y-94206723D01*
X77932857Y-94206723D02*
X77885238Y-94016247D01*
X77885238Y-94016247D02*
X77885238Y-93873390D01*
X77885238Y-93873390D02*
X77932857Y-93682914D01*
X77932857Y-93682914D02*
X77980476Y-93587676D01*
X77980476Y-93587676D02*
X78075714Y-93492438D01*
X78075714Y-93492438D02*
X78218571Y-93444819D01*
X78218571Y-93444819D02*
X78313809Y-93444819D01*
X78313809Y-93444819D02*
X78456666Y-93492438D01*
X78456666Y-93492438D02*
X78504285Y-93540057D01*
X80028095Y-93921009D02*
X80170952Y-93968628D01*
X80170952Y-93968628D02*
X80218571Y-94016247D01*
X80218571Y-94016247D02*
X80266190Y-94111485D01*
X80266190Y-94111485D02*
X80266190Y-94254342D01*
X80266190Y-94254342D02*
X80218571Y-94349580D01*
X80218571Y-94349580D02*
X80170952Y-94397200D01*
X80170952Y-94397200D02*
X80075714Y-94444819D01*
X80075714Y-94444819D02*
X79694762Y-94444819D01*
X79694762Y-94444819D02*
X79694762Y-93444819D01*
X79694762Y-93444819D02*
X80028095Y-93444819D01*
X80028095Y-93444819D02*
X80123333Y-93492438D01*
X80123333Y-93492438D02*
X80170952Y-93540057D01*
X80170952Y-93540057D02*
X80218571Y-93635295D01*
X80218571Y-93635295D02*
X80218571Y-93730533D01*
X80218571Y-93730533D02*
X80170952Y-93825771D01*
X80170952Y-93825771D02*
X80123333Y-93873390D01*
X80123333Y-93873390D02*
X80028095Y-93921009D01*
X80028095Y-93921009D02*
X79694762Y-93921009D01*
X80694762Y-94444819D02*
X80694762Y-93444819D01*
X80694762Y-93921009D02*
X81266190Y-93921009D01*
X81266190Y-94444819D02*
X81266190Y-93444819D01*
X82266190Y-94444819D02*
X81694762Y-94444819D01*
X81980476Y-94444819D02*
X81980476Y-93444819D01*
X81980476Y-93444819D02*
X81885238Y-93587676D01*
X81885238Y-93587676D02*
X81790000Y-93682914D01*
X81790000Y-93682914D02*
X81694762Y-93730533D01*
X82599524Y-93444819D02*
X83266190Y-93444819D01*
X83266190Y-93444819D02*
X82837619Y-94444819D01*
X84123333Y-93444819D02*
X83647143Y-93444819D01*
X83647143Y-93444819D02*
X83599524Y-93921009D01*
X83599524Y-93921009D02*
X83647143Y-93873390D01*
X83647143Y-93873390D02*
X83742381Y-93825771D01*
X83742381Y-93825771D02*
X83980476Y-93825771D01*
X83980476Y-93825771D02*
X84075714Y-93873390D01*
X84075714Y-93873390D02*
X84123333Y-93921009D01*
X84123333Y-93921009D02*
X84170952Y-94016247D01*
X84170952Y-94016247D02*
X84170952Y-94254342D01*
X84170952Y-94254342D02*
X84123333Y-94349580D01*
X84123333Y-94349580D02*
X84075714Y-94397200D01*
X84075714Y-94397200D02*
X83980476Y-94444819D01*
X83980476Y-94444819D02*
X83742381Y-94444819D01*
X83742381Y-94444819D02*
X83647143Y-94397200D01*
X83647143Y-94397200D02*
X83599524Y-94349580D01*
X84790000Y-93444819D02*
X84885238Y-93444819D01*
X84885238Y-93444819D02*
X84980476Y-93492438D01*
X84980476Y-93492438D02*
X85028095Y-93540057D01*
X85028095Y-93540057D02*
X85075714Y-93635295D01*
X85075714Y-93635295D02*
X85123333Y-93825771D01*
X85123333Y-93825771D02*
X85123333Y-94063866D01*
X85123333Y-94063866D02*
X85075714Y-94254342D01*
X85075714Y-94254342D02*
X85028095Y-94349580D01*
X85028095Y-94349580D02*
X84980476Y-94397200D01*
X84980476Y-94397200D02*
X84885238Y-94444819D01*
X84885238Y-94444819D02*
X84790000Y-94444819D01*
X84790000Y-94444819D02*
X84694762Y-94397200D01*
X84694762Y-94397200D02*
X84647143Y-94349580D01*
X84647143Y-94349580D02*
X84599524Y-94254342D01*
X84599524Y-94254342D02*
X84551905Y-94063866D01*
X84551905Y-94063866D02*
X84551905Y-93825771D01*
X84551905Y-93825771D02*
X84599524Y-93635295D01*
X84599524Y-93635295D02*
X84647143Y-93540057D01*
X84647143Y-93540057D02*
X84694762Y-93492438D01*
X84694762Y-93492438D02*
X84790000Y-93444819D01*
X81920833Y-83604819D02*
X81587500Y-83128628D01*
X81349405Y-83604819D02*
X81349405Y-82604819D01*
X81349405Y-82604819D02*
X81730357Y-82604819D01*
X81730357Y-82604819D02*
X81825595Y-82652438D01*
X81825595Y-82652438D02*
X81873214Y-82700057D01*
X81873214Y-82700057D02*
X81920833Y-82795295D01*
X81920833Y-82795295D02*
X81920833Y-82938152D01*
X81920833Y-82938152D02*
X81873214Y-83033390D01*
X81873214Y-83033390D02*
X81825595Y-83081009D01*
X81825595Y-83081009D02*
X81730357Y-83128628D01*
X81730357Y-83128628D02*
X81349405Y-83128628D01*
X82777976Y-82938152D02*
X82777976Y-83604819D01*
X82539881Y-82557200D02*
X82301786Y-83271485D01*
X82301786Y-83271485D02*
X82920833Y-83271485D01*
X91245833Y-82604819D02*
X90912500Y-82128628D01*
X90674405Y-82604819D02*
X90674405Y-81604819D01*
X90674405Y-81604819D02*
X91055357Y-81604819D01*
X91055357Y-81604819D02*
X91150595Y-81652438D01*
X91150595Y-81652438D02*
X91198214Y-81700057D01*
X91198214Y-81700057D02*
X91245833Y-81795295D01*
X91245833Y-81795295D02*
X91245833Y-81938152D01*
X91245833Y-81938152D02*
X91198214Y-82033390D01*
X91198214Y-82033390D02*
X91150595Y-82081009D01*
X91150595Y-82081009D02*
X91055357Y-82128628D01*
X91055357Y-82128628D02*
X90674405Y-82128628D01*
X92198214Y-82604819D02*
X91626786Y-82604819D01*
X91912500Y-82604819D02*
X91912500Y-81604819D01*
X91912500Y-81604819D02*
X91817262Y-81747676D01*
X91817262Y-81747676D02*
X91722024Y-81842914D01*
X91722024Y-81842914D02*
X91626786Y-81890533D01*
X91333333Y-92604819D02*
X91000000Y-92128628D01*
X90761905Y-92604819D02*
X90761905Y-91604819D01*
X90761905Y-91604819D02*
X91142857Y-91604819D01*
X91142857Y-91604819D02*
X91238095Y-91652438D01*
X91238095Y-91652438D02*
X91285714Y-91700057D01*
X91285714Y-91700057D02*
X91333333Y-91795295D01*
X91333333Y-91795295D02*
X91333333Y-91938152D01*
X91333333Y-91938152D02*
X91285714Y-92033390D01*
X91285714Y-92033390D02*
X91238095Y-92081009D01*
X91238095Y-92081009D02*
X91142857Y-92128628D01*
X91142857Y-92128628D02*
X90761905Y-92128628D01*
X91666667Y-91604819D02*
X92285714Y-91604819D01*
X92285714Y-91604819D02*
X91952381Y-91985771D01*
X91952381Y-91985771D02*
X92095238Y-91985771D01*
X92095238Y-91985771D02*
X92190476Y-92033390D01*
X92190476Y-92033390D02*
X92238095Y-92081009D01*
X92238095Y-92081009D02*
X92285714Y-92176247D01*
X92285714Y-92176247D02*
X92285714Y-92414342D01*
X92285714Y-92414342D02*
X92238095Y-92509580D01*
X92238095Y-92509580D02*
X92190476Y-92557200D01*
X92190476Y-92557200D02*
X92095238Y-92604819D01*
X92095238Y-92604819D02*
X91809524Y-92604819D01*
X91809524Y-92604819D02*
X91714286Y-92557200D01*
X91714286Y-92557200D02*
X91666667Y-92509580D01*
X89450057Y-94075238D02*
X89402438Y-94170476D01*
X89402438Y-94170476D02*
X89307200Y-94265714D01*
X89307200Y-94265714D02*
X89164342Y-94408571D01*
X89164342Y-94408571D02*
X89116723Y-94503809D01*
X89116723Y-94503809D02*
X89116723Y-94599047D01*
X89354819Y-94551428D02*
X89307200Y-94646666D01*
X89307200Y-94646666D02*
X89211961Y-94741904D01*
X89211961Y-94741904D02*
X89021485Y-94789523D01*
X89021485Y-94789523D02*
X88688152Y-94789523D01*
X88688152Y-94789523D02*
X88497676Y-94741904D01*
X88497676Y-94741904D02*
X88402438Y-94646666D01*
X88402438Y-94646666D02*
X88354819Y-94551428D01*
X88354819Y-94551428D02*
X88354819Y-94360952D01*
X88354819Y-94360952D02*
X88402438Y-94265714D01*
X88402438Y-94265714D02*
X88497676Y-94170476D01*
X88497676Y-94170476D02*
X88688152Y-94122857D01*
X88688152Y-94122857D02*
X89021485Y-94122857D01*
X89021485Y-94122857D02*
X89211961Y-94170476D01*
X89211961Y-94170476D02*
X89307200Y-94265714D01*
X89307200Y-94265714D02*
X89354819Y-94360952D01*
X89354819Y-94360952D02*
X89354819Y-94551428D01*
X88354819Y-93789523D02*
X88354819Y-93170476D01*
X88354819Y-93170476D02*
X88735771Y-93503809D01*
X88735771Y-93503809D02*
X88735771Y-93360952D01*
X88735771Y-93360952D02*
X88783390Y-93265714D01*
X88783390Y-93265714D02*
X88831009Y-93218095D01*
X88831009Y-93218095D02*
X88926247Y-93170476D01*
X88926247Y-93170476D02*
X89164342Y-93170476D01*
X89164342Y-93170476D02*
X89259580Y-93218095D01*
X89259580Y-93218095D02*
X89307200Y-93265714D01*
X89307200Y-93265714D02*
X89354819Y-93360952D01*
X89354819Y-93360952D02*
X89354819Y-93646666D01*
X89354819Y-93646666D02*
X89307200Y-93741904D01*
X89307200Y-93741904D02*
X89259580Y-93789523D01*
D13*
%TO.C,J8*%
X79830000Y-83230000D02*
X79830000Y-90910000D01*
X79830000Y-80630000D02*
X79830000Y-81960000D01*
X78500000Y-80630000D02*
X79830000Y-80630000D01*
X77170000Y-90910000D02*
X79830000Y-90910000D01*
X77170000Y-83230000D02*
X79830000Y-83230000D01*
X77170000Y-83230000D02*
X77170000Y-90910000D01*
%TO.C,J9*%
X124500000Y-98820000D02*
X123620000Y-98820000D01*
X124060000Y-98210000D01*
X124500000Y-98820000D01*
G36*
X124500000Y-98820000D02*
G01*
X123620000Y-98820000D01*
X124060000Y-98210000D01*
X124500000Y-98820000D01*
G37*
X131800000Y-98210000D02*
X124360000Y-98210000D01*
X131800000Y-88170000D02*
X131800000Y-98210000D01*
X123760000Y-98210000D02*
X121400000Y-98210000D01*
X121400000Y-98210000D02*
X121400000Y-88170000D01*
X121400000Y-97590000D02*
X131800000Y-97590000D01*
X121400000Y-96090000D02*
X131800000Y-96090000D01*
X121400000Y-91190000D02*
X131800000Y-91190000D01*
X121400000Y-88170000D02*
X131800000Y-88170000D01*
%TO.C,J2*%
X117610000Y-72000000D02*
X117610000Y-86110000D01*
X115390000Y-86110000D02*
X117610000Y-86110000D01*
X115390000Y-72000000D02*
X117610000Y-72000000D01*
X115390000Y-72000000D02*
X115390000Y-86110000D01*
X115390000Y-71000000D02*
X115390000Y-69890000D01*
X115390000Y-69890000D02*
X116500000Y-69890000D01*
%TO.C,J5*%
X137610000Y-72000000D02*
X137610000Y-86110000D01*
X135390000Y-86110000D02*
X137610000Y-86110000D01*
X135390000Y-72000000D02*
X137610000Y-72000000D01*
X135390000Y-72000000D02*
X135390000Y-86110000D01*
X135390000Y-71000000D02*
X135390000Y-69890000D01*
X135390000Y-69890000D02*
X136500000Y-69890000D01*
%TO.C,J4*%
X110430000Y-74610000D02*
X110430000Y-97530000D01*
X110430000Y-74610000D02*
X113090000Y-74610000D01*
X110430000Y-97530000D02*
X113090000Y-97530000D01*
X111760000Y-72010000D02*
X113090000Y-72010000D01*
X113090000Y-72010000D02*
X113090000Y-73340000D01*
X113090000Y-74610000D02*
X113090000Y-97530000D01*
%TO.C,R5*%
X82314564Y-85265000D02*
X81860436Y-85265000D01*
X82314564Y-86735000D02*
X81860436Y-86735000D01*
%TO.C,J3*%
X95190000Y-74650000D02*
X95190000Y-97570000D01*
X95190000Y-74650000D02*
X97850000Y-74650000D01*
X95190000Y-97570000D02*
X97850000Y-97570000D01*
X96520000Y-72050000D02*
X97850000Y-72050000D01*
X97850000Y-72050000D02*
X97850000Y-73380000D01*
X97850000Y-74650000D02*
X97850000Y-97570000D01*
%TO.C,Q1*%
X85490000Y-81500000D02*
X85490000Y-80850000D01*
X85490000Y-81500000D02*
X85490000Y-82150000D01*
X88610000Y-81500000D02*
X88610000Y-80850000D01*
X88610000Y-81500000D02*
X88610000Y-82150000D01*
X88890000Y-80577500D02*
X88560000Y-80337500D01*
X88890000Y-80097500D01*
X88890000Y-80577500D01*
G36*
X88890000Y-80577500D02*
G01*
X88560000Y-80337500D01*
X88890000Y-80097500D01*
X88890000Y-80577500D01*
G37*
%TO.C,Q2*%
X85490000Y-86437500D02*
X85490000Y-85787500D01*
X85490000Y-86437500D02*
X85490000Y-87087500D01*
X88610000Y-86437500D02*
X88610000Y-85787500D01*
X88610000Y-86437500D02*
X88610000Y-87087500D01*
X88890000Y-85515000D02*
X88560000Y-85275000D01*
X88890000Y-85035000D01*
X88890000Y-85515000D01*
G36*
X88890000Y-85515000D02*
G01*
X88560000Y-85275000D01*
X88890000Y-85035000D01*
X88890000Y-85515000D01*
G37*
%TO.C,R6*%
X82314564Y-90265000D02*
X81860436Y-90265000D01*
X82314564Y-91735000D02*
X81860436Y-91735000D01*
%TO.C,R2*%
X91639564Y-84765000D02*
X91185436Y-84765000D01*
X91639564Y-86235000D02*
X91185436Y-86235000D01*
%TO.C,J7*%
X78090000Y-95170000D02*
X78090000Y-97830000D01*
X85770000Y-95170000D02*
X78090000Y-95170000D01*
X85770000Y-95170000D02*
X85770000Y-97830000D01*
X85770000Y-97830000D02*
X78090000Y-97830000D01*
X88370000Y-96500000D02*
X88370000Y-97830000D01*
X88370000Y-97830000D02*
X87040000Y-97830000D01*
%TO.C,R4*%
X82314564Y-80765000D02*
X81860436Y-80765000D01*
X82314564Y-82235000D02*
X81860436Y-82235000D01*
%TO.C,R1*%
X91639564Y-79765000D02*
X91185436Y-79765000D01*
X91639564Y-81235000D02*
X91185436Y-81235000D01*
%TO.C,R3*%
X91727064Y-89765000D02*
X91272936Y-89765000D01*
X91727064Y-91235000D02*
X91272936Y-91235000D01*
%TO.C,Q3*%
X85490000Y-90937500D02*
X85490000Y-90287500D01*
X85490000Y-90937500D02*
X85490000Y-91587500D01*
X88610000Y-90937500D02*
X88610000Y-90287500D01*
X88610000Y-90937500D02*
X88610000Y-91587500D01*
X88890000Y-90015000D02*
X88560000Y-89775000D01*
X88890000Y-89535000D01*
X88890000Y-90015000D01*
G36*
X88890000Y-90015000D02*
G01*
X88560000Y-89775000D01*
X88890000Y-89535000D01*
X88890000Y-90015000D01*
G37*
%TD*%
M02*
