%TF.GenerationSoftware,KiCad,Pcbnew,9.0.6*%
%TF.CreationDate,2026-03-05T12:47:33+01:00*%
%TF.ProjectId,ledholder,6c656468-6f6c-4646-9572-2e6b69636164,2026030502*%
%TF.SameCoordinates,Original*%
%TF.FileFunction,Legend,Top*%
%TF.FilePolarity,Positive*%
%FSLAX46Y46*%
G04 Gerber Fmt 4.6, Leading zero omitted, Abs format (unit mm)*
G04 Created by KiCad (PCBNEW 9.0.6) date 2026-03-05 12:47:33*
%MOMM*%
%LPD*%
G01*
G04 APERTURE LIST*
%ADD10C,0.050000*%
%ADD11C,0.150000*%
%ADD12C,0.120000*%
G04 APERTURE END LIST*
D10*
X113471530Y-75360990D02*
X113471530Y-75170514D01*
X113471530Y-75170514D02*
X113871530Y-75170514D01*
X113490578Y-75646705D02*
X113471530Y-75608609D01*
X113471530Y-75608609D02*
X113471530Y-75532419D01*
X113471530Y-75532419D02*
X113490578Y-75494324D01*
X113490578Y-75494324D02*
X113528673Y-75475276D01*
X113528673Y-75475276D02*
X113681054Y-75475276D01*
X113681054Y-75475276D02*
X113719149Y-75494324D01*
X113719149Y-75494324D02*
X113738197Y-75532419D01*
X113738197Y-75532419D02*
X113738197Y-75608609D01*
X113738197Y-75608609D02*
X113719149Y-75646705D01*
X113719149Y-75646705D02*
X113681054Y-75665752D01*
X113681054Y-75665752D02*
X113642958Y-75665752D01*
X113642958Y-75665752D02*
X113604863Y-75475276D01*
X113471530Y-76008609D02*
X113871530Y-76008609D01*
X113490578Y-76008609D02*
X113471530Y-75970514D01*
X113471530Y-75970514D02*
X113471530Y-75894323D01*
X113471530Y-75894323D02*
X113490578Y-75856228D01*
X113490578Y-75856228D02*
X113509625Y-75837181D01*
X113509625Y-75837181D02*
X113547720Y-75818133D01*
X113547720Y-75818133D02*
X113662006Y-75818133D01*
X113662006Y-75818133D02*
X113700101Y-75837181D01*
X113700101Y-75837181D02*
X113719149Y-75856228D01*
X113719149Y-75856228D02*
X113738197Y-75894323D01*
X113738197Y-75894323D02*
X113738197Y-75970514D01*
X113738197Y-75970514D02*
X113719149Y-76008609D01*
X113471530Y-76199086D02*
X113871530Y-76199086D01*
X113681054Y-76199086D02*
X113681054Y-76427657D01*
X113471530Y-76427657D02*
X113871530Y-76427657D01*
X113471530Y-76675276D02*
X113490578Y-76637181D01*
X113490578Y-76637181D02*
X113509625Y-76618134D01*
X113509625Y-76618134D02*
X113547720Y-76599086D01*
X113547720Y-76599086D02*
X113662006Y-76599086D01*
X113662006Y-76599086D02*
X113700101Y-76618134D01*
X113700101Y-76618134D02*
X113719149Y-76637181D01*
X113719149Y-76637181D02*
X113738197Y-76675276D01*
X113738197Y-76675276D02*
X113738197Y-76732419D01*
X113738197Y-76732419D02*
X113719149Y-76770515D01*
X113719149Y-76770515D02*
X113700101Y-76789562D01*
X113700101Y-76789562D02*
X113662006Y-76808610D01*
X113662006Y-76808610D02*
X113547720Y-76808610D01*
X113547720Y-76808610D02*
X113509625Y-76789562D01*
X113509625Y-76789562D02*
X113490578Y-76770515D01*
X113490578Y-76770515D02*
X113471530Y-76732419D01*
X113471530Y-76732419D02*
X113471530Y-76675276D01*
X113471530Y-77037181D02*
X113490578Y-76999086D01*
X113490578Y-76999086D02*
X113528673Y-76980039D01*
X113528673Y-76980039D02*
X113871530Y-76980039D01*
X113471530Y-77360991D02*
X113871530Y-77360991D01*
X113490578Y-77360991D02*
X113471530Y-77322896D01*
X113471530Y-77322896D02*
X113471530Y-77246705D01*
X113471530Y-77246705D02*
X113490578Y-77208610D01*
X113490578Y-77208610D02*
X113509625Y-77189563D01*
X113509625Y-77189563D02*
X113547720Y-77170515D01*
X113547720Y-77170515D02*
X113662006Y-77170515D01*
X113662006Y-77170515D02*
X113700101Y-77189563D01*
X113700101Y-77189563D02*
X113719149Y-77208610D01*
X113719149Y-77208610D02*
X113738197Y-77246705D01*
X113738197Y-77246705D02*
X113738197Y-77322896D01*
X113738197Y-77322896D02*
X113719149Y-77360991D01*
X113490578Y-77703849D02*
X113471530Y-77665753D01*
X113471530Y-77665753D02*
X113471530Y-77589563D01*
X113471530Y-77589563D02*
X113490578Y-77551468D01*
X113490578Y-77551468D02*
X113528673Y-77532420D01*
X113528673Y-77532420D02*
X113681054Y-77532420D01*
X113681054Y-77532420D02*
X113719149Y-77551468D01*
X113719149Y-77551468D02*
X113738197Y-77589563D01*
X113738197Y-77589563D02*
X113738197Y-77665753D01*
X113738197Y-77665753D02*
X113719149Y-77703849D01*
X113719149Y-77703849D02*
X113681054Y-77722896D01*
X113681054Y-77722896D02*
X113642958Y-77722896D01*
X113642958Y-77722896D02*
X113604863Y-77532420D01*
X113471530Y-77894325D02*
X113738197Y-77894325D01*
X113662006Y-77894325D02*
X113700101Y-77913372D01*
X113700101Y-77913372D02*
X113719149Y-77932420D01*
X113719149Y-77932420D02*
X113738197Y-77970515D01*
X113738197Y-77970515D02*
X113738197Y-78008610D01*
X113189457Y-74313376D02*
X113208504Y-74332424D01*
X113208504Y-74332424D02*
X113227552Y-74370519D01*
X113227552Y-74370519D02*
X113227552Y-74465757D01*
X113227552Y-74465757D02*
X113208504Y-74503852D01*
X113208504Y-74503852D02*
X113189457Y-74522900D01*
X113189457Y-74522900D02*
X113151361Y-74541947D01*
X113151361Y-74541947D02*
X113113266Y-74541947D01*
X113113266Y-74541947D02*
X113056123Y-74522900D01*
X113056123Y-74522900D02*
X112827552Y-74294328D01*
X112827552Y-74294328D02*
X112827552Y-74541947D01*
X113227552Y-74789566D02*
X113227552Y-74827661D01*
X113227552Y-74827661D02*
X113208504Y-74865757D01*
X113208504Y-74865757D02*
X113189457Y-74884804D01*
X113189457Y-74884804D02*
X113151361Y-74903852D01*
X113151361Y-74903852D02*
X113075171Y-74922899D01*
X113075171Y-74922899D02*
X112979933Y-74922899D01*
X112979933Y-74922899D02*
X112903742Y-74903852D01*
X112903742Y-74903852D02*
X112865647Y-74884804D01*
X112865647Y-74884804D02*
X112846600Y-74865757D01*
X112846600Y-74865757D02*
X112827552Y-74827661D01*
X112827552Y-74827661D02*
X112827552Y-74789566D01*
X112827552Y-74789566D02*
X112846600Y-74751471D01*
X112846600Y-74751471D02*
X112865647Y-74732423D01*
X112865647Y-74732423D02*
X112903742Y-74713376D01*
X112903742Y-74713376D02*
X112979933Y-74694328D01*
X112979933Y-74694328D02*
X113075171Y-74694328D01*
X113075171Y-74694328D02*
X113151361Y-74713376D01*
X113151361Y-74713376D02*
X113189457Y-74732423D01*
X113189457Y-74732423D02*
X113208504Y-74751471D01*
X113208504Y-74751471D02*
X113227552Y-74789566D01*
X113189457Y-75075280D02*
X113208504Y-75094328D01*
X113208504Y-75094328D02*
X113227552Y-75132423D01*
X113227552Y-75132423D02*
X113227552Y-75227661D01*
X113227552Y-75227661D02*
X113208504Y-75265756D01*
X113208504Y-75265756D02*
X113189457Y-75284804D01*
X113189457Y-75284804D02*
X113151361Y-75303851D01*
X113151361Y-75303851D02*
X113113266Y-75303851D01*
X113113266Y-75303851D02*
X113056123Y-75284804D01*
X113056123Y-75284804D02*
X112827552Y-75056232D01*
X112827552Y-75056232D02*
X112827552Y-75303851D01*
X113227552Y-75646708D02*
X113227552Y-75570518D01*
X113227552Y-75570518D02*
X113208504Y-75532422D01*
X113208504Y-75532422D02*
X113189457Y-75513375D01*
X113189457Y-75513375D02*
X113132314Y-75475280D01*
X113132314Y-75475280D02*
X113056123Y-75456232D01*
X113056123Y-75456232D02*
X112903742Y-75456232D01*
X112903742Y-75456232D02*
X112865647Y-75475280D01*
X112865647Y-75475280D02*
X112846600Y-75494327D01*
X112846600Y-75494327D02*
X112827552Y-75532422D01*
X112827552Y-75532422D02*
X112827552Y-75608613D01*
X112827552Y-75608613D02*
X112846600Y-75646708D01*
X112846600Y-75646708D02*
X112865647Y-75665756D01*
X112865647Y-75665756D02*
X112903742Y-75684803D01*
X112903742Y-75684803D02*
X112998980Y-75684803D01*
X112998980Y-75684803D02*
X113037076Y-75665756D01*
X113037076Y-75665756D02*
X113056123Y-75646708D01*
X113056123Y-75646708D02*
X113075171Y-75608613D01*
X113075171Y-75608613D02*
X113075171Y-75532422D01*
X113075171Y-75532422D02*
X113056123Y-75494327D01*
X113056123Y-75494327D02*
X113037076Y-75475280D01*
X113037076Y-75475280D02*
X112998980Y-75456232D01*
X113227552Y-75932422D02*
X113227552Y-75970517D01*
X113227552Y-75970517D02*
X113208504Y-76008613D01*
X113208504Y-76008613D02*
X113189457Y-76027660D01*
X113189457Y-76027660D02*
X113151361Y-76046708D01*
X113151361Y-76046708D02*
X113075171Y-76065755D01*
X113075171Y-76065755D02*
X112979933Y-76065755D01*
X112979933Y-76065755D02*
X112903742Y-76046708D01*
X112903742Y-76046708D02*
X112865647Y-76027660D01*
X112865647Y-76027660D02*
X112846600Y-76008613D01*
X112846600Y-76008613D02*
X112827552Y-75970517D01*
X112827552Y-75970517D02*
X112827552Y-75932422D01*
X112827552Y-75932422D02*
X112846600Y-75894327D01*
X112846600Y-75894327D02*
X112865647Y-75875279D01*
X112865647Y-75875279D02*
X112903742Y-75856232D01*
X112903742Y-75856232D02*
X112979933Y-75837184D01*
X112979933Y-75837184D02*
X113075171Y-75837184D01*
X113075171Y-75837184D02*
X113151361Y-75856232D01*
X113151361Y-75856232D02*
X113189457Y-75875279D01*
X113189457Y-75875279D02*
X113208504Y-75894327D01*
X113208504Y-75894327D02*
X113227552Y-75932422D01*
X113227552Y-76199088D02*
X113227552Y-76446707D01*
X113227552Y-76446707D02*
X113075171Y-76313374D01*
X113075171Y-76313374D02*
X113075171Y-76370517D01*
X113075171Y-76370517D02*
X113056123Y-76408612D01*
X113056123Y-76408612D02*
X113037076Y-76427660D01*
X113037076Y-76427660D02*
X112998980Y-76446707D01*
X112998980Y-76446707D02*
X112903742Y-76446707D01*
X112903742Y-76446707D02*
X112865647Y-76427660D01*
X112865647Y-76427660D02*
X112846600Y-76408612D01*
X112846600Y-76408612D02*
X112827552Y-76370517D01*
X112827552Y-76370517D02*
X112827552Y-76256231D01*
X112827552Y-76256231D02*
X112846600Y-76218136D01*
X112846600Y-76218136D02*
X112865647Y-76199088D01*
X113227552Y-76694326D02*
X113227552Y-76732421D01*
X113227552Y-76732421D02*
X113208504Y-76770517D01*
X113208504Y-76770517D02*
X113189457Y-76789564D01*
X113189457Y-76789564D02*
X113151361Y-76808612D01*
X113151361Y-76808612D02*
X113075171Y-76827659D01*
X113075171Y-76827659D02*
X112979933Y-76827659D01*
X112979933Y-76827659D02*
X112903742Y-76808612D01*
X112903742Y-76808612D02*
X112865647Y-76789564D01*
X112865647Y-76789564D02*
X112846600Y-76770517D01*
X112846600Y-76770517D02*
X112827552Y-76732421D01*
X112827552Y-76732421D02*
X112827552Y-76694326D01*
X112827552Y-76694326D02*
X112846600Y-76656231D01*
X112846600Y-76656231D02*
X112865647Y-76637183D01*
X112865647Y-76637183D02*
X112903742Y-76618136D01*
X112903742Y-76618136D02*
X112979933Y-76599088D01*
X112979933Y-76599088D02*
X113075171Y-76599088D01*
X113075171Y-76599088D02*
X113151361Y-76618136D01*
X113151361Y-76618136D02*
X113189457Y-76637183D01*
X113189457Y-76637183D02*
X113208504Y-76656231D01*
X113208504Y-76656231D02*
X113227552Y-76694326D01*
X113227552Y-77189564D02*
X113227552Y-76999088D01*
X113227552Y-76999088D02*
X113037076Y-76980040D01*
X113037076Y-76980040D02*
X113056123Y-76999088D01*
X113056123Y-76999088D02*
X113075171Y-77037183D01*
X113075171Y-77037183D02*
X113075171Y-77132421D01*
X113075171Y-77132421D02*
X113056123Y-77170516D01*
X113056123Y-77170516D02*
X113037076Y-77189564D01*
X113037076Y-77189564D02*
X112998980Y-77208611D01*
X112998980Y-77208611D02*
X112903742Y-77208611D01*
X112903742Y-77208611D02*
X112865647Y-77189564D01*
X112865647Y-77189564D02*
X112846600Y-77170516D01*
X112846600Y-77170516D02*
X112827552Y-77132421D01*
X112827552Y-77132421D02*
X112827552Y-77037183D01*
X112827552Y-77037183D02*
X112846600Y-76999088D01*
X112846600Y-76999088D02*
X112865647Y-76980040D01*
X113227552Y-77456230D02*
X113227552Y-77494325D01*
X113227552Y-77494325D02*
X113208504Y-77532421D01*
X113208504Y-77532421D02*
X113189457Y-77551468D01*
X113189457Y-77551468D02*
X113151361Y-77570516D01*
X113151361Y-77570516D02*
X113075171Y-77589563D01*
X113075171Y-77589563D02*
X112979933Y-77589563D01*
X112979933Y-77589563D02*
X112903742Y-77570516D01*
X112903742Y-77570516D02*
X112865647Y-77551468D01*
X112865647Y-77551468D02*
X112846600Y-77532421D01*
X112846600Y-77532421D02*
X112827552Y-77494325D01*
X112827552Y-77494325D02*
X112827552Y-77456230D01*
X112827552Y-77456230D02*
X112846600Y-77418135D01*
X112846600Y-77418135D02*
X112865647Y-77399087D01*
X112865647Y-77399087D02*
X112903742Y-77380040D01*
X112903742Y-77380040D02*
X112979933Y-77360992D01*
X112979933Y-77360992D02*
X113075171Y-77360992D01*
X113075171Y-77360992D02*
X113151361Y-77380040D01*
X113151361Y-77380040D02*
X113189457Y-77399087D01*
X113189457Y-77399087D02*
X113208504Y-77418135D01*
X113208504Y-77418135D02*
X113227552Y-77456230D01*
X113189457Y-77741944D02*
X113208504Y-77760992D01*
X113208504Y-77760992D02*
X113227552Y-77799087D01*
X113227552Y-77799087D02*
X113227552Y-77894325D01*
X113227552Y-77894325D02*
X113208504Y-77932420D01*
X113208504Y-77932420D02*
X113189457Y-77951468D01*
X113189457Y-77951468D02*
X113151361Y-77970515D01*
X113151361Y-77970515D02*
X113113266Y-77970515D01*
X113113266Y-77970515D02*
X113056123Y-77951468D01*
X113056123Y-77951468D02*
X112827552Y-77722896D01*
X112827552Y-77722896D02*
X112827552Y-77970515D01*
D11*
X102690752Y-77416819D02*
X102214562Y-77416819D01*
X102214562Y-77416819D02*
X102214562Y-76416819D01*
X103024086Y-76893009D02*
X103357419Y-76893009D01*
X103500276Y-77416819D02*
X103024086Y-77416819D01*
X103024086Y-77416819D02*
X103024086Y-76416819D01*
X103024086Y-76416819D02*
X103500276Y-76416819D01*
X103928848Y-77416819D02*
X103928848Y-76416819D01*
X103928848Y-76416819D02*
X104166943Y-76416819D01*
X104166943Y-76416819D02*
X104309800Y-76464438D01*
X104309800Y-76464438D02*
X104405038Y-76559676D01*
X104405038Y-76559676D02*
X104452657Y-76654914D01*
X104452657Y-76654914D02*
X104500276Y-76845390D01*
X104500276Y-76845390D02*
X104500276Y-76988247D01*
X104500276Y-76988247D02*
X104452657Y-77178723D01*
X104452657Y-77178723D02*
X104405038Y-77273961D01*
X104405038Y-77273961D02*
X104309800Y-77369200D01*
X104309800Y-77369200D02*
X104166943Y-77416819D01*
X104166943Y-77416819D02*
X103928848Y-77416819D01*
X105452657Y-77416819D02*
X104881229Y-77416819D01*
X105166943Y-77416819D02*
X105166943Y-76416819D01*
X105166943Y-76416819D02*
X105071705Y-76559676D01*
X105071705Y-76559676D02*
X104976467Y-76654914D01*
X104976467Y-76654914D02*
X104881229Y-76702533D01*
D12*
%TO.C,J1*%
X102144000Y-69672000D02*
X102144000Y-73922000D01*
X102144000Y-73922000D02*
X103164000Y-73922000D01*
X103164000Y-72322000D02*
X104444000Y-72322000D01*
X103164000Y-73922000D02*
X103164000Y-72322000D01*
X111964000Y-72322000D02*
X111964000Y-75212000D01*
X112544000Y-66102000D02*
X103864000Y-66102000D01*
X113244000Y-72322000D02*
X111964000Y-72322000D01*
X113244000Y-73922000D02*
X113244000Y-72322000D01*
X114264000Y-69672000D02*
X114264000Y-73922000D01*
X114264000Y-73922000D02*
X113244000Y-73922000D01*
%TD*%
M02*
