%TF.GenerationSoftware,KiCad,Pcbnew,9.0.6*%
%TF.CreationDate,2026-02-07T02:30:03+01:00*%
%TF.ProjectId,KinderLight,4b696e64-6572-44c6-9967-68742e6b6963,rev?*%
%TF.SameCoordinates,Original*%
%TF.FileFunction,Legend,Bot*%
%TF.FilePolarity,Positive*%
%FSLAX46Y46*%
G04 Gerber Fmt 4.6, Leading zero omitted, Abs format (unit mm)*
G04 Created by KiCad (PCBNEW 9.0.6) date 2026-02-07 02:30:03*
%MOMM*%
%LPD*%
G01*
G04 APERTURE LIST*
%ADD10C,0.100000*%
G04 APERTURE END LIST*
D10*
X110466115Y-78471466D02*
X109704211Y-78471466D01*
X110085163Y-78852419D02*
X110085163Y-78090514D01*
X109323258Y-77852419D02*
X108704211Y-77852419D01*
X108704211Y-77852419D02*
X109037544Y-78233371D01*
X109037544Y-78233371D02*
X108894687Y-78233371D01*
X108894687Y-78233371D02*
X108799449Y-78280990D01*
X108799449Y-78280990D02*
X108751830Y-78328609D01*
X108751830Y-78328609D02*
X108704211Y-78423847D01*
X108704211Y-78423847D02*
X108704211Y-78661942D01*
X108704211Y-78661942D02*
X108751830Y-78757180D01*
X108751830Y-78757180D02*
X108799449Y-78804800D01*
X108799449Y-78804800D02*
X108894687Y-78852419D01*
X108894687Y-78852419D02*
X109180401Y-78852419D01*
X109180401Y-78852419D02*
X109275639Y-78804800D01*
X109275639Y-78804800D02*
X109323258Y-78757180D01*
X108275639Y-78757180D02*
X108228020Y-78804800D01*
X108228020Y-78804800D02*
X108275639Y-78852419D01*
X108275639Y-78852419D02*
X108323258Y-78804800D01*
X108323258Y-78804800D02*
X108275639Y-78757180D01*
X108275639Y-78757180D02*
X108275639Y-78852419D01*
X107894687Y-77852419D02*
X107275640Y-77852419D01*
X107275640Y-77852419D02*
X107608973Y-78233371D01*
X107608973Y-78233371D02*
X107466116Y-78233371D01*
X107466116Y-78233371D02*
X107370878Y-78280990D01*
X107370878Y-78280990D02*
X107323259Y-78328609D01*
X107323259Y-78328609D02*
X107275640Y-78423847D01*
X107275640Y-78423847D02*
X107275640Y-78661942D01*
X107275640Y-78661942D02*
X107323259Y-78757180D01*
X107323259Y-78757180D02*
X107370878Y-78804800D01*
X107370878Y-78804800D02*
X107466116Y-78852419D01*
X107466116Y-78852419D02*
X107751830Y-78852419D01*
X107751830Y-78852419D02*
X107847068Y-78804800D01*
X107847068Y-78804800D02*
X107894687Y-78757180D01*
X106989925Y-77852419D02*
X106656592Y-78852419D01*
X106656592Y-78852419D02*
X106323259Y-77852419D01*
X89682782Y-73701260D02*
X89102211Y-73701260D01*
X89392496Y-73991545D02*
X89392496Y-73410974D01*
X88376496Y-73229545D02*
X88739353Y-73229545D01*
X88739353Y-73229545D02*
X88775639Y-73592402D01*
X88775639Y-73592402D02*
X88739353Y-73556117D01*
X88739353Y-73556117D02*
X88666782Y-73519831D01*
X88666782Y-73519831D02*
X88485353Y-73519831D01*
X88485353Y-73519831D02*
X88412782Y-73556117D01*
X88412782Y-73556117D02*
X88376496Y-73592402D01*
X88376496Y-73592402D02*
X88340210Y-73664974D01*
X88340210Y-73664974D02*
X88340210Y-73846402D01*
X88340210Y-73846402D02*
X88376496Y-73918974D01*
X88376496Y-73918974D02*
X88412782Y-73955260D01*
X88412782Y-73955260D02*
X88485353Y-73991545D01*
X88485353Y-73991545D02*
X88666782Y-73991545D01*
X88666782Y-73991545D02*
X88739353Y-73955260D01*
X88739353Y-73955260D02*
X88775639Y-73918974D01*
X88122496Y-73229545D02*
X87868496Y-73991545D01*
X87868496Y-73991545D02*
X87614496Y-73229545D01*
X88707353Y-76491545D02*
X88961353Y-76128688D01*
X89142782Y-76491545D02*
X89142782Y-75729545D01*
X89142782Y-75729545D02*
X88852496Y-75729545D01*
X88852496Y-75729545D02*
X88779925Y-75765831D01*
X88779925Y-75765831D02*
X88743639Y-75802117D01*
X88743639Y-75802117D02*
X88707353Y-75874688D01*
X88707353Y-75874688D02*
X88707353Y-75983545D01*
X88707353Y-75983545D02*
X88743639Y-76056117D01*
X88743639Y-76056117D02*
X88779925Y-76092402D01*
X88779925Y-76092402D02*
X88852496Y-76128688D01*
X88852496Y-76128688D02*
X89142782Y-76128688D01*
X88380782Y-76092402D02*
X88126782Y-76092402D01*
X88017925Y-76491545D02*
X88380782Y-76491545D01*
X88380782Y-76491545D02*
X88380782Y-75729545D01*
X88380782Y-75729545D02*
X88017925Y-75729545D01*
X87691353Y-76491545D02*
X87691353Y-75729545D01*
X87691353Y-75729545D02*
X87509924Y-75729545D01*
X87509924Y-75729545D02*
X87401067Y-75765831D01*
X87401067Y-75765831D02*
X87328496Y-75838402D01*
X87328496Y-75838402D02*
X87292210Y-75910974D01*
X87292210Y-75910974D02*
X87255924Y-76056117D01*
X87255924Y-76056117D02*
X87255924Y-76164974D01*
X87255924Y-76164974D02*
X87292210Y-76310117D01*
X87292210Y-76310117D02*
X87328496Y-76382688D01*
X87328496Y-76382688D02*
X87401067Y-76455260D01*
X87401067Y-76455260D02*
X87509924Y-76491545D01*
X87509924Y-76491545D02*
X87691353Y-76491545D01*
X113446115Y-71871466D02*
X112684211Y-71871466D01*
X113065163Y-72252419D02*
X113065163Y-71490514D01*
X111731830Y-71252419D02*
X112208020Y-71252419D01*
X112208020Y-71252419D02*
X112255639Y-71728609D01*
X112255639Y-71728609D02*
X112208020Y-71680990D01*
X112208020Y-71680990D02*
X112112782Y-71633371D01*
X112112782Y-71633371D02*
X111874687Y-71633371D01*
X111874687Y-71633371D02*
X111779449Y-71680990D01*
X111779449Y-71680990D02*
X111731830Y-71728609D01*
X111731830Y-71728609D02*
X111684211Y-71823847D01*
X111684211Y-71823847D02*
X111684211Y-72061942D01*
X111684211Y-72061942D02*
X111731830Y-72157180D01*
X111731830Y-72157180D02*
X111779449Y-72204800D01*
X111779449Y-72204800D02*
X111874687Y-72252419D01*
X111874687Y-72252419D02*
X112112782Y-72252419D01*
X112112782Y-72252419D02*
X112208020Y-72204800D01*
X112208020Y-72204800D02*
X112255639Y-72157180D01*
X111398496Y-71252419D02*
X111065163Y-72252419D01*
X111065163Y-72252419D02*
X110731830Y-71252419D01*
X133792306Y-82740038D02*
X133887544Y-82692419D01*
X133887544Y-82692419D02*
X134030401Y-82692419D01*
X134030401Y-82692419D02*
X134173258Y-82740038D01*
X134173258Y-82740038D02*
X134268496Y-82835276D01*
X134268496Y-82835276D02*
X134316115Y-82930514D01*
X134316115Y-82930514D02*
X134363734Y-83120990D01*
X134363734Y-83120990D02*
X134363734Y-83263847D01*
X134363734Y-83263847D02*
X134316115Y-83454323D01*
X134316115Y-83454323D02*
X134268496Y-83549561D01*
X134268496Y-83549561D02*
X134173258Y-83644800D01*
X134173258Y-83644800D02*
X134030401Y-83692419D01*
X134030401Y-83692419D02*
X133935163Y-83692419D01*
X133935163Y-83692419D02*
X133792306Y-83644800D01*
X133792306Y-83644800D02*
X133744687Y-83597180D01*
X133744687Y-83597180D02*
X133744687Y-83263847D01*
X133744687Y-83263847D02*
X133935163Y-83263847D01*
X133316115Y-83692419D02*
X133316115Y-82692419D01*
X133316115Y-82692419D02*
X132744687Y-83692419D01*
X132744687Y-83692419D02*
X132744687Y-82692419D01*
X132268496Y-83692419D02*
X132268496Y-82692419D01*
X132268496Y-82692419D02*
X132030401Y-82692419D01*
X132030401Y-82692419D02*
X131887544Y-82740038D01*
X131887544Y-82740038D02*
X131792306Y-82835276D01*
X131792306Y-82835276D02*
X131744687Y-82930514D01*
X131744687Y-82930514D02*
X131697068Y-83120990D01*
X131697068Y-83120990D02*
X131697068Y-83263847D01*
X131697068Y-83263847D02*
X131744687Y-83454323D01*
X131744687Y-83454323D02*
X131792306Y-83549561D01*
X131792306Y-83549561D02*
X131887544Y-83644800D01*
X131887544Y-83644800D02*
X132030401Y-83692419D01*
X132030401Y-83692419D02*
X132268496Y-83692419D01*
X89238782Y-81292402D02*
X89129925Y-81328688D01*
X89129925Y-81328688D02*
X89093639Y-81364974D01*
X89093639Y-81364974D02*
X89057353Y-81437545D01*
X89057353Y-81437545D02*
X89057353Y-81546402D01*
X89057353Y-81546402D02*
X89093639Y-81618974D01*
X89093639Y-81618974D02*
X89129925Y-81655260D01*
X89129925Y-81655260D02*
X89202496Y-81691545D01*
X89202496Y-81691545D02*
X89492782Y-81691545D01*
X89492782Y-81691545D02*
X89492782Y-80929545D01*
X89492782Y-80929545D02*
X89238782Y-80929545D01*
X89238782Y-80929545D02*
X89166211Y-80965831D01*
X89166211Y-80965831D02*
X89129925Y-81002117D01*
X89129925Y-81002117D02*
X89093639Y-81074688D01*
X89093639Y-81074688D02*
X89093639Y-81147260D01*
X89093639Y-81147260D02*
X89129925Y-81219831D01*
X89129925Y-81219831D02*
X89166211Y-81256117D01*
X89166211Y-81256117D02*
X89238782Y-81292402D01*
X89238782Y-81292402D02*
X89492782Y-81292402D01*
X88367925Y-81691545D02*
X88730782Y-81691545D01*
X88730782Y-81691545D02*
X88730782Y-80929545D01*
X88113925Y-80929545D02*
X88113925Y-81546402D01*
X88113925Y-81546402D02*
X88077639Y-81618974D01*
X88077639Y-81618974D02*
X88041354Y-81655260D01*
X88041354Y-81655260D02*
X87968782Y-81691545D01*
X87968782Y-81691545D02*
X87823639Y-81691545D01*
X87823639Y-81691545D02*
X87751068Y-81655260D01*
X87751068Y-81655260D02*
X87714782Y-81618974D01*
X87714782Y-81618974D02*
X87678496Y-81546402D01*
X87678496Y-81546402D02*
X87678496Y-80929545D01*
X87315639Y-81292402D02*
X87061639Y-81292402D01*
X86952782Y-81691545D02*
X87315639Y-81691545D01*
X87315639Y-81691545D02*
X87315639Y-80929545D01*
X87315639Y-80929545D02*
X86952782Y-80929545D01*
X94089068Y-94255260D02*
X93980211Y-94291545D01*
X93980211Y-94291545D02*
X93798782Y-94291545D01*
X93798782Y-94291545D02*
X93726211Y-94255260D01*
X93726211Y-94255260D02*
X93689925Y-94218974D01*
X93689925Y-94218974D02*
X93653639Y-94146402D01*
X93653639Y-94146402D02*
X93653639Y-94073831D01*
X93653639Y-94073831D02*
X93689925Y-94001260D01*
X93689925Y-94001260D02*
X93726211Y-93964974D01*
X93726211Y-93964974D02*
X93798782Y-93928688D01*
X93798782Y-93928688D02*
X93943925Y-93892402D01*
X93943925Y-93892402D02*
X94016496Y-93856117D01*
X94016496Y-93856117D02*
X94052782Y-93819831D01*
X94052782Y-93819831D02*
X94089068Y-93747260D01*
X94089068Y-93747260D02*
X94089068Y-93674688D01*
X94089068Y-93674688D02*
X94052782Y-93602117D01*
X94052782Y-93602117D02*
X94016496Y-93565831D01*
X94016496Y-93565831D02*
X93943925Y-93529545D01*
X93943925Y-93529545D02*
X93762496Y-93529545D01*
X93762496Y-93529545D02*
X93653639Y-93565831D01*
X93327068Y-94291545D02*
X93327068Y-93529545D01*
X93327068Y-93529545D02*
X93145639Y-93529545D01*
X93145639Y-93529545D02*
X93036782Y-93565831D01*
X93036782Y-93565831D02*
X92964211Y-93638402D01*
X92964211Y-93638402D02*
X92927925Y-93710974D01*
X92927925Y-93710974D02*
X92891639Y-93856117D01*
X92891639Y-93856117D02*
X92891639Y-93964974D01*
X92891639Y-93964974D02*
X92927925Y-94110117D01*
X92927925Y-94110117D02*
X92964211Y-94182688D01*
X92964211Y-94182688D02*
X93036782Y-94255260D01*
X93036782Y-94255260D02*
X93145639Y-94291545D01*
X93145639Y-94291545D02*
X93327068Y-94291545D01*
X92601354Y-94073831D02*
X92238497Y-94073831D01*
X92673925Y-94291545D02*
X92419925Y-93529545D01*
X92419925Y-93529545D02*
X92165925Y-94291545D01*
X89453639Y-78445831D02*
X89526211Y-78409545D01*
X89526211Y-78409545D02*
X89635068Y-78409545D01*
X89635068Y-78409545D02*
X89743925Y-78445831D01*
X89743925Y-78445831D02*
X89816496Y-78518402D01*
X89816496Y-78518402D02*
X89852782Y-78590974D01*
X89852782Y-78590974D02*
X89889068Y-78736117D01*
X89889068Y-78736117D02*
X89889068Y-78844974D01*
X89889068Y-78844974D02*
X89852782Y-78990117D01*
X89852782Y-78990117D02*
X89816496Y-79062688D01*
X89816496Y-79062688D02*
X89743925Y-79135260D01*
X89743925Y-79135260D02*
X89635068Y-79171545D01*
X89635068Y-79171545D02*
X89562496Y-79171545D01*
X89562496Y-79171545D02*
X89453639Y-79135260D01*
X89453639Y-79135260D02*
X89417353Y-79098974D01*
X89417353Y-79098974D02*
X89417353Y-78844974D01*
X89417353Y-78844974D02*
X89562496Y-78844974D01*
X88655353Y-79171545D02*
X88909353Y-78808688D01*
X89090782Y-79171545D02*
X89090782Y-78409545D01*
X89090782Y-78409545D02*
X88800496Y-78409545D01*
X88800496Y-78409545D02*
X88727925Y-78445831D01*
X88727925Y-78445831D02*
X88691639Y-78482117D01*
X88691639Y-78482117D02*
X88655353Y-78554688D01*
X88655353Y-78554688D02*
X88655353Y-78663545D01*
X88655353Y-78663545D02*
X88691639Y-78736117D01*
X88691639Y-78736117D02*
X88727925Y-78772402D01*
X88727925Y-78772402D02*
X88800496Y-78808688D01*
X88800496Y-78808688D02*
X89090782Y-78808688D01*
X88328782Y-78772402D02*
X88074782Y-78772402D01*
X87965925Y-79171545D02*
X88328782Y-79171545D01*
X88328782Y-79171545D02*
X88328782Y-78409545D01*
X88328782Y-78409545D02*
X87965925Y-78409545D01*
X87639353Y-78772402D02*
X87385353Y-78772402D01*
X87276496Y-79171545D02*
X87639353Y-79171545D01*
X87639353Y-79171545D02*
X87639353Y-78409545D01*
X87639353Y-78409545D02*
X87276496Y-78409545D01*
X86949924Y-79171545D02*
X86949924Y-78409545D01*
X86949924Y-78409545D02*
X86514495Y-79171545D01*
X86514495Y-79171545D02*
X86514495Y-78409545D01*
X89712782Y-86511260D02*
X89132211Y-86511260D01*
X89422496Y-86801545D02*
X89422496Y-86220974D01*
X88841924Y-86039545D02*
X88370210Y-86039545D01*
X88370210Y-86039545D02*
X88624210Y-86329831D01*
X88624210Y-86329831D02*
X88515353Y-86329831D01*
X88515353Y-86329831D02*
X88442782Y-86366117D01*
X88442782Y-86366117D02*
X88406496Y-86402402D01*
X88406496Y-86402402D02*
X88370210Y-86474974D01*
X88370210Y-86474974D02*
X88370210Y-86656402D01*
X88370210Y-86656402D02*
X88406496Y-86728974D01*
X88406496Y-86728974D02*
X88442782Y-86765260D01*
X88442782Y-86765260D02*
X88515353Y-86801545D01*
X88515353Y-86801545D02*
X88733067Y-86801545D01*
X88733067Y-86801545D02*
X88805639Y-86765260D01*
X88805639Y-86765260D02*
X88841924Y-86728974D01*
X88043639Y-86728974D02*
X88007353Y-86765260D01*
X88007353Y-86765260D02*
X88043639Y-86801545D01*
X88043639Y-86801545D02*
X88079925Y-86765260D01*
X88079925Y-86765260D02*
X88043639Y-86728974D01*
X88043639Y-86728974D02*
X88043639Y-86801545D01*
X87753353Y-86039545D02*
X87281639Y-86039545D01*
X87281639Y-86039545D02*
X87535639Y-86329831D01*
X87535639Y-86329831D02*
X87426782Y-86329831D01*
X87426782Y-86329831D02*
X87354211Y-86366117D01*
X87354211Y-86366117D02*
X87317925Y-86402402D01*
X87317925Y-86402402D02*
X87281639Y-86474974D01*
X87281639Y-86474974D02*
X87281639Y-86656402D01*
X87281639Y-86656402D02*
X87317925Y-86728974D01*
X87317925Y-86728974D02*
X87354211Y-86765260D01*
X87354211Y-86765260D02*
X87426782Y-86801545D01*
X87426782Y-86801545D02*
X87644496Y-86801545D01*
X87644496Y-86801545D02*
X87717068Y-86765260D01*
X87717068Y-86765260D02*
X87753353Y-86728974D01*
X87063925Y-86039545D02*
X86809925Y-86801545D01*
X86809925Y-86801545D02*
X86555925Y-86039545D01*
X94019068Y-91635260D02*
X93910211Y-91671545D01*
X93910211Y-91671545D02*
X93728782Y-91671545D01*
X93728782Y-91671545D02*
X93656211Y-91635260D01*
X93656211Y-91635260D02*
X93619925Y-91598974D01*
X93619925Y-91598974D02*
X93583639Y-91526402D01*
X93583639Y-91526402D02*
X93583639Y-91453831D01*
X93583639Y-91453831D02*
X93619925Y-91381260D01*
X93619925Y-91381260D02*
X93656211Y-91344974D01*
X93656211Y-91344974D02*
X93728782Y-91308688D01*
X93728782Y-91308688D02*
X93873925Y-91272402D01*
X93873925Y-91272402D02*
X93946496Y-91236117D01*
X93946496Y-91236117D02*
X93982782Y-91199831D01*
X93982782Y-91199831D02*
X94019068Y-91127260D01*
X94019068Y-91127260D02*
X94019068Y-91054688D01*
X94019068Y-91054688D02*
X93982782Y-90982117D01*
X93982782Y-90982117D02*
X93946496Y-90945831D01*
X93946496Y-90945831D02*
X93873925Y-90909545D01*
X93873925Y-90909545D02*
X93692496Y-90909545D01*
X93692496Y-90909545D02*
X93583639Y-90945831D01*
X92821639Y-91598974D02*
X92857925Y-91635260D01*
X92857925Y-91635260D02*
X92966782Y-91671545D01*
X92966782Y-91671545D02*
X93039354Y-91671545D01*
X93039354Y-91671545D02*
X93148211Y-91635260D01*
X93148211Y-91635260D02*
X93220782Y-91562688D01*
X93220782Y-91562688D02*
X93257068Y-91490117D01*
X93257068Y-91490117D02*
X93293354Y-91344974D01*
X93293354Y-91344974D02*
X93293354Y-91236117D01*
X93293354Y-91236117D02*
X93257068Y-91090974D01*
X93257068Y-91090974D02*
X93220782Y-91018402D01*
X93220782Y-91018402D02*
X93148211Y-90945831D01*
X93148211Y-90945831D02*
X93039354Y-90909545D01*
X93039354Y-90909545D02*
X92966782Y-90909545D01*
X92966782Y-90909545D02*
X92857925Y-90945831D01*
X92857925Y-90945831D02*
X92821639Y-90982117D01*
X92132211Y-91671545D02*
X92495068Y-91671545D01*
X92495068Y-91671545D02*
X92495068Y-90909545D01*
X109502306Y-75710038D02*
X109597544Y-75662419D01*
X109597544Y-75662419D02*
X109740401Y-75662419D01*
X109740401Y-75662419D02*
X109883258Y-75710038D01*
X109883258Y-75710038D02*
X109978496Y-75805276D01*
X109978496Y-75805276D02*
X110026115Y-75900514D01*
X110026115Y-75900514D02*
X110073734Y-76090990D01*
X110073734Y-76090990D02*
X110073734Y-76233847D01*
X110073734Y-76233847D02*
X110026115Y-76424323D01*
X110026115Y-76424323D02*
X109978496Y-76519561D01*
X109978496Y-76519561D02*
X109883258Y-76614800D01*
X109883258Y-76614800D02*
X109740401Y-76662419D01*
X109740401Y-76662419D02*
X109645163Y-76662419D01*
X109645163Y-76662419D02*
X109502306Y-76614800D01*
X109502306Y-76614800D02*
X109454687Y-76567180D01*
X109454687Y-76567180D02*
X109454687Y-76233847D01*
X109454687Y-76233847D02*
X109645163Y-76233847D01*
X109026115Y-76662419D02*
X109026115Y-75662419D01*
X109026115Y-75662419D02*
X108454687Y-76662419D01*
X108454687Y-76662419D02*
X108454687Y-75662419D01*
X107978496Y-76662419D02*
X107978496Y-75662419D01*
X107978496Y-75662419D02*
X107740401Y-75662419D01*
X107740401Y-75662419D02*
X107597544Y-75710038D01*
X107597544Y-75710038D02*
X107502306Y-75805276D01*
X107502306Y-75805276D02*
X107454687Y-75900514D01*
X107454687Y-75900514D02*
X107407068Y-76090990D01*
X107407068Y-76090990D02*
X107407068Y-76233847D01*
X107407068Y-76233847D02*
X107454687Y-76424323D01*
X107454687Y-76424323D02*
X107502306Y-76519561D01*
X107502306Y-76519561D02*
X107597544Y-76614800D01*
X107597544Y-76614800D02*
X107740401Y-76662419D01*
X107740401Y-76662419D02*
X107978496Y-76662419D01*
X88793639Y-88475831D02*
X88866211Y-88439545D01*
X88866211Y-88439545D02*
X88975068Y-88439545D01*
X88975068Y-88439545D02*
X89083925Y-88475831D01*
X89083925Y-88475831D02*
X89156496Y-88548402D01*
X89156496Y-88548402D02*
X89192782Y-88620974D01*
X89192782Y-88620974D02*
X89229068Y-88766117D01*
X89229068Y-88766117D02*
X89229068Y-88874974D01*
X89229068Y-88874974D02*
X89192782Y-89020117D01*
X89192782Y-89020117D02*
X89156496Y-89092688D01*
X89156496Y-89092688D02*
X89083925Y-89165260D01*
X89083925Y-89165260D02*
X88975068Y-89201545D01*
X88975068Y-89201545D02*
X88902496Y-89201545D01*
X88902496Y-89201545D02*
X88793639Y-89165260D01*
X88793639Y-89165260D02*
X88757353Y-89128974D01*
X88757353Y-89128974D02*
X88757353Y-88874974D01*
X88757353Y-88874974D02*
X88902496Y-88874974D01*
X88430782Y-89201545D02*
X88430782Y-88439545D01*
X88430782Y-88439545D02*
X87995353Y-89201545D01*
X87995353Y-89201545D02*
X87995353Y-88439545D01*
X87632496Y-89201545D02*
X87632496Y-88439545D01*
X87632496Y-88439545D02*
X87451067Y-88439545D01*
X87451067Y-88439545D02*
X87342210Y-88475831D01*
X87342210Y-88475831D02*
X87269639Y-88548402D01*
X87269639Y-88548402D02*
X87233353Y-88620974D01*
X87233353Y-88620974D02*
X87197067Y-88766117D01*
X87197067Y-88766117D02*
X87197067Y-88874974D01*
X87197067Y-88874974D02*
X87233353Y-89020117D01*
X87233353Y-89020117D02*
X87269639Y-89092688D01*
X87269639Y-89092688D02*
X87342210Y-89165260D01*
X87342210Y-89165260D02*
X87451067Y-89201545D01*
X87451067Y-89201545D02*
X87632496Y-89201545D01*
X121092306Y-82740038D02*
X121187544Y-82692419D01*
X121187544Y-82692419D02*
X121330401Y-82692419D01*
X121330401Y-82692419D02*
X121473258Y-82740038D01*
X121473258Y-82740038D02*
X121568496Y-82835276D01*
X121568496Y-82835276D02*
X121616115Y-82930514D01*
X121616115Y-82930514D02*
X121663734Y-83120990D01*
X121663734Y-83120990D02*
X121663734Y-83263847D01*
X121663734Y-83263847D02*
X121616115Y-83454323D01*
X121616115Y-83454323D02*
X121568496Y-83549561D01*
X121568496Y-83549561D02*
X121473258Y-83644800D01*
X121473258Y-83644800D02*
X121330401Y-83692419D01*
X121330401Y-83692419D02*
X121235163Y-83692419D01*
X121235163Y-83692419D02*
X121092306Y-83644800D01*
X121092306Y-83644800D02*
X121044687Y-83597180D01*
X121044687Y-83597180D02*
X121044687Y-83263847D01*
X121044687Y-83263847D02*
X121235163Y-83263847D01*
X120616115Y-83692419D02*
X120616115Y-82692419D01*
X120616115Y-82692419D02*
X120044687Y-83692419D01*
X120044687Y-83692419D02*
X120044687Y-82692419D01*
X119568496Y-83692419D02*
X119568496Y-82692419D01*
X119568496Y-82692419D02*
X119330401Y-82692419D01*
X119330401Y-82692419D02*
X119187544Y-82740038D01*
X119187544Y-82740038D02*
X119092306Y-82835276D01*
X119092306Y-82835276D02*
X119044687Y-82930514D01*
X119044687Y-82930514D02*
X118997068Y-83120990D01*
X118997068Y-83120990D02*
X118997068Y-83263847D01*
X118997068Y-83263847D02*
X119044687Y-83454323D01*
X119044687Y-83454323D02*
X119092306Y-83549561D01*
X119092306Y-83549561D02*
X119187544Y-83644800D01*
X119187544Y-83644800D02*
X119330401Y-83692419D01*
X119330401Y-83692419D02*
X119568496Y-83692419D01*
X134030038Y-89907693D02*
X133982419Y-89812455D01*
X133982419Y-89812455D02*
X133982419Y-89669598D01*
X133982419Y-89669598D02*
X134030038Y-89526741D01*
X134030038Y-89526741D02*
X134125276Y-89431503D01*
X134125276Y-89431503D02*
X134220514Y-89383884D01*
X134220514Y-89383884D02*
X134410990Y-89336265D01*
X134410990Y-89336265D02*
X134553847Y-89336265D01*
X134553847Y-89336265D02*
X134744323Y-89383884D01*
X134744323Y-89383884D02*
X134839561Y-89431503D01*
X134839561Y-89431503D02*
X134934800Y-89526741D01*
X134934800Y-89526741D02*
X134982419Y-89669598D01*
X134982419Y-89669598D02*
X134982419Y-89764836D01*
X134982419Y-89764836D02*
X134934800Y-89907693D01*
X134934800Y-89907693D02*
X134887180Y-89955312D01*
X134887180Y-89955312D02*
X134553847Y-89955312D01*
X134553847Y-89955312D02*
X134553847Y-89764836D01*
X134982419Y-90383884D02*
X133982419Y-90383884D01*
X133982419Y-90383884D02*
X134982419Y-90955312D01*
X134982419Y-90955312D02*
X133982419Y-90955312D01*
X134982419Y-91431503D02*
X133982419Y-91431503D01*
X133982419Y-91431503D02*
X133982419Y-91669598D01*
X133982419Y-91669598D02*
X134030038Y-91812455D01*
X134030038Y-91812455D02*
X134125276Y-91907693D01*
X134125276Y-91907693D02*
X134220514Y-91955312D01*
X134220514Y-91955312D02*
X134410990Y-92002931D01*
X134410990Y-92002931D02*
X134553847Y-92002931D01*
X134553847Y-92002931D02*
X134744323Y-91955312D01*
X134744323Y-91955312D02*
X134839561Y-91907693D01*
X134839561Y-91907693D02*
X134934800Y-91812455D01*
X134934800Y-91812455D02*
X134982419Y-91669598D01*
X134982419Y-91669598D02*
X134982419Y-91431503D01*
X127042475Y-93451027D02*
X128042475Y-93784360D01*
X128042475Y-93784360D02*
X127042475Y-94117693D01*
X127947236Y-95022455D02*
X127994856Y-94974836D01*
X127994856Y-94974836D02*
X128042475Y-94831979D01*
X128042475Y-94831979D02*
X128042475Y-94736741D01*
X128042475Y-94736741D02*
X127994856Y-94593884D01*
X127994856Y-94593884D02*
X127899617Y-94498646D01*
X127899617Y-94498646D02*
X127804379Y-94451027D01*
X127804379Y-94451027D02*
X127613903Y-94403408D01*
X127613903Y-94403408D02*
X127471046Y-94403408D01*
X127471046Y-94403408D02*
X127280570Y-94451027D01*
X127280570Y-94451027D02*
X127185332Y-94498646D01*
X127185332Y-94498646D02*
X127090094Y-94593884D01*
X127090094Y-94593884D02*
X127042475Y-94736741D01*
X127042475Y-94736741D02*
X127042475Y-94831979D01*
X127042475Y-94831979D02*
X127090094Y-94974836D01*
X127090094Y-94974836D02*
X127137713Y-95022455D01*
X127947236Y-96022455D02*
X127994856Y-95974836D01*
X127994856Y-95974836D02*
X128042475Y-95831979D01*
X128042475Y-95831979D02*
X128042475Y-95736741D01*
X128042475Y-95736741D02*
X127994856Y-95593884D01*
X127994856Y-95593884D02*
X127899617Y-95498646D01*
X127899617Y-95498646D02*
X127804379Y-95451027D01*
X127804379Y-95451027D02*
X127613903Y-95403408D01*
X127613903Y-95403408D02*
X127471046Y-95403408D01*
X127471046Y-95403408D02*
X127280570Y-95451027D01*
X127280570Y-95451027D02*
X127185332Y-95498646D01*
X127185332Y-95498646D02*
X127090094Y-95593884D01*
X127090094Y-95593884D02*
X127042475Y-95736741D01*
X127042475Y-95736741D02*
X127042475Y-95831979D01*
X127042475Y-95831979D02*
X127090094Y-95974836D01*
X127090094Y-95974836D02*
X127137713Y-96022455D01*
X128652419Y-94070074D02*
X128652419Y-93593884D01*
X128652419Y-93593884D02*
X129128609Y-93546265D01*
X129128609Y-93546265D02*
X129080990Y-93593884D01*
X129080990Y-93593884D02*
X129033371Y-93689122D01*
X129033371Y-93689122D02*
X129033371Y-93927217D01*
X129033371Y-93927217D02*
X129080990Y-94022455D01*
X129080990Y-94022455D02*
X129128609Y-94070074D01*
X129128609Y-94070074D02*
X129223847Y-94117693D01*
X129223847Y-94117693D02*
X129461942Y-94117693D01*
X129461942Y-94117693D02*
X129557180Y-94070074D01*
X129557180Y-94070074D02*
X129604800Y-94022455D01*
X129604800Y-94022455D02*
X129652419Y-93927217D01*
X129652419Y-93927217D02*
X129652419Y-93689122D01*
X129652419Y-93689122D02*
X129604800Y-93593884D01*
X129604800Y-93593884D02*
X129557180Y-93546265D01*
X129271466Y-94546265D02*
X129271466Y-95308170D01*
X128747657Y-95736741D02*
X128700038Y-95784360D01*
X128700038Y-95784360D02*
X128652419Y-95879598D01*
X128652419Y-95879598D02*
X128652419Y-96117693D01*
X128652419Y-96117693D02*
X128700038Y-96212931D01*
X128700038Y-96212931D02*
X128747657Y-96260550D01*
X128747657Y-96260550D02*
X128842895Y-96308169D01*
X128842895Y-96308169D02*
X128938133Y-96308169D01*
X128938133Y-96308169D02*
X129080990Y-96260550D01*
X129080990Y-96260550D02*
X129652419Y-95689122D01*
X129652419Y-95689122D02*
X129652419Y-96308169D01*
X128985752Y-97165312D02*
X129652419Y-97165312D01*
X128604800Y-96927217D02*
X129319085Y-96689122D01*
X129319085Y-96689122D02*
X129319085Y-97308169D01*
X128652419Y-97546265D02*
X129652419Y-97879598D01*
X129652419Y-97879598D02*
X128652419Y-98212931D01*
X121385990Y-94298626D02*
X121434371Y-94274436D01*
X121434371Y-94274436D02*
X121506942Y-94274436D01*
X121506942Y-94274436D02*
X121579514Y-94298626D01*
X121579514Y-94298626D02*
X121627895Y-94347007D01*
X121627895Y-94347007D02*
X121652085Y-94395388D01*
X121652085Y-94395388D02*
X121676276Y-94492150D01*
X121676276Y-94492150D02*
X121676276Y-94564722D01*
X121676276Y-94564722D02*
X121652085Y-94661484D01*
X121652085Y-94661484D02*
X121627895Y-94709865D01*
X121627895Y-94709865D02*
X121579514Y-94758246D01*
X121579514Y-94758246D02*
X121506942Y-94782436D01*
X121506942Y-94782436D02*
X121458561Y-94782436D01*
X121458561Y-94782436D02*
X121385990Y-94758246D01*
X121385990Y-94758246D02*
X121361799Y-94734055D01*
X121361799Y-94734055D02*
X121361799Y-94564722D01*
X121361799Y-94564722D02*
X121458561Y-94564722D01*
X121144085Y-94782436D02*
X121144085Y-94274436D01*
X121144085Y-94274436D02*
X120853799Y-94782436D01*
X120853799Y-94782436D02*
X120853799Y-94274436D01*
X120611895Y-94782436D02*
X120611895Y-94274436D01*
X120611895Y-94274436D02*
X120490943Y-94274436D01*
X120490943Y-94274436D02*
X120418371Y-94298626D01*
X120418371Y-94298626D02*
X120369990Y-94347007D01*
X120369990Y-94347007D02*
X120345800Y-94395388D01*
X120345800Y-94395388D02*
X120321609Y-94492150D01*
X120321609Y-94492150D02*
X120321609Y-94564722D01*
X120321609Y-94564722D02*
X120345800Y-94661484D01*
X120345800Y-94661484D02*
X120369990Y-94709865D01*
X120369990Y-94709865D02*
X120418371Y-94758246D01*
X120418371Y-94758246D02*
X120490943Y-94782436D01*
X120490943Y-94782436D02*
X120611895Y-94782436D01*
X119577449Y-95318440D02*
X119504877Y-95342630D01*
X119504877Y-95342630D02*
X119383925Y-95342630D01*
X119383925Y-95342630D02*
X119335544Y-95318440D01*
X119335544Y-95318440D02*
X119311353Y-95294249D01*
X119311353Y-95294249D02*
X119287163Y-95245868D01*
X119287163Y-95245868D02*
X119287163Y-95197487D01*
X119287163Y-95197487D02*
X119311353Y-95149106D01*
X119311353Y-95149106D02*
X119335544Y-95124916D01*
X119335544Y-95124916D02*
X119383925Y-95100725D01*
X119383925Y-95100725D02*
X119480687Y-95076535D01*
X119480687Y-95076535D02*
X119529068Y-95052344D01*
X119529068Y-95052344D02*
X119553258Y-95028154D01*
X119553258Y-95028154D02*
X119577449Y-94979773D01*
X119577449Y-94979773D02*
X119577449Y-94931392D01*
X119577449Y-94931392D02*
X119553258Y-94883011D01*
X119553258Y-94883011D02*
X119529068Y-94858820D01*
X119529068Y-94858820D02*
X119480687Y-94834630D01*
X119480687Y-94834630D02*
X119359734Y-94834630D01*
X119359734Y-94834630D02*
X119287163Y-94858820D01*
X118779162Y-95294249D02*
X118803353Y-95318440D01*
X118803353Y-95318440D02*
X118875924Y-95342630D01*
X118875924Y-95342630D02*
X118924305Y-95342630D01*
X118924305Y-95342630D02*
X118996877Y-95318440D01*
X118996877Y-95318440D02*
X119045258Y-95270059D01*
X119045258Y-95270059D02*
X119069448Y-95221678D01*
X119069448Y-95221678D02*
X119093639Y-95124916D01*
X119093639Y-95124916D02*
X119093639Y-95052344D01*
X119093639Y-95052344D02*
X119069448Y-94955582D01*
X119069448Y-94955582D02*
X119045258Y-94907201D01*
X119045258Y-94907201D02*
X118996877Y-94858820D01*
X118996877Y-94858820D02*
X118924305Y-94834630D01*
X118924305Y-94834630D02*
X118875924Y-94834630D01*
X118875924Y-94834630D02*
X118803353Y-94858820D01*
X118803353Y-94858820D02*
X118779162Y-94883011D01*
X118319543Y-95342630D02*
X118561448Y-95342630D01*
X118561448Y-95342630D02*
X118561448Y-94834630D01*
X125543258Y-95029106D02*
X125156211Y-95029106D01*
X125349734Y-95222630D02*
X125349734Y-94835582D01*
X124962687Y-94714630D02*
X124648211Y-94714630D01*
X124648211Y-94714630D02*
X124817544Y-94908154D01*
X124817544Y-94908154D02*
X124744973Y-94908154D01*
X124744973Y-94908154D02*
X124696592Y-94932344D01*
X124696592Y-94932344D02*
X124672401Y-94956535D01*
X124672401Y-94956535D02*
X124648211Y-95004916D01*
X124648211Y-95004916D02*
X124648211Y-95125868D01*
X124648211Y-95125868D02*
X124672401Y-95174249D01*
X124672401Y-95174249D02*
X124696592Y-95198440D01*
X124696592Y-95198440D02*
X124744973Y-95222630D01*
X124744973Y-95222630D02*
X124890116Y-95222630D01*
X124890116Y-95222630D02*
X124938497Y-95198440D01*
X124938497Y-95198440D02*
X124962687Y-95174249D01*
X124430496Y-95174249D02*
X124406306Y-95198440D01*
X124406306Y-95198440D02*
X124430496Y-95222630D01*
X124430496Y-95222630D02*
X124454687Y-95198440D01*
X124454687Y-95198440D02*
X124430496Y-95174249D01*
X124430496Y-95174249D02*
X124430496Y-95222630D01*
X124236972Y-94714630D02*
X123922496Y-94714630D01*
X123922496Y-94714630D02*
X124091829Y-94908154D01*
X124091829Y-94908154D02*
X124019258Y-94908154D01*
X124019258Y-94908154D02*
X123970877Y-94932344D01*
X123970877Y-94932344D02*
X123946686Y-94956535D01*
X123946686Y-94956535D02*
X123922496Y-95004916D01*
X123922496Y-95004916D02*
X123922496Y-95125868D01*
X123922496Y-95125868D02*
X123946686Y-95174249D01*
X123946686Y-95174249D02*
X123970877Y-95198440D01*
X123970877Y-95198440D02*
X124019258Y-95222630D01*
X124019258Y-95222630D02*
X124164401Y-95222630D01*
X124164401Y-95222630D02*
X124212782Y-95198440D01*
X124212782Y-95198440D02*
X124236972Y-95174249D01*
X123777353Y-94714630D02*
X123608019Y-95222630D01*
X123608019Y-95222630D02*
X123438686Y-94714630D01*
X122979066Y-95174249D02*
X123003257Y-95198440D01*
X123003257Y-95198440D02*
X123075828Y-95222630D01*
X123075828Y-95222630D02*
X123124209Y-95222630D01*
X123124209Y-95222630D02*
X123196781Y-95198440D01*
X123196781Y-95198440D02*
X123245162Y-95150059D01*
X123245162Y-95150059D02*
X123269352Y-95101678D01*
X123269352Y-95101678D02*
X123293543Y-95004916D01*
X123293543Y-95004916D02*
X123293543Y-94932344D01*
X123293543Y-94932344D02*
X123269352Y-94835582D01*
X123269352Y-94835582D02*
X123245162Y-94787201D01*
X123245162Y-94787201D02*
X123196781Y-94738820D01*
X123196781Y-94738820D02*
X123124209Y-94714630D01*
X123124209Y-94714630D02*
X123075828Y-94714630D01*
X123075828Y-94714630D02*
X123003257Y-94738820D01*
X123003257Y-94738820D02*
X122979066Y-94763011D01*
X122471066Y-95174249D02*
X122495257Y-95198440D01*
X122495257Y-95198440D02*
X122567828Y-95222630D01*
X122567828Y-95222630D02*
X122616209Y-95222630D01*
X122616209Y-95222630D02*
X122688781Y-95198440D01*
X122688781Y-95198440D02*
X122737162Y-95150059D01*
X122737162Y-95150059D02*
X122761352Y-95101678D01*
X122761352Y-95101678D02*
X122785543Y-95004916D01*
X122785543Y-95004916D02*
X122785543Y-94932344D01*
X122785543Y-94932344D02*
X122761352Y-94835582D01*
X122761352Y-94835582D02*
X122737162Y-94787201D01*
X122737162Y-94787201D02*
X122688781Y-94738820D01*
X122688781Y-94738820D02*
X122616209Y-94714630D01*
X122616209Y-94714630D02*
X122567828Y-94714630D01*
X122567828Y-94714630D02*
X122495257Y-94738820D01*
X122495257Y-94738820D02*
X122471066Y-94763011D01*
X116167449Y-97548440D02*
X116094877Y-97572630D01*
X116094877Y-97572630D02*
X115973925Y-97572630D01*
X115973925Y-97572630D02*
X115925544Y-97548440D01*
X115925544Y-97548440D02*
X115901353Y-97524249D01*
X115901353Y-97524249D02*
X115877163Y-97475868D01*
X115877163Y-97475868D02*
X115877163Y-97427487D01*
X115877163Y-97427487D02*
X115901353Y-97379106D01*
X115901353Y-97379106D02*
X115925544Y-97354916D01*
X115925544Y-97354916D02*
X115973925Y-97330725D01*
X115973925Y-97330725D02*
X116070687Y-97306535D01*
X116070687Y-97306535D02*
X116119068Y-97282344D01*
X116119068Y-97282344D02*
X116143258Y-97258154D01*
X116143258Y-97258154D02*
X116167449Y-97209773D01*
X116167449Y-97209773D02*
X116167449Y-97161392D01*
X116167449Y-97161392D02*
X116143258Y-97113011D01*
X116143258Y-97113011D02*
X116119068Y-97088820D01*
X116119068Y-97088820D02*
X116070687Y-97064630D01*
X116070687Y-97064630D02*
X115949734Y-97064630D01*
X115949734Y-97064630D02*
X115877163Y-97088820D01*
X115659448Y-97572630D02*
X115659448Y-97064630D01*
X115659448Y-97064630D02*
X115538496Y-97064630D01*
X115538496Y-97064630D02*
X115465924Y-97088820D01*
X115465924Y-97088820D02*
X115417543Y-97137201D01*
X115417543Y-97137201D02*
X115393353Y-97185582D01*
X115393353Y-97185582D02*
X115369162Y-97282344D01*
X115369162Y-97282344D02*
X115369162Y-97354916D01*
X115369162Y-97354916D02*
X115393353Y-97451678D01*
X115393353Y-97451678D02*
X115417543Y-97500059D01*
X115417543Y-97500059D02*
X115465924Y-97548440D01*
X115465924Y-97548440D02*
X115538496Y-97572630D01*
X115538496Y-97572630D02*
X115659448Y-97572630D01*
X115175639Y-97427487D02*
X114933734Y-97427487D01*
X115224020Y-97572630D02*
X115054686Y-97064630D01*
X115054686Y-97064630D02*
X114885353Y-97572630D01*
X120117163Y-91918820D02*
X120165544Y-91894630D01*
X120165544Y-91894630D02*
X120238115Y-91894630D01*
X120238115Y-91894630D02*
X120310687Y-91918820D01*
X120310687Y-91918820D02*
X120359068Y-91967201D01*
X120359068Y-91967201D02*
X120383258Y-92015582D01*
X120383258Y-92015582D02*
X120407449Y-92112344D01*
X120407449Y-92112344D02*
X120407449Y-92184916D01*
X120407449Y-92184916D02*
X120383258Y-92281678D01*
X120383258Y-92281678D02*
X120359068Y-92330059D01*
X120359068Y-92330059D02*
X120310687Y-92378440D01*
X120310687Y-92378440D02*
X120238115Y-92402630D01*
X120238115Y-92402630D02*
X120189734Y-92402630D01*
X120189734Y-92402630D02*
X120117163Y-92378440D01*
X120117163Y-92378440D02*
X120092972Y-92354249D01*
X120092972Y-92354249D02*
X120092972Y-92184916D01*
X120092972Y-92184916D02*
X120189734Y-92184916D01*
X119584972Y-92402630D02*
X119754306Y-92160725D01*
X119875258Y-92402630D02*
X119875258Y-91894630D01*
X119875258Y-91894630D02*
X119681734Y-91894630D01*
X119681734Y-91894630D02*
X119633353Y-91918820D01*
X119633353Y-91918820D02*
X119609163Y-91943011D01*
X119609163Y-91943011D02*
X119584972Y-91991392D01*
X119584972Y-91991392D02*
X119584972Y-92063963D01*
X119584972Y-92063963D02*
X119609163Y-92112344D01*
X119609163Y-92112344D02*
X119633353Y-92136535D01*
X119633353Y-92136535D02*
X119681734Y-92160725D01*
X119681734Y-92160725D02*
X119875258Y-92160725D01*
X119367258Y-92136535D02*
X119197925Y-92136535D01*
X119125353Y-92402630D02*
X119367258Y-92402630D01*
X119367258Y-92402630D02*
X119367258Y-91894630D01*
X119367258Y-91894630D02*
X119125353Y-91894630D01*
X118907639Y-92136535D02*
X118738306Y-92136535D01*
X118665734Y-92402630D02*
X118907639Y-92402630D01*
X118907639Y-92402630D02*
X118907639Y-91894630D01*
X118907639Y-91894630D02*
X118665734Y-91894630D01*
X118448020Y-92402630D02*
X118448020Y-91894630D01*
X118448020Y-91894630D02*
X118157734Y-92402630D01*
X118157734Y-92402630D02*
X118157734Y-91894630D01*
X124623258Y-92149106D02*
X124236211Y-92149106D01*
X124429734Y-92342630D02*
X124429734Y-91955582D01*
X123752401Y-91834630D02*
X123994306Y-91834630D01*
X123994306Y-91834630D02*
X124018497Y-92076535D01*
X124018497Y-92076535D02*
X123994306Y-92052344D01*
X123994306Y-92052344D02*
X123945925Y-92028154D01*
X123945925Y-92028154D02*
X123824973Y-92028154D01*
X123824973Y-92028154D02*
X123776592Y-92052344D01*
X123776592Y-92052344D02*
X123752401Y-92076535D01*
X123752401Y-92076535D02*
X123728211Y-92124916D01*
X123728211Y-92124916D02*
X123728211Y-92245868D01*
X123728211Y-92245868D02*
X123752401Y-92294249D01*
X123752401Y-92294249D02*
X123776592Y-92318440D01*
X123776592Y-92318440D02*
X123824973Y-92342630D01*
X123824973Y-92342630D02*
X123945925Y-92342630D01*
X123945925Y-92342630D02*
X123994306Y-92318440D01*
X123994306Y-92318440D02*
X124018497Y-92294249D01*
X123583068Y-91834630D02*
X123413734Y-92342630D01*
X123413734Y-92342630D02*
X123244401Y-91834630D01*
X122784781Y-92294249D02*
X122808972Y-92318440D01*
X122808972Y-92318440D02*
X122881543Y-92342630D01*
X122881543Y-92342630D02*
X122929924Y-92342630D01*
X122929924Y-92342630D02*
X123002496Y-92318440D01*
X123002496Y-92318440D02*
X123050877Y-92270059D01*
X123050877Y-92270059D02*
X123075067Y-92221678D01*
X123075067Y-92221678D02*
X123099258Y-92124916D01*
X123099258Y-92124916D02*
X123099258Y-92052344D01*
X123099258Y-92052344D02*
X123075067Y-91955582D01*
X123075067Y-91955582D02*
X123050877Y-91907201D01*
X123050877Y-91907201D02*
X123002496Y-91858820D01*
X123002496Y-91858820D02*
X122929924Y-91834630D01*
X122929924Y-91834630D02*
X122881543Y-91834630D01*
X122881543Y-91834630D02*
X122808972Y-91858820D01*
X122808972Y-91858820D02*
X122784781Y-91883011D01*
X122276781Y-92294249D02*
X122300972Y-92318440D01*
X122300972Y-92318440D02*
X122373543Y-92342630D01*
X122373543Y-92342630D02*
X122421924Y-92342630D01*
X122421924Y-92342630D02*
X122494496Y-92318440D01*
X122494496Y-92318440D02*
X122542877Y-92270059D01*
X122542877Y-92270059D02*
X122567067Y-92221678D01*
X122567067Y-92221678D02*
X122591258Y-92124916D01*
X122591258Y-92124916D02*
X122591258Y-92052344D01*
X122591258Y-92052344D02*
X122567067Y-91955582D01*
X122567067Y-91955582D02*
X122542877Y-91907201D01*
X122542877Y-91907201D02*
X122494496Y-91858820D01*
X122494496Y-91858820D02*
X122421924Y-91834630D01*
X122421924Y-91834630D02*
X122373543Y-91834630D01*
X122373543Y-91834630D02*
X122300972Y-91858820D01*
X122300972Y-91858820D02*
X122276781Y-91883011D01*
X117433925Y-91936535D02*
X117361353Y-91960725D01*
X117361353Y-91960725D02*
X117337163Y-91984916D01*
X117337163Y-91984916D02*
X117312972Y-92033297D01*
X117312972Y-92033297D02*
X117312972Y-92105868D01*
X117312972Y-92105868D02*
X117337163Y-92154249D01*
X117337163Y-92154249D02*
X117361353Y-92178440D01*
X117361353Y-92178440D02*
X117409734Y-92202630D01*
X117409734Y-92202630D02*
X117603258Y-92202630D01*
X117603258Y-92202630D02*
X117603258Y-91694630D01*
X117603258Y-91694630D02*
X117433925Y-91694630D01*
X117433925Y-91694630D02*
X117385544Y-91718820D01*
X117385544Y-91718820D02*
X117361353Y-91743011D01*
X117361353Y-91743011D02*
X117337163Y-91791392D01*
X117337163Y-91791392D02*
X117337163Y-91839773D01*
X117337163Y-91839773D02*
X117361353Y-91888154D01*
X117361353Y-91888154D02*
X117385544Y-91912344D01*
X117385544Y-91912344D02*
X117433925Y-91936535D01*
X117433925Y-91936535D02*
X117603258Y-91936535D01*
X116853353Y-92202630D02*
X117095258Y-92202630D01*
X117095258Y-92202630D02*
X117095258Y-91694630D01*
X116684020Y-91694630D02*
X116684020Y-92105868D01*
X116684020Y-92105868D02*
X116659830Y-92154249D01*
X116659830Y-92154249D02*
X116635639Y-92178440D01*
X116635639Y-92178440D02*
X116587258Y-92202630D01*
X116587258Y-92202630D02*
X116490496Y-92202630D01*
X116490496Y-92202630D02*
X116442115Y-92178440D01*
X116442115Y-92178440D02*
X116417925Y-92154249D01*
X116417925Y-92154249D02*
X116393734Y-92105868D01*
X116393734Y-92105868D02*
X116393734Y-91694630D01*
X116151830Y-91936535D02*
X115982497Y-91936535D01*
X115909925Y-92202630D02*
X116151830Y-92202630D01*
X116151830Y-92202630D02*
X116151830Y-91694630D01*
X116151830Y-91694630D02*
X115909925Y-91694630D01*
X121382972Y-89432630D02*
X121552306Y-89190725D01*
X121673258Y-89432630D02*
X121673258Y-88924630D01*
X121673258Y-88924630D02*
X121479734Y-88924630D01*
X121479734Y-88924630D02*
X121431353Y-88948820D01*
X121431353Y-88948820D02*
X121407163Y-88973011D01*
X121407163Y-88973011D02*
X121382972Y-89021392D01*
X121382972Y-89021392D02*
X121382972Y-89093963D01*
X121382972Y-89093963D02*
X121407163Y-89142344D01*
X121407163Y-89142344D02*
X121431353Y-89166535D01*
X121431353Y-89166535D02*
X121479734Y-89190725D01*
X121479734Y-89190725D02*
X121673258Y-89190725D01*
X121165258Y-89166535D02*
X120995925Y-89166535D01*
X120923353Y-89432630D02*
X121165258Y-89432630D01*
X121165258Y-89432630D02*
X121165258Y-88924630D01*
X121165258Y-88924630D02*
X120923353Y-88924630D01*
X120705639Y-89432630D02*
X120705639Y-88924630D01*
X120705639Y-88924630D02*
X120584687Y-88924630D01*
X120584687Y-88924630D02*
X120512115Y-88948820D01*
X120512115Y-88948820D02*
X120463734Y-88997201D01*
X120463734Y-88997201D02*
X120439544Y-89045582D01*
X120439544Y-89045582D02*
X120415353Y-89142344D01*
X120415353Y-89142344D02*
X120415353Y-89214916D01*
X120415353Y-89214916D02*
X120439544Y-89311678D01*
X120439544Y-89311678D02*
X120463734Y-89360059D01*
X120463734Y-89360059D02*
X120512115Y-89408440D01*
X120512115Y-89408440D02*
X120584687Y-89432630D01*
X120584687Y-89432630D02*
X120705639Y-89432630D01*
X134458972Y-72532419D02*
X134125639Y-73532419D01*
X134125639Y-73532419D02*
X133792306Y-72532419D01*
X133458972Y-73532419D02*
X133458972Y-72532419D01*
X132982782Y-73532419D02*
X132982782Y-72532419D01*
X132982782Y-72532419D02*
X132411354Y-73532419D01*
X132411354Y-73532419D02*
X132411354Y-72532419D01*
X130697068Y-72532419D02*
X131173258Y-72532419D01*
X131173258Y-72532419D02*
X131220877Y-73008609D01*
X131220877Y-73008609D02*
X131173258Y-72960990D01*
X131173258Y-72960990D02*
X131078020Y-72913371D01*
X131078020Y-72913371D02*
X130839925Y-72913371D01*
X130839925Y-72913371D02*
X130744687Y-72960990D01*
X130744687Y-72960990D02*
X130697068Y-73008609D01*
X130697068Y-73008609D02*
X130649449Y-73103847D01*
X130649449Y-73103847D02*
X130649449Y-73341942D01*
X130649449Y-73341942D02*
X130697068Y-73437180D01*
X130697068Y-73437180D02*
X130744687Y-73484800D01*
X130744687Y-73484800D02*
X130839925Y-73532419D01*
X130839925Y-73532419D02*
X131078020Y-73532419D01*
X131078020Y-73532419D02*
X131173258Y-73484800D01*
X131173258Y-73484800D02*
X131220877Y-73437180D01*
X130220877Y-73151466D02*
X129458973Y-73151466D01*
X129030401Y-72627657D02*
X128982782Y-72580038D01*
X128982782Y-72580038D02*
X128887544Y-72532419D01*
X128887544Y-72532419D02*
X128649449Y-72532419D01*
X128649449Y-72532419D02*
X128554211Y-72580038D01*
X128554211Y-72580038D02*
X128506592Y-72627657D01*
X128506592Y-72627657D02*
X128458973Y-72722895D01*
X128458973Y-72722895D02*
X128458973Y-72818133D01*
X128458973Y-72818133D02*
X128506592Y-72960990D01*
X128506592Y-72960990D02*
X129078020Y-73532419D01*
X129078020Y-73532419D02*
X128458973Y-73532419D01*
X127601830Y-72865752D02*
X127601830Y-73532419D01*
X127839925Y-72484800D02*
X128078020Y-73199085D01*
X128078020Y-73199085D02*
X127458973Y-73199085D01*
X126838972Y-72532419D02*
X126505639Y-73532419D01*
X126505639Y-73532419D02*
X126172306Y-72532419D01*
X125648496Y-72532419D02*
X125458020Y-72532419D01*
X125458020Y-72532419D02*
X125362782Y-72580038D01*
X125362782Y-72580038D02*
X125267544Y-72675276D01*
X125267544Y-72675276D02*
X125219925Y-72865752D01*
X125219925Y-72865752D02*
X125219925Y-73199085D01*
X125219925Y-73199085D02*
X125267544Y-73389561D01*
X125267544Y-73389561D02*
X125362782Y-73484800D01*
X125362782Y-73484800D02*
X125458020Y-73532419D01*
X125458020Y-73532419D02*
X125648496Y-73532419D01*
X125648496Y-73532419D02*
X125743734Y-73484800D01*
X125743734Y-73484800D02*
X125838972Y-73389561D01*
X125838972Y-73389561D02*
X125886591Y-73199085D01*
X125886591Y-73199085D02*
X125886591Y-72865752D01*
X125886591Y-72865752D02*
X125838972Y-72675276D01*
X125838972Y-72675276D02*
X125743734Y-72580038D01*
X125743734Y-72580038D02*
X125648496Y-72532419D01*
X124791353Y-72532419D02*
X124791353Y-73341942D01*
X124791353Y-73341942D02*
X124743734Y-73437180D01*
X124743734Y-73437180D02*
X124696115Y-73484800D01*
X124696115Y-73484800D02*
X124600877Y-73532419D01*
X124600877Y-73532419D02*
X124410401Y-73532419D01*
X124410401Y-73532419D02*
X124315163Y-73484800D01*
X124315163Y-73484800D02*
X124267544Y-73437180D01*
X124267544Y-73437180D02*
X124219925Y-73341942D01*
X124219925Y-73341942D02*
X124219925Y-72532419D01*
X123886591Y-72532419D02*
X123315163Y-72532419D01*
X123600877Y-73532419D02*
X123600877Y-72532419D01*
X121743734Y-72532419D02*
X122219924Y-72532419D01*
X122219924Y-72532419D02*
X122267543Y-73008609D01*
X122267543Y-73008609D02*
X122219924Y-72960990D01*
X122219924Y-72960990D02*
X122124686Y-72913371D01*
X122124686Y-72913371D02*
X121886591Y-72913371D01*
X121886591Y-72913371D02*
X121791353Y-72960990D01*
X121791353Y-72960990D02*
X121743734Y-73008609D01*
X121743734Y-73008609D02*
X121696115Y-73103847D01*
X121696115Y-73103847D02*
X121696115Y-73341942D01*
X121696115Y-73341942D02*
X121743734Y-73437180D01*
X121743734Y-73437180D02*
X121791353Y-73484800D01*
X121791353Y-73484800D02*
X121886591Y-73532419D01*
X121886591Y-73532419D02*
X122124686Y-73532419D01*
X122124686Y-73532419D02*
X122219924Y-73484800D01*
X122219924Y-73484800D02*
X122267543Y-73437180D01*
X121410400Y-72532419D02*
X121077067Y-73532419D01*
X121077067Y-73532419D02*
X120743734Y-72532419D01*
X119838972Y-73437180D02*
X119886591Y-73484800D01*
X119886591Y-73484800D02*
X120029448Y-73532419D01*
X120029448Y-73532419D02*
X120124686Y-73532419D01*
X120124686Y-73532419D02*
X120267543Y-73484800D01*
X120267543Y-73484800D02*
X120362781Y-73389561D01*
X120362781Y-73389561D02*
X120410400Y-73294323D01*
X120410400Y-73294323D02*
X120458019Y-73103847D01*
X120458019Y-73103847D02*
X120458019Y-72960990D01*
X120458019Y-72960990D02*
X120410400Y-72770514D01*
X120410400Y-72770514D02*
X120362781Y-72675276D01*
X120362781Y-72675276D02*
X120267543Y-72580038D01*
X120267543Y-72580038D02*
X120124686Y-72532419D01*
X120124686Y-72532419D02*
X120029448Y-72532419D01*
X120029448Y-72532419D02*
X119886591Y-72580038D01*
X119886591Y-72580038D02*
X119838972Y-72627657D01*
X118838972Y-73437180D02*
X118886591Y-73484800D01*
X118886591Y-73484800D02*
X119029448Y-73532419D01*
X119029448Y-73532419D02*
X119124686Y-73532419D01*
X119124686Y-73532419D02*
X119267543Y-73484800D01*
X119267543Y-73484800D02*
X119362781Y-73389561D01*
X119362781Y-73389561D02*
X119410400Y-73294323D01*
X119410400Y-73294323D02*
X119458019Y-73103847D01*
X119458019Y-73103847D02*
X119458019Y-72960990D01*
X119458019Y-72960990D02*
X119410400Y-72770514D01*
X119410400Y-72770514D02*
X119362781Y-72675276D01*
X119362781Y-72675276D02*
X119267543Y-72580038D01*
X119267543Y-72580038D02*
X119124686Y-72532419D01*
X119124686Y-72532419D02*
X119029448Y-72532419D01*
X119029448Y-72532419D02*
X118886591Y-72580038D01*
X118886591Y-72580038D02*
X118838972Y-72627657D01*
M02*
