M48
; DRILL file {KiCad 9.0.6} date 2026-02-07T02:30:06+0100
; FORMAT={-:-/ absolute / metric / decimal}
; #@! TF.CreationDate,2026-02-07T02:30:06+01:00
; #@! TF.GenerationSoftware,Kicad,Pcbnew,9.0.6
; #@! TF.FileFunction,Plated,1,2,PTH
FMAT,2
METRIC
; #@! TA.AperFunction,Plated,PTH,ViaDrill
T1C0.300
; #@! TA.AperFunction,Plated,PTH,ComponentDrill
T2C0.750
; #@! TA.AperFunction,Plated,PTH,ComponentDrill
T3C1.000
; #@! TA.AperFunction,Plated,PTH,ComponentDrill
T4C1.300
%
G90
G05
T1
X99.695Y-77.851
X99.822Y-82.804
X99.822Y-87.63
X104.14Y-76.708
X104.14Y-81.28
X104.14Y-86.36
X107.0Y-84.234
X107.144Y-88.856
X107.188Y-79.571
T2
X117.0Y-90.75
X117.0Y-96.55
X119.0Y-90.75
X119.0Y-96.55
X121.0Y-90.75
X121.0Y-96.55
X123.0Y-90.75
X123.0Y-96.55
T3
X91.0Y-73.66
X91.0Y-76.2
X91.0Y-78.74
X91.0Y-81.28
X91.0Y-86.36
X91.0Y-88.9
X91.0Y-91.44
X91.0Y-93.98
X96.52Y-73.38
X96.52Y-75.92
X96.52Y-78.46
X96.52Y-81.0
X96.52Y-83.54
X96.52Y-86.08
X96.52Y-88.62
X96.52Y-91.16
X96.52Y-93.7
X96.52Y-96.24
X111.76Y-73.34
X111.76Y-75.88
X111.76Y-78.42
X111.76Y-80.96
X111.76Y-83.5
X111.76Y-86.04
X111.76Y-88.58
X111.76Y-91.12
X111.76Y-93.66
X111.76Y-96.2
X116.93Y-71.38
X116.93Y-73.92
X116.93Y-82.048
X116.93Y-84.588
X135.472Y-71.38
X135.472Y-73.92
X135.472Y-82.048
X135.472Y-84.588
T4
X132.08Y-90.75
X132.08Y-95.83
M30
