M48
; DRILL file {KiCad 9.0.6} date 2026-03-05T14:37:56+0100
; FORMAT={-:-/ absolute / metric / decimal}
; #@! TF.CreationDate,2026-03-05T14:37:56+01:00
; #@! TF.GenerationSoftware,Kicad,Pcbnew,9.0.6
; #@! TF.FileFunction,Plated,1,2,PTH
FMAT,2
METRIC
; #@! TA.AperFunction,Plated,PTH,ViaDrill
T1C0.300
; #@! TA.AperFunction,Plated,PTH,ComponentDrill
T2C0.750
; #@! TA.AperFunction,Plated,PTH,ComponentDrill
T3C0.950
; #@! TA.AperFunction,Plated,PTH,ComponentDrill
T4C1.000
; #@! TA.AperFunction,Plated,PTH,ComponentDrill
T5C1.300
%
G90
G05
T1
X99.695Y-77.851
X99.822Y-82.804
X99.822Y-87.63
X104.14Y-76.708
X104.14Y-81.28
X104.14Y-86.36
X107.0Y-84.234
X107.144Y-88.856
X107.188Y-79.571
X110.024Y-88.688
X121.0Y-93.605
T2
X116.998Y-89.704
X117.0Y-96.55
X118.998Y-89.704
X119.0Y-96.55
X120.998Y-89.704
X121.0Y-96.55
X122.998Y-89.704
X123.0Y-96.55
T3
X89.899Y-73.72
X89.899Y-76.22
X89.899Y-78.72
X89.899Y-81.22
X89.916Y-87.496
X89.916Y-89.996
X89.916Y-92.496
X89.916Y-94.996
T4
X96.52Y-73.38
X96.52Y-75.92
X96.52Y-78.46
X96.52Y-81.0
X96.52Y-83.54
X96.52Y-86.08
X96.52Y-88.62
X96.52Y-91.16
X96.52Y-93.7
X96.52Y-96.24
X111.76Y-73.34
X111.76Y-75.88
X111.76Y-78.42
X111.76Y-80.96
X111.76Y-83.5
X111.76Y-86.04
X111.76Y-88.58
X111.76Y-91.12
X111.76Y-93.66
X111.76Y-96.2
X116.93Y-71.38
X116.93Y-73.92
X116.93Y-82.048
X116.93Y-84.588
X135.472Y-71.38
X135.472Y-73.92
X135.472Y-82.048
X135.472Y-84.588
T5
X132.08Y-90.932
X132.08Y-96.012
M30
