%TF.GenerationSoftware,KiCad,Pcbnew,9.0.6*%
%TF.CreationDate,2026-03-05T14:37:52+01:00*%
%TF.ProjectId,KinderLight,4b696e64-6572-44c6-9967-68742e6b6963,2025030502*%
%TF.SameCoordinates,Original*%
%TF.FileFunction,Copper,L1,Top*%
%TF.FilePolarity,Positive*%
%FSLAX46Y46*%
G04 Gerber Fmt 4.6, Leading zero omitted, Abs format (unit mm)*
G04 Created by KiCad (PCBNEW 9.0.6) date 2026-03-05 14:37:52*
%MOMM*%
%LPD*%
G01*
G04 APERTURE LIST*
G04 Aperture macros list*
%AMRoundRect*
0 Rectangle with rounded corners*
0 $1 Rounding radius*
0 $2 $3 $4 $5 $6 $7 $8 $9 X,Y pos of 4 corners*
0 Add a 4 corners polygon primitive as box body*
4,1,4,$2,$3,$4,$5,$6,$7,$8,$9,$2,$3,0*
0 Add four circle primitives for the rounded corners*
1,1,$1+$1,$2,$3*
1,1,$1+$1,$4,$5*
1,1,$1+$1,$6,$7*
1,1,$1+$1,$8,$9*
0 Add four rect primitives between the rounded corners*
20,1,$1+$1,$2,$3,$4,$5,0*
20,1,$1+$1,$4,$5,$6,$7,0*
20,1,$1+$1,$6,$7,$8,$9,0*
20,1,$1+$1,$8,$9,$2,$3,0*%
G04 Aperture macros list end*
%TA.AperFunction,ComponentPad*%
%ADD10O,1.200000X1.750000*%
%TD*%
%TA.AperFunction,ComponentPad*%
%ADD11RoundRect,0.250000X-0.350000X-0.625000X0.350000X-0.625000X0.350000X0.625000X-0.350000X0.625000X0*%
%TD*%
%TA.AperFunction,ComponentPad*%
%ADD12RoundRect,0.250000X0.350000X0.625000X-0.350000X0.625000X-0.350000X-0.625000X0.350000X-0.625000X0*%
%TD*%
%TA.AperFunction,ComponentPad*%
%ADD13O,1.950000X1.700000*%
%TD*%
%TA.AperFunction,ComponentPad*%
%ADD14RoundRect,0.250000X0.725000X-0.600000X0.725000X0.600000X-0.725000X0.600000X-0.725000X-0.600000X0*%
%TD*%
%TA.AperFunction,SMDPad,CuDef*%
%ADD15RoundRect,0.250000X0.262500X0.450000X-0.262500X0.450000X-0.262500X-0.450000X0.262500X-0.450000X0*%
%TD*%
%TA.AperFunction,ComponentPad*%
%ADD16R,1.700000X1.700000*%
%TD*%
%TA.AperFunction,ComponentPad*%
%ADD17C,1.700000*%
%TD*%
%TA.AperFunction,SMDPad,CuDef*%
%ADD18RoundRect,0.150000X-0.150000X0.587500X-0.150000X-0.587500X0.150000X-0.587500X0.150000X0.587500X0*%
%TD*%
%TA.AperFunction,ComponentPad*%
%ADD19RoundRect,0.250000X-1.050000X1.050000X-1.050000X-1.050000X1.050000X-1.050000X1.050000X1.050000X0*%
%TD*%
%TA.AperFunction,ComponentPad*%
%ADD20C,2.600000*%
%TD*%
%TA.AperFunction,ViaPad*%
%ADD21C,0.600000*%
%TD*%
%TA.AperFunction,Conductor*%
%ADD22C,0.200000*%
%TD*%
%TA.AperFunction,Conductor*%
%ADD23C,0.600000*%
%TD*%
%TA.AperFunction,Conductor*%
%ADD24C,0.800000*%
%TD*%
G04 APERTURE END LIST*
D10*
%TO.P,J10,4,Pin_4*%
%TO.N,/LED BLUE*%
X116998317Y-89703933D03*
%TO.P,J10,3,Pin_3*%
%TO.N,/LED GREEN*%
X118998317Y-89703933D03*
%TO.P,J10,2,Pin_2*%
%TO.N,/LED RED*%
X120998317Y-89703933D03*
D11*
%TO.P,J10,1,Pin_1*%
%TO.N,VCC 5V*%
X122998317Y-89703933D03*
%TD*%
D12*
%TO.P,J11,1,Pin_1*%
%TO.N,/3.3VDC*%
X117000000Y-96550000D03*
D10*
%TO.P,J11,4,Pin_4*%
%TO.N,/I2C SDA*%
X123000000Y-96550000D03*
%TO.P,J11,3,Pin_3*%
%TO.N,/I2C SCL*%
X121000000Y-96550000D03*
%TO.P,J11,2,Pin_2*%
%TO.N,GND*%
X119000000Y-96550000D03*
%TD*%
D13*
%TO.P,J8,4,Pin_4*%
%TO.N,/LED BLUE*%
X89899000Y-81220000D03*
D14*
%TO.P,J8,1,Pin_1*%
%TO.N,VCC 5V*%
X89899000Y-73720000D03*
D13*
%TO.P,J8,3,Pin_3*%
%TO.N,/LED GREEN*%
X89899000Y-78720000D03*
%TO.P,J8,2,Pin_2*%
%TO.N,/LED RED*%
X89899000Y-76220000D03*
%TD*%
%TO.P,J7,4,Pin_4*%
%TO.N,/I2C SDA*%
X89916000Y-94996000D03*
%TO.P,J7,3,Pin_3*%
%TO.N,/I2C SCL*%
X89916000Y-92496000D03*
%TO.P,J7,2,Pin_2*%
%TO.N,GND*%
X89916000Y-89996000D03*
D14*
%TO.P,J7,1,Pin_1*%
%TO.N,/3.3VDC*%
X89916000Y-87496000D03*
%TD*%
D15*
%TO.P,R5,1*%
%TO.N,Net-(Q2-D)*%
X101600000Y-81280000D03*
%TO.P,R5,2*%
%TO.N,/LED GREEN*%
X99775000Y-81280000D03*
%TD*%
D16*
%TO.P,J3,1,Pin_1*%
%TO.N,unconnected-(J3-Pin_1-Pad1)*%
X96520000Y-73380000D03*
D17*
%TO.P,J3,2,Pin_2*%
%TO.N,unconnected-(J3-Pin_2-Pad2)*%
X96520000Y-75920000D03*
%TO.P,J3,3,Pin_3*%
%TO.N,unconnected-(J3-Pin_3-Pad3)*%
X96520000Y-78460000D03*
%TO.P,J3,4,Pin_4*%
%TO.N,/PWM_RED*%
X96520000Y-81000000D03*
%TO.P,J3,5,Pin_5*%
%TO.N,/PWM_GREEN*%
X96520000Y-83540000D03*
%TO.P,J3,6,Pin_6*%
%TO.N,/PWM_BLUE*%
X96520000Y-86080000D03*
%TO.P,J3,7,Pin_7*%
%TO.N,unconnected-(J3-Pin_7-Pad7)*%
X96520000Y-88620000D03*
%TO.P,J3,8,Pin_8*%
%TO.N,unconnected-(J3-Pin_8-Pad8)*%
X96520000Y-91160000D03*
%TO.P,J3,9,Pin_9*%
%TO.N,unconnected-(J3-Pin_9-Pad9)*%
X96520000Y-93700000D03*
%TO.P,J3,10,Pin_10*%
%TO.N,unconnected-(J3-Pin_10-Pad10)*%
X96520000Y-96240000D03*
%TD*%
D16*
%TO.P,J5,1,Pin_1*%
%TO.N,VCC 12V MAX*%
X135472000Y-71380000D03*
D17*
%TO.P,J5,2,Pin_2*%
X135472000Y-73920000D03*
%TD*%
D16*
%TO.P,J2,1,Pin_1*%
%TO.N,GND*%
X116930000Y-82048000D03*
D17*
%TO.P,J2,2,Pin_2*%
X116930000Y-84588000D03*
%TD*%
D16*
%TO.P,J6,1,Pin_1*%
%TO.N,GND*%
X135472000Y-82048000D03*
D17*
%TO.P,J6,2,Pin_2*%
X135472000Y-84588000D03*
%TD*%
D18*
%TO.P,Q1,1,G*%
%TO.N,Net-(Q1-G)*%
X105200000Y-76562500D03*
%TO.P,Q1,2,S*%
%TO.N,GND*%
X103300000Y-76562500D03*
%TO.P,Q1,3,D*%
%TO.N,Net-(Q1-D)*%
X104250000Y-78437500D03*
%TD*%
%TO.P,Q2,1,G*%
%TO.N,Net-(Q2-G)*%
X105200000Y-81320118D03*
%TO.P,Q2,2,S*%
%TO.N,GND*%
X103300000Y-81320118D03*
%TO.P,Q2,3,D*%
%TO.N,Net-(Q2-D)*%
X104250000Y-83195118D03*
%TD*%
D15*
%TO.P,R6,1*%
%TO.N,Net-(Q3-D)*%
X101600000Y-86360000D03*
%TO.P,R6,2*%
%TO.N,/LED BLUE*%
X99775000Y-86360000D03*
%TD*%
%TO.P,R2,1*%
%TO.N,/PWM_GREEN*%
X108712000Y-81280000D03*
%TO.P,R2,2*%
%TO.N,Net-(Q2-G)*%
X106887000Y-81280000D03*
%TD*%
D16*
%TO.P,J4,1,Pin_1*%
%TO.N,VCC 5V*%
X111760000Y-73340000D03*
D17*
%TO.P,J4,2,Pin_2*%
%TO.N,GND*%
X111760000Y-75880000D03*
%TO.P,J4,3,Pin_3*%
%TO.N,/3.3VDC*%
X111760000Y-78420000D03*
%TO.P,J4,4,Pin_4*%
%TO.N,unconnected-(J4-Pin_4-Pad4)*%
X111760000Y-80960000D03*
%TO.P,J4,5,Pin_5*%
%TO.N,unconnected-(J4-Pin_5-Pad5)*%
X111760000Y-83500000D03*
%TO.P,J4,6,Pin_6*%
%TO.N,unconnected-(J4-Pin_6-Pad6)*%
X111760000Y-86040000D03*
%TO.P,J4,7,Pin_7*%
%TO.N,/I2C SCL*%
X111760000Y-88580000D03*
%TO.P,J4,8,Pin_8*%
%TO.N,/I2C SDA*%
X111760000Y-91120000D03*
%TO.P,J4,9,Pin_9*%
%TO.N,unconnected-(J4-Pin_9-Pad9)*%
X111760000Y-93660000D03*
%TO.P,J4,10,Pin_10*%
%TO.N,unconnected-(J4-Pin_10-Pad10)*%
X111760000Y-96200000D03*
%TD*%
D16*
%TO.P,J1,1,Pin_1*%
%TO.N,VCC 5V*%
X116930000Y-71380000D03*
D17*
%TO.P,J1,2,Pin_2*%
X116930000Y-73920000D03*
%TD*%
D19*
%TO.P,J9,1,Pin_1*%
%TO.N,VCC 12V MAX*%
X132080000Y-90932000D03*
D20*
%TO.P,J9,2,Pin_2*%
%TO.N,GND*%
X132080000Y-96012000D03*
%TD*%
D15*
%TO.P,R4,1*%
%TO.N,Net-(Q1-D)*%
X101600000Y-76500000D03*
%TO.P,R4,2*%
%TO.N,/LED RED*%
X99775000Y-76500000D03*
%TD*%
%TO.P,R1,1*%
%TO.N,/PWM_RED*%
X108712000Y-76500000D03*
%TO.P,R1,2*%
%TO.N,Net-(Q1-G)*%
X106887000Y-76500000D03*
%TD*%
%TO.P,R3,1*%
%TO.N,/PWM_BLUE*%
X108712000Y-86279093D03*
%TO.P,R3,2*%
%TO.N,Net-(Q3-G)*%
X106887000Y-86279093D03*
%TD*%
D18*
%TO.P,Q3,1,G*%
%TO.N,Net-(Q3-G)*%
X105200000Y-86303841D03*
%TO.P,Q3,2,S*%
%TO.N,GND*%
X103300000Y-86303841D03*
%TO.P,Q3,3,D*%
%TO.N,Net-(Q3-D)*%
X104250000Y-88178841D03*
%TD*%
D21*
%TO.N,/I2C SCL*%
X121000000Y-93604600D03*
%TO.N,GND*%
X104140000Y-76708000D03*
X104140000Y-86360000D03*
X104140000Y-81280000D03*
%TO.N,/3.3VDC*%
X110024120Y-88688120D03*
%TO.N,/LED GREEN*%
X107000000Y-84233618D03*
X99822000Y-82804000D03*
%TO.N,/LED BLUE*%
X107144000Y-88856000D03*
X99822000Y-87630000D03*
%TO.N,/LED RED*%
X99695000Y-77851000D03*
X107188000Y-79571000D03*
%TD*%
D22*
%TO.N,/I2C SCL*%
X121000000Y-93604600D02*
X121000000Y-96550000D01*
%TO.N,/3.3VDC*%
X111117800Y-94811000D02*
X110007400Y-93700600D01*
X115261000Y-94811000D02*
X111117800Y-94811000D01*
X117000000Y-96550000D02*
X115261000Y-94811000D01*
X110007400Y-93700600D02*
X110024120Y-93683880D01*
X110024120Y-93683880D02*
X110024120Y-88688120D01*
D23*
%TO.N,VCC 5V*%
X116930000Y-73920000D02*
X122998317Y-79988317D01*
X122998317Y-79988317D02*
X122998317Y-89703933D01*
D24*
%TO.N,GND*%
X103356159Y-86360000D02*
X103300000Y-86303841D01*
X103445500Y-76708000D02*
X103300000Y-76562500D01*
X104140000Y-81280000D02*
X103340118Y-81280000D01*
X104140000Y-76708000D02*
X103445500Y-76708000D01*
X104140000Y-86360000D02*
X103356159Y-86360000D01*
X103340118Y-81280000D02*
X103300000Y-81320118D01*
D22*
%TO.N,/PWM_BLUE*%
X107533407Y-85000000D02*
X97600000Y-85000000D01*
X108812500Y-86279093D02*
X107533407Y-85000000D01*
X97600000Y-85000000D02*
X96520000Y-86080000D01*
%TO.N,/PWM_RED*%
X107312500Y-75000000D02*
X99544517Y-75000000D01*
X108812500Y-76500000D02*
X107312500Y-75000000D01*
X97671000Y-76873517D02*
X97671000Y-79849000D01*
X99544517Y-75000000D02*
X97671000Y-76873517D01*
X97671000Y-79849000D02*
X96520000Y-81000000D01*
%TO.N,/PWM_GREEN*%
X108812500Y-81280000D02*
X107811500Y-80279000D01*
X98868760Y-80279000D02*
X96520000Y-82627760D01*
X96520000Y-82627760D02*
X96520000Y-83540000D01*
X107811500Y-80279000D02*
X98868760Y-80279000D01*
%TO.N,/I2C SDA*%
X111760000Y-91120000D02*
X112120000Y-91120000D01*
%TO.N,GND*%
X119000000Y-95820000D02*
X119000000Y-96000000D01*
%TO.N,Net-(Q1-G)*%
X106987500Y-76500000D02*
X105262500Y-76500000D01*
X105262500Y-76500000D02*
X105200000Y-76562500D01*
%TO.N,Net-(Q1-D)*%
X103305677Y-78437500D02*
X101368177Y-76500000D01*
X104250000Y-78437500D02*
X103305677Y-78437500D01*
%TO.N,Net-(Q2-D)*%
X104250000Y-83195118D02*
X103283295Y-83195118D01*
X103283295Y-83195118D02*
X101368177Y-81280000D01*
%TO.N,Net-(Q2-G)*%
X106987500Y-81280000D02*
X105240118Y-81280000D01*
%TO.N,Net-(Q3-G)*%
X105224748Y-86279093D02*
X105200000Y-86303841D01*
X106987500Y-86279093D02*
X105224748Y-86279093D01*
%TO.N,Net-(Q3-D)*%
X103187018Y-88178841D02*
X101368177Y-86360000D01*
X104250000Y-88178841D02*
X103187018Y-88178841D01*
%TO.N,/3.3VDC*%
X111760000Y-78420000D02*
X109982000Y-80198000D01*
X109982000Y-80198000D02*
X109982000Y-88646000D01*
%TO.N,/LED GREEN*%
X101067177Y-82804000D02*
X102496795Y-84233618D01*
X102496795Y-84233618D02*
X107000000Y-84233618D01*
X99822000Y-81327000D02*
X99775000Y-81280000D01*
X99822000Y-82804000D02*
X101067177Y-82804000D01*
X99822000Y-82804000D02*
X99822000Y-81327000D01*
%TO.N,/LED BLUE*%
X99822000Y-86407000D02*
X99775000Y-86360000D01*
X102914177Y-89731000D02*
X106269000Y-89731000D01*
X100813177Y-87630000D02*
X102914177Y-89731000D01*
X99822000Y-87630000D02*
X99822000Y-86407000D01*
X106269000Y-89731000D02*
X107000000Y-89000000D01*
X99822000Y-87630000D02*
X100813177Y-87630000D01*
%TO.N,/LED RED*%
X99695000Y-77851000D02*
X99775000Y-77771000D01*
X99775000Y-77771000D02*
X99775000Y-76500000D01*
X99775000Y-77931000D02*
X101415000Y-79571000D01*
X99775000Y-76500000D02*
X99775000Y-77931000D01*
X101415000Y-79571000D02*
X107000000Y-79571000D01*
%TD*%
M02*
